SplineFontDB: 3.2
FontName: Hebdomadal
FullName: Hebdomadal
FamilyName: Hebdomadal
Weight: Regular
Copyright: Copyright (c) 2024-2025, Bao Nguyen (RandomMaerks) (rmforbusiness@gmail.com)
UComments: "2024-1-7: Created with FontForge (http://fontforge.org)"
Version: 1.0
ItalicAngle: 0
UnderlinePosition: -200
UnderlineWidth: 100
Ascent: 1600
Descent: 400
InvalidEm: 0
LayerCount: 2
Layer: 0 0 "Back" 1
Layer: 1 0 "Fore" 0
XUID: [1021 366 1780442531 12863]
StyleMap: 0x0040
FSType: 0
OS2Version: 0
OS2_WeightWidthSlopeOnly: 0
OS2_UseTypoMetrics: 0
CreationTime: 1704641141
ModificationTime: 1735699013
PfmFamily: 17
TTFWeight: 400
TTFWidth: 5
LineGap: 180
VLineGap: 0
OS2TypoAscent: 2000
OS2TypoAOffset: 0
OS2TypoDescent: -700
OS2TypoDOffset: 0
OS2TypoLinegap: 0
OS2WinAscent: 2000
OS2WinAOffset: 0
OS2WinDescent: 700
OS2WinDOffset: 0
HheadAscent: 2000
HheadAOffset: 0
HheadDescent: -700
HheadDOffset: 0
OS2Vendor: 'RDMK'
MarkAttachClasses: 1
DEI: 91125

StartChar: A
Encoding: 65 65 0
GlifName: A_
Width: 1700
Flags: HW
HStem: 0 404<100 318 491 672 768 856 1489 1600> 520 142<554 774> 1260 40G<354 1158>
VStem: 100 572<0 404>
LayerCount: 2
Fore
SplineSet
354 1300 m 5
 1142 1300 l 5
 1476 476 l 6
 1496 426 1518 404 1554 404 c 6
 1600 404 l 5
 1600 0 l 5
 768 0 l 5
 768 404 l 5
 820 404 l 6
 856 404 865 441 848 482 c 6
 832 520 l 5
 507 520 l 5
 498 492 l 6
 485 451 490 404 529 404 c 6
 672 404 l 5
 672 0 l 5
 100 0 l 5
 100 404 l 5
 249 404 l 6
 298 404 325 448 342 498 c 6
 460 834 l 6
 472 868 456 896 419 896 c 6
 354 896 l 5
 354 1300 l 5
774 662 m 5
 678 896 l 5
 631 896 l 5
 554 662 l 5
 774 662 l 5
EndSplineSet
EndChar

StartChar: a
Encoding: 97 97 1
GlifName: a
Width: 1608
Flags: HW
HStem: -28 306<1194 1448> -28 284<341 725> 616 114<599 680> 894 134<603 750>
VStem: 82 542<161 383> 784 580<279 426 596 794> 1468 140<290 480>
LayerCount: 2
Fore
SplineSet
1364 324 m 6x7e
 1364 295 1377 278 1400 278 c 4
 1445 278 1468 324 1468 480 c 5
 1608 480 l 5
 1608 95 1515 -28 1227 -28 c 4xbe
 1050 -28 925 42 876 170 c 5
 856 170 l 5
 773 35 647 -28 460 -28 c 4
 222 -28 82 75 82 250 c 4
 82 411 212 530 652 560 c 4
 752 567 784 616 784 710 c 6
 784 734 l 6
 784 833 741 894 671 894 c 4
 621 894 590 867 590 825 c 4
 590 779 625 750 680 750 c 5
 680 636 l 5
 82 636 l 5
 82 911 263 1028 685 1028 c 4
 1126 1028 1364 890 1364 634 c 6
 1364 324 l 6x7e
784 426 m 5
 712 426 l 6
 659 426 624 390 624 337 c 4
 624 288 654 256 698 256 c 4x7e
 752 256 784 304 784 386 c 6
 784 426 l 5
EndSplineSet
EndChar

StartChar: B
Encoding: 66 66 2
GlifName: B_
Width: 1478
Flags: HW
HStem: 0 312<912 1121> 588 148<1004 1129> 988 312<290 424 1012 1171>
VStem: 76 148<784 928> 1162 242<354 545> 1194 214<812 1061>
LayerCount: 2
Fore
SplineSet
76 784 m 1xf4
 224 784 l 1
 224 918 288 982 424 988 c 1
 336 312 l 1
 56 312 l 1
 56 0 l 1
 912 0 l 2
 1226 0 1404 136 1404 380 c 0xf8
 1404 536 1306 658 1156 690 c 1
 1318 724 1408 820 1408 956 c 0
 1408 1158 1244 1300 1012 1300 c 2
 436 1300 l 2
 204 1300 76 1116 76 784 c 1xf4
574 988 m 1
 1056 988 l 2
 1146 988 1194 948 1194 870 c 0xf4
 1194 782 1136 736 1020 736 c 2
 542 736 l 1
 574 988 l 1
522 588 m 1
 1004 588 l 2
 1104 588 1162 540 1162 456 c 0xf8
 1162 356 1100 312 952 312 c 2
 486 312 l 1
 522 588 l 1
EndSplineSet
EndChar

StartChar: b
Encoding: 98 98 3
GlifName: b
Width: 1386
Flags: HW
HStem: -20 312<561 1021> 718 302<700 1037>
VStem: 1142 175<395 628>
LayerCount: 2
Fore
SplineSet
816 718 m 0
 1025 718 1142 645 1142 512 c 0
 1142 373 1013 292 788 292 c 0
 545 292 419 385 440 548 c 2
 452 640 l 1
 582 694 696 718 816 718 c 0
782 -20 m 0
 1125 -20 1317 174 1317 519 c 0
 1317 829 1161 1020 907 1020 c 0
 739 1020 575 936 472 798 c 1
 538 1300 l 1
 30 1300 l 1
 30 988 l 1
 348 988 l 1
 286 516 l 2
 242 184 431 -20 782 -20 c 0
EndSplineSet
EndChar

StartChar: C
Encoding: 67 67 4
GlifName: C_
Width: 1272
Flags: HW
HStem: 0 160<543 1042> 284 168<616 1042> 684 160<942 1042> 848 168<602 782> 1140 160<531 1042>
VStem: 70 160<456 869> 362 168<537 781> 1042 160<160 284 844 1140>
LayerCount: 2
Fore
SplineSet
1202 1300 m 1
 1202 684 l 1
 782 684 l 1
 782 848 l 1
 754 848 l 2
 616 848 530 777 530 662 c 0
 530 541 625 452 754 452 c 2
 1202 452 l 1
 1202 0 l 1
 774 0 l 2
 357 0 70 270 70 662 c 0
 70 1054 341 1300 774 1300 c 2
 1202 1300 l 1
1042 844 m 1
 1042 1140 l 1
 778 1140 l 2
 442 1140 230 955 230 662 c 0
 230 364 453 160 778 160 c 2
 1042 160 l 1
 1042 284 l 1
 750 284 l 2
 534 284 362 451 362 662 c 0
 362 870 522 1016 750 1016 c 2
 942 1016 l 1
 942 844 l 1
 1042 844 l 1
EndSplineSet
EndChar

StartChar: c
Encoding: 99 99 5
GlifName: c
Width: 1076
Flags: HW
HStem: 0 160<417 846> 284 168<531 846> 494 140<746 846> 548 168<534 620> 840 160<413 846>
VStem: 70 160<333 673> 362 168<456 544> 846 160<160 284 634 840>
LayerCount: 2
Fore
SplineSet
1006 1000 m 5xdf
 1006 494 l 5
 620 494 l 5xef
 620 548 l 5
 592 548 l 6
 554 548 530 530 530 502 c 4
 530 473 556 452 592 452 c 6
 1006 452 l 5
 1006 0 l 5
 612 0 l 6
 291 0 70 204 70 502 c 4
 70 808 279 1000 612 1000 c 6
 1006 1000 l 5xdf
846 634 m 5
 846 840 l 5
 616 840 l 6
 379 840 230 709 230 502 c 4
 230 299 387 160 616 160 c 6
 846 160 l 5
 846 284 l 5
 588 284 l 6
 462 284 362 380 362 502 c 4
 362 628 455 716 588 716 c 6
 746 716 l 5xdf
 746 634 l 5
 846 634 l 5
EndSplineSet
EndChar

StartChar: D
Encoding: 68 68 6
GlifName: D_
Width: 1408
Flags: HW
HStem: 0 100<168 268 288 388 408 508 528 628 648 748 768 868> 10 80<60 136 896 978 1024 1092> 38 24<1164 1190> 120 100<60 136 168 268 288 388 408 508 528 628 648 748 768 868 888 988 1008 1108 1140 1216> 240 100<288 388 408 508 528 628 1008 1108 1128 1228> 256 68<904 972 1264 1332> 276 28<802 832> 360 100<288 388 408 508 528 628 1008 1108 1128 1228 1252 1342> 396 28<922 952> 480 100<288 388 408 508 528 628 1008 1108 1128 1228 1248 1348> 600 100<288 388 408 508 528 628 1008 1108 1128 1228 1248 1348> 720 100<288 388 408 508 528 628 1008 1108 1128 1228 1248 1348> 840 100<288 388 408 508 528 628 1008 1108 1128 1228 1252 1342> 876 28<922 952> 960 100<288 388 408 508 528 628 1008 1108 1128 1228> 976 68<904 972 1264 1332> 996 28<802 832> 1080 100<60 136 168 268 288 388 408 508 528 628 648 748 768 868 888 988 1008 1108 1140 1216> 1200 100<168 268 288 388 408 508 528 628 648 748 768 868> 1210 80<60 136 896 978 1024 1092> 1238 24<1164 1190>
VStem: 60 76<12 88 132 208 1092 1168 1212 1288> 168 100<0 100 120 220 1080 1180 1200 1300> 288 100<0 100 120 220 240 340 360 460 480 580 600 700 720 820 840 940 960 1060 1080 1180 1200 1300> 408 100<0 100 120 220 240 340 360 460 480 580 600 700 720 820 840 940 960 1060 1080 1180 1200 1300> 528 100<0 100 120 220 240 340 360 460 480 580 600 700 720 820 840 940 960 1060 1080 1180 1200 1300> 648 100<0 100 120 220 1080 1180 1200 1300> 768 100<0 100 120 220 1080 1180 1200 1300> 802 30<276 304 996 1024> 888 100<120 220 1080 1180> 896 82<10 90 256 324 976 1044 1210 1290> 922 30<396 424 876 904> 1008 100<120 220 240 340 360 460 480 580 600 700 720 820 840 940 960 1060 1080 1180> 1024 68<16 84 1216 1284> 1128 100<132 208 240 340 360 460 480 580 600 700 720 820 840 940 960 1060 1092 1168> 1164 25<38 62 1238 1262> 1248 100<364 456 480 580 600 700 720 820 844 936> 1264 68<256 324 976 1044>
LayerCount: 2
Fore
SplineSet
802 304 m 1x127047e8
 832 304 l 1
 832 276 l 1
 802 276 l 1
 802 304 l 1x127047e8
802 1024 m 1x1070c7e8
 832 1024 l 1
 832 996 l 1
 802 996 l 1
 802 1024 l 1x1070c7e8
922 424 m 1x10f047e1
 952 424 l 1
 952 396 l 1
 922 396 l 1
 922 424 l 1x10f047e1
922 904 m 1x107447e1
 952 904 l 1
 952 876 l 1
 922 876 l 1
 922 904 l 1x107447e1
60 88 m 1
 136 88 l 1
 136 12 l 1
 60 12 l 1
 60 88 l 1
60 208 m 1
 136 208 l 1
 136 132 l 1
 60 132 l 1
 60 208 l 1
60 1168 m 5
 136 1168 l 5
 136 1092 l 5
 60 1092 l 5
 60 1168 l 5
60 1288 m 5
 136 1288 l 5
 136 1212 l 5
 60 1212 l 5
 60 1288 l 5
904 324 m 1x147047e0
 972 324 l 1
 972 256 l 1
 904 256 l 1
 904 324 l 1x147047e0
904 1044 m 1x107147e0
 972 1044 l 1
 972 976 l 1
 904 976 l 1
 904 1044 l 1x107147e0
1164 62 m 1x307047e010
 1190 62 l 1
 1190 38 l 1
 1164 38 l 1
 1164 62 l 1x307047e010
1140 208 m 1
 1216 208 l 1
 1216 132 l 1
 1140 132 l 1
 1140 208 l 1
1140 1168 m 1
 1216 1168 l 1
 1216 1092 l 1
 1140 1092 l 1
 1140 1168 l 1
1164 1262 m 1x10704fe010
 1190 1262 l 1
 1190 1238 l 1
 1164 1238 l 1
 1164 1262 l 1x10704fe010
1024 84 m 1x107047e040
 1092 84 l 1
 1092 16 l 1
 1024 16 l 1
 1024 84 l 1x107047e040
1008 220 m 1x107047e080
 1108 220 l 1
 1108 120 l 1
 1008 120 l 1
 1008 220 l 1x107047e080
1008 1180 m 1
 1108 1180 l 1
 1108 1080 l 1
 1008 1080 l 1
 1008 1180 l 1
1024 1284 m 1x107047e040
 1092 1284 l 1
 1092 1216 l 1
 1024 1216 l 1
 1024 1284 l 1x107047e040
1248 700 m 1x107047e008
 1348 700 l 1
 1348 600 l 1
 1248 600 l 1
 1248 700 l 1x107047e008
1264 324 m 1x147047e004
 1332 324 l 1
 1332 256 l 1
 1264 256 l 1
 1264 324 l 1x147047e004
1252 456 m 1
 1342 456 l 1
 1342 364 l 1
 1252 364 l 1
 1252 456 l 1
1248 580 m 1x107047e008
 1348 580 l 1
 1348 480 l 1
 1248 480 l 1
 1248 580 l 1x107047e008
1248 820 m 1
 1348 820 l 1
 1348 720 l 1
 1248 720 l 1
 1248 820 l 1
1252 936 m 1
 1342 936 l 1
 1342 844 l 1
 1252 844 l 1
 1252 936 l 1
1264 1044 m 1x107147e004
 1332 1044 l 1
 1332 976 l 1
 1264 976 l 1
 1264 1044 l 1x107147e004
1128 700 m 1x107047e020
 1228 700 l 1
 1228 600 l 1
 1128 600 l 1
 1128 700 l 1x107047e020
1128 340 m 1x187047e020
 1228 340 l 1
 1228 240 l 1
 1128 240 l 1
 1128 340 l 1x187047e020
1128 460 m 1x117047e020
 1228 460 l 1
 1228 360 l 1
 1128 360 l 1
 1128 460 l 1x117047e020
1128 580 m 1
 1228 580 l 1
 1228 480 l 1
 1128 480 l 1
 1128 580 l 1
1128 820 m 1
 1228 820 l 1
 1228 720 l 1
 1128 720 l 1
 1128 820 l 1
1128 940 m 1x107847e020
 1228 940 l 1
 1228 840 l 1
 1128 840 l 1
 1128 940 l 1x107847e020
1128 1060 m 1x107247e020
 1228 1060 l 1
 1228 960 l 1
 1128 960 l 1
 1128 1060 l 1x107247e020
1008 700 m 1x107047e080
 1108 700 l 1
 1108 600 l 1
 1008 600 l 1
 1008 700 l 1x107047e080
1008 340 m 1x187047e080
 1108 340 l 1
 1108 240 l 1
 1008 240 l 1
 1008 340 l 1x187047e080
1008 460 m 1x117047e080
 1108 460 l 1
 1108 360 l 1
 1008 360 l 1
 1008 460 l 1x117047e080
1008 580 m 1
 1108 580 l 1
 1108 480 l 1
 1008 480 l 1
 1008 580 l 1
1008 820 m 1
 1108 820 l 1
 1108 720 l 1
 1008 720 l 1
 1008 820 l 1
1008 940 m 1x107847e080
 1108 940 l 1
 1108 840 l 1
 1008 840 l 1
 1008 940 l 1x107847e080
1008 1060 m 1x107247e080
 1108 1060 l 1
 1108 960 l 1
 1008 960 l 1
 1008 1060 l 1x107247e080
896 90 m 1x507047e2
 978 90 l 1
 978 10 l 1
 896 10 l 1
 896 90 l 1x507047e2
888 220 m 1x107047e4
 988 220 l 1
 988 120 l 1
 888 120 l 1
 888 220 l 1x107047e4
888 1180 m 1
 988 1180 l 1
 988 1080 l 1
 888 1080 l 1
 888 1180 l 1
896 1290 m 1x107057e2
 978 1290 l 1
 978 1210 l 1
 896 1210 l 1
 896 1290 l 1x107057e2
768 100 m 1x907047f0
 868 100 l 1
 868 0 l 1
 768 0 l 1
 768 100 l 1x907047f0
768 220 m 1
 868 220 l 1
 868 120 l 1
 768 120 l 1
 768 220 l 1
768 1180 m 1
 868 1180 l 1
 868 1080 l 1
 768 1080 l 1
 768 1180 l 1
768 1300 m 1x107067f0
 868 1300 l 1
 868 1200 l 1
 768 1200 l 1
 768 1300 l 1x107067f0
648 100 m 1x907047e0
 748 100 l 1
 748 0 l 1
 648 0 l 1
 648 100 l 1x907047e0
648 220 m 1
 748 220 l 1
 748 120 l 1
 648 120 l 1
 648 220 l 1
648 1180 m 1
 748 1180 l 1
 748 1080 l 1
 648 1080 l 1
 648 1180 l 1
648 1300 m 1x107067e0
 748 1300 l 1
 748 1200 l 1
 648 1200 l 1
 648 1300 l 1x107067e0
168 100 m 1x907047e0
 268 100 l 1
 268 0 l 1
 168 0 l 1
 168 100 l 1x907047e0
168 220 m 1
 268 220 l 1
 268 120 l 1
 168 120 l 1
 168 220 l 1
168 1180 m 5
 268 1180 l 5
 268 1080 l 5
 168 1080 l 5
 168 1180 l 5
168 1300 m 5x107067e0
 268 1300 l 5
 268 1200 l 5
 168 1200 l 5
 168 1300 l 5x107067e0
528 700 m 1
 628 700 l 1
 628 600 l 1
 528 600 l 1
 528 700 l 1
528 100 m 1x907047e0
 628 100 l 1
 628 0 l 1
 528 0 l 1
 528 100 l 1x907047e0
528 220 m 1
 628 220 l 1
 628 120 l 1
 528 120 l 1
 528 220 l 1
528 340 m 1x187047e0
 628 340 l 1
 628 240 l 1
 528 240 l 1
 528 340 l 1x187047e0
528 460 m 1x117047e0
 628 460 l 1
 628 360 l 1
 528 360 l 1
 528 460 l 1x117047e0
528 580 m 1
 628 580 l 1
 628 480 l 1
 528 480 l 1
 528 580 l 1
528 820 m 1
 628 820 l 1
 628 720 l 1
 528 720 l 1
 528 820 l 1
528 940 m 1x107847e0
 628 940 l 1
 628 840 l 1
 528 840 l 1
 528 940 l 1x107847e0
528 1060 m 1x107247e0
 628 1060 l 1
 628 960 l 1
 528 960 l 1
 528 1060 l 1x107247e0
528 1180 m 1
 628 1180 l 1
 628 1080 l 1
 528 1080 l 1
 528 1180 l 1
528 1300 m 1x107067e0
 628 1300 l 1
 628 1200 l 1
 528 1200 l 1
 528 1300 l 1x107067e0
408 700 m 1
 508 700 l 1
 508 600 l 1
 408 600 l 1
 408 700 l 1
408 100 m 1x907047e0
 508 100 l 1
 508 0 l 1
 408 0 l 1
 408 100 l 1x907047e0
408 220 m 1
 508 220 l 1
 508 120 l 1
 408 120 l 1
 408 220 l 1
408 340 m 1x187047e0
 508 340 l 1
 508 240 l 1
 408 240 l 1
 408 340 l 1x187047e0
408 460 m 1x117047e0
 508 460 l 1
 508 360 l 1
 408 360 l 1
 408 460 l 1x117047e0
408 580 m 1
 508 580 l 1
 508 480 l 1
 408 480 l 1
 408 580 l 1
408 820 m 1
 508 820 l 1
 508 720 l 1
 408 720 l 1
 408 820 l 1
408 940 m 1x107847e0
 508 940 l 1
 508 840 l 1
 408 840 l 1
 408 940 l 1x107847e0
408 1060 m 1x107247e0
 508 1060 l 1
 508 960 l 1
 408 960 l 1
 408 1060 l 1x107247e0
408 1180 m 1
 508 1180 l 1
 508 1080 l 1
 408 1080 l 1
 408 1180 l 1
408 1300 m 1x107067e0
 508 1300 l 1
 508 1200 l 1
 408 1200 l 1
 408 1300 l 1x107067e0
288 700 m 1
 388 700 l 1
 388 600 l 1
 288 600 l 1
 288 700 l 1
288 100 m 1x907047e0
 388 100 l 1
 388 0 l 1
 288 0 l 1
 288 100 l 1x907047e0
288 220 m 1
 388 220 l 1
 388 120 l 1
 288 120 l 1
 288 220 l 1
288 340 m 1x187047e0
 388 340 l 1
 388 240 l 1
 288 240 l 1
 288 340 l 1x187047e0
288 460 m 1x117047e0
 388 460 l 1
 388 360 l 1
 288 360 l 1
 288 460 l 1x117047e0
288 580 m 1
 388 580 l 1
 388 480 l 1
 288 480 l 1
 288 580 l 1
288 820 m 1
 388 820 l 1
 388 720 l 1
 288 720 l 1
 288 820 l 1
288 940 m 1x107847e0
 388 940 l 1
 388 840 l 1
 288 840 l 1
 288 940 l 1x107847e0
288 1060 m 1x107247e0
 388 1060 l 1
 388 960 l 1
 288 960 l 1
 288 1060 l 1x107247e0
288 1180 m 1
 388 1180 l 1
 388 1080 l 1
 288 1080 l 1
 288 1180 l 1
288 1300 m 1x107067e0
 388 1300 l 1
 388 1200 l 1
 288 1200 l 1
 288 1300 l 1x107067e0
EndSplineSet
EndChar

StartChar: d
Encoding: 100 100 7
GlifName: d
Width: 1408
Flags: HW
HStem: 16 68<316 384 430 512 680 740> 38 24<218 244> 120 100<192 268 300 400 420 520 540 640 660 760 900 1000 1020 1120 1140 1240 1272 1348> 140 60<800 860> 240 100<180 280 300 400 780 880 900 1000 1020 1120> 253 75<73 147 436 504> 276 28<576 606> 360 100<60 160 180 280 300 400 780 880 900 1000 1020 1120> 396 28<456 486> 480 100<60 160 180 280 300 400 780 880 900 1000 1020 1120> 516 28<456 486> 600 100<180 280 300 400 780 880 900 1000 1020 1120> 613 75<73 147 436 504> 636 28<576 606> 720 100<192 268 300 400 420 520 540 640 660 760 780 880 900 1000 1020 1120> 840 100<540 640 660 760 780 880 900 1000 1020 1120> 856 68<316 384 430 512> 878 24<218 244> 960 100<780 880 900 1000 1020 1120> 1080 100<552 628 665 755 790 870 900 1000 1020 1120> 1200 100<552 628 660 760 780 880 900 1000 1020 1120>
VStem: 60 100<253 327 360 460 480 580 613 687> 180 100<132 208 240 340 360 460 480 580 600 700 732 808> 218 25<38 62 878 902> 300 100<120 220 240 340 360 460 480 580 600 700 720 820> 316 68<16 84 856 924> 420 100<120 220 720 820> 430 82<10 90 256 324 616 684 850 930> 456 30<396 424 516 544> 540 100<5 95 120 220 720 820 840 940 1092 1168 1212 1288> 576 30<276 304 636 664> 660 100<120 220 720 820 840 940 1085 1175 1200 1300> 680 60<20 80> 780 100<240 340 360 460 480 580 600 700 720 820 840 940 960 1060 1090 1170 1200 1300> 800 60<140 200> 900 100<5 95 120 220 240 340 360 460 480 580 600 700 720 820 840 940 960 1060 1080 1180 1200 1300> 1020 100<0 100 120 220 240 340 360 460 480 580 600 700 720 820 840 940 960 1060 1080 1180 1200 1300> 1140 100<0 100 120 220> 1260 100<0 100 132 208>
LayerCount: 2
Fore
SplineSet
160 460 m 1x01023c001e
 160 360 l 1
 60 360 l 1
 60 460 l 1
 160 460 l 1x01023c001e
160 580 m 1x00423c001e
 160 480 l 1
 60 480 l 1
 60 580 l 1
 160 580 l 1x00423c001e
552 1168 m 1
 628 1168 l 1
 628 1092 l 1
 552 1092 l 1
 552 1168 l 1
552 1288 m 1
 628 1288 l 1
 628 1212 l 1
 552 1212 l 1
 552 1288 l 1
665 1175 m 1
 755 1175 l 1
 755 1085 l 1
 665 1085 l 1
 665 1175 l 1
660 1300 m 1x00023c011e
 760 1300 l 1
 760 1200 l 1
 660 1200 l 1
 660 1300 l 1x00023c011e
880 1060 m 1x00023c005e
 880 960 l 1
 780 960 l 1
 780 1060 l 1
 880 1060 l 1x00023c005e
870 1170 m 1
 870 1090 l 1
 790 1090 l 1
 790 1170 l 1
 870 1170 l 1
880 1300 m 1
 880 1200 l 1
 780 1200 l 1
 780 1300 l 1
 880 1300 l 1
1000 1060 m 1
 1000 960 l 1
 900 960 l 1
 900 1060 l 1
 1000 1060 l 1
1000 1180 m 1
 1000 1080 l 1
 900 1080 l 1
 900 1180 l 1
 1000 1180 l 1
1000 1300 m 1
 1000 1200 l 1
 900 1200 l 1
 900 1300 l 1
 1000 1300 l 1
1120 1060 m 1
 1120 960 l 1
 1020 960 l 1
 1020 1060 l 1
 1120 1060 l 1
1120 1180 m 1
 1120 1080 l 1
 1020 1080 l 1
 1020 1180 l 1
 1120 1180 l 1
1120 1300 m 1
 1120 1200 l 1
 1020 1200 l 1
 1020 1300 l 1
 1120 1300 l 1
1360 100 m 1
 1360 0 l 1
 1260 0 l 1
 1260 100 l 1
 1360 100 l 1
606 304 m 1x02023c021e
 606 276 l 1
 576 276 l 1
 576 304 l 1
 606 304 l 1x02023c021e
606 664 m 1x00063c021e
 606 636 l 1
 576 636 l 1
 576 664 l 1
 606 664 l 1x00063c021e
486 424 m 1x00823c081e
 486 396 l 1
 456 396 l 1
 456 424 l 1
 486 424 l 1x00823c081e
486 544 m 1x00223c081e
 486 516 l 1
 456 516 l 1
 456 544 l 1
 486 544 l 1x00223c081e
1348 208 m 1
 1348 132 l 1
 1272 132 l 1
 1272 208 l 1
 1348 208 l 1
504 324 m 1
 504 256 l 1
 436 256 l 1
 436 324 l 1
 504 324 l 1
504 684 m 1
 504 616 l 1
 436 616 l 1
 436 684 l 1
 504 684 l 1
244 62 m 1x40023d001e
 244 38 l 1
 218 38 l 1
 218 62 l 1
 244 62 l 1x40023d001e
268 208 m 1
 268 132 l 1
 192 132 l 1
 192 208 l 1
 268 208 l 1
268 808 m 1
 268 732 l 1
 192 732 l 1
 192 808 l 1
 268 808 l 1
244 902 m 1x00027d001e
 244 878 l 1
 218 878 l 1
 218 902 l 1
 244 902 l 1x00027d001e
384 84 m 1x80023c401e
 384 16 l 1
 316 16 l 1
 316 84 l 1
 384 84 l 1x80023c401e
400 220 m 1x20023c801e
 400 120 l 1
 300 120 l 1
 300 220 l 1
 400 220 l 1x20023c801e
400 820 m 1
 400 720 l 1
 300 720 l 1
 300 820 l 1
 400 820 l 1
384 924 m 1x0002bc401e
 384 856 l 1
 316 856 l 1
 316 924 l 1
 384 924 l 1x0002bc401e
147 327 m 1x04023c001e
 147 253 l 1
 73 253 l 1
 73 327 l 1
 147 327 l 1x04023c001e
147 687 m 1x000a3c001e
 147 613 l 1
 73 613 l 1
 73 687 l 1
 147 687 l 1x000a3c001e
280 340 m 1x08023e001e
 280 240 l 1
 180 240 l 1
 180 340 l 1
 280 340 l 1x08023e001e
280 460 m 1x01023e001e
 280 360 l 1
 180 360 l 1
 180 460 l 1
 280 460 l 1x01023e001e
280 580 m 1x00423e001e
 280 480 l 1
 180 480 l 1
 180 580 l 1
 280 580 l 1x00423e001e
280 700 m 1x00123e001e
 280 600 l 1
 180 600 l 1
 180 700 l 1
 280 700 l 1x00123e001e
400 340 m 1x08023c801e
 400 240 l 1
 300 240 l 1
 300 340 l 1
 400 340 l 1x08023c801e
400 460 m 1x01023c801e
 400 360 l 1
 300 360 l 1
 300 460 l 1
 400 460 l 1x01023c801e
400 580 m 1x00423c801e
 400 480 l 1
 300 480 l 1
 300 580 l 1
 400 580 l 1x00423c801e
400 700 m 1x00123c801e
 400 600 l 1
 300 600 l 1
 300 700 l 1
 400 700 l 1x00123c801e
512 90 m 1x00023c101e
 512 10 l 1
 430 10 l 1
 430 90 l 1
 512 90 l 1x00023c101e
520 220 m 1x20023c201e
 520 120 l 1
 420 120 l 1
 420 220 l 1
 520 220 l 1x20023c201e
520 820 m 1
 520 720 l 1
 420 720 l 1
 420 820 l 1
 520 820 l 1
512 930 m 1x00023c101e
 512 850 l 1
 430 850 l 1
 430 930 l 1
 512 930 l 1x00023c101e
635 95 m 1
 635 5 l 1
 545 5 l 1
 545 95 l 1
 635 95 l 1
640 220 m 1x20023c041e
 640 120 l 1
 540 120 l 1
 540 220 l 1
 640 220 l 1x20023c041e
640 820 m 1
 640 720 l 1
 540 720 l 1
 540 820 l 1
 640 820 l 1
640 940 m 1x00033c041e
 640 840 l 1
 540 840 l 1
 540 940 l 1
 640 940 l 1x00033c041e
740 80 m 1x00023c009e
 740 20 l 1
 680 20 l 1
 680 80 l 1
 740 80 l 1x00023c009e
760 220 m 1x20023c011e
 760 120 l 1
 660 120 l 1
 660 220 l 1
 760 220 l 1x20023c011e
760 820 m 1
 760 720 l 1
 660 720 l 1
 660 820 l 1
 760 820 l 1
760 940 m 1x00033c011e
 760 840 l 1
 660 840 l 1
 660 940 l 1
 760 940 l 1x00033c011e
1240 100 m 1
 1240 0 l 1
 1140 0 l 1
 1140 100 l 1
 1240 100 l 1
1240 220 m 1x20023c001e
 1240 120 l 1
 1140 120 l 1
 1140 220 l 1
 1240 220 l 1x20023c001e
860 200 m 1x10023c003e
 860 140 l 1
 800 140 l 1
 800 200 l 1
 860 200 l 1x10023c003e
880 340 m 1x08023c005e
 880 240 l 1
 780 240 l 1
 780 340 l 1
 880 340 l 1x08023c005e
880 460 m 1x01023c005e
 880 360 l 1
 780 360 l 1
 780 460 l 1
 880 460 l 1x01023c005e
880 580 m 1x00423c005e
 880 480 l 1
 780 480 l 1
 780 580 l 1
 880 580 l 1x00423c005e
880 700 m 1x00123c005e
 880 600 l 1
 780 600 l 1
 780 700 l 1
 880 700 l 1x00123c005e
880 820 m 1
 880 720 l 1
 780 720 l 1
 780 820 l 1
 880 820 l 1
880 940 m 1x00033c005e
 880 840 l 1
 780 840 l 1
 780 940 l 1
 880 940 l 1x00033c005e
995 95 m 1
 995 5 l 1
 905 5 l 1
 905 95 l 1
 995 95 l 1
1000 220 m 1x20023c001e
 1000 120 l 1
 900 120 l 1
 900 220 l 1
 1000 220 l 1x20023c001e
1000 340 m 1x08023c001e
 1000 240 l 1
 900 240 l 1
 900 340 l 1
 1000 340 l 1x08023c001e
1000 460 m 1x01023c001e
 1000 360 l 1
 900 360 l 1
 900 460 l 1
 1000 460 l 1x01023c001e
1000 580 m 1x00423c001e
 1000 480 l 1
 900 480 l 1
 900 580 l 1
 1000 580 l 1x00423c001e
1000 700 m 1x00123c001e
 1000 600 l 1
 900 600 l 1
 900 700 l 1
 1000 700 l 1x00123c001e
1000 820 m 1
 1000 720 l 1
 900 720 l 1
 900 820 l 1
 1000 820 l 1
1000 940 m 1x00033c001e
 1000 840 l 1
 900 840 l 1
 900 940 l 1
 1000 940 l 1x00033c001e
1120 100 m 1
 1120 0 l 1
 1020 0 l 1
 1020 100 l 1
 1120 100 l 1
1120 220 m 1x20023c001e
 1120 120 l 1
 1020 120 l 1
 1020 220 l 1
 1120 220 l 1x20023c001e
1120 340 m 1x08023c001e
 1120 240 l 1
 1020 240 l 1
 1020 340 l 1
 1120 340 l 1x08023c001e
1120 460 m 1x01023c001e
 1120 360 l 1
 1020 360 l 1
 1020 460 l 1
 1120 460 l 1x01023c001e
1120 580 m 1x00423c001e
 1120 480 l 1
 1020 480 l 1
 1020 580 l 1
 1120 580 l 1x00423c001e
1120 700 m 1x00123c001e
 1120 600 l 1
 1020 600 l 1
 1020 700 l 1
 1120 700 l 1x00123c001e
1120 820 m 1
 1120 720 l 1
 1020 720 l 1
 1020 820 l 1
 1120 820 l 1
1120 940 m 1x00033c001e
 1120 840 l 1
 1020 840 l 1
 1020 940 l 1
 1120 940 l 1x00033c001e
EndSplineSet
EndChar

StartChar: E
Encoding: 69 69 8
GlifName: E_
Width: 1336
Flags: HW
HStem: 0 24<40 153 558 817 1297 1326> 692 28<514 683> 1276 24<40 153 555 841 1258 1286>
VStem: 234 280<58 692 720 1242> 890 22<302 418> 942 22<1006 1056> 1146 22<502 584 836 849>
LayerCount: 2
Fore
SplineSet
702 24 m 4
 1002 24 1106 206 1146 584 c 5
 1168 584 l 5
 1168 218 1216 49 1326 24 c 5
 1326 0 l 5
 40 0 l 5
 40 24 l 5
 203 24 234 58 234 236 c 6
 234 1064 l 6
 234 1242 203 1276 40 1276 c 5
 40 1300 l 5
 1286 1300 l 5
 1286 1276 l 5
 1196 1252 1160 1125 1160 836 c 5
 1138 836 l 5
 1098 1147 1010 1276 700 1276 c 4
 636 1276 564 1268 514 1256 c 5
 514 720 l 5
 602 720 l 6
 765 720 898 778 942 1056 c 5
 964 1056 l 5
 921 807 912 727 912 524 c 6
 912 302 l 5
 890 302 l 5
 889 574 750 692 602 692 c 6
 514 692 l 5
 514 44 l 5
 568 32 644 24 702 24 c 4
EndSplineSet
EndChar

StartChar: e
Encoding: 101 101 9
GlifName: e
Width: 976
Flags: HW
HStem: -24 220<479 695> 628 24<301 519 763 926> 994 34<404 626>
VStem: 60 240<406 628 652 734> 608 246<689 912> 912 24<404 502>
LayerCount: 2
Fore
SplineSet
300 652 m 5
 442 652 l 6
 554 652 608 704 608 812 c 4
 608 920 551 994 467 994 c 4
 358 994 300 880 300 668 c 4
 300 662 300 657 300 652 c 5
912 504 m 5
 936 502 l 5
 936 192 764 -24 518 -24 c 4
 248 -24 60 192 60 502 c 4
 60 815 251 1028 530 1028 c 4
 721 1028 854 928 854 786 c 4
 854 723 824 679 763 652 c 5
 926 652 l 5
 926 628 l 5
 301 628 l 5
 312 352 432 196 637 196 c 4
 819 196 908 296 912 504 c 5
EndSplineSet
EndChar

StartChar: F
Encoding: 70 70 10
GlifName: F_
Width: 1212
Flags: HW
LayerCount: 2
Fore
SplineSet
66 762 m 1
 224 1270 l 1
 1146 1270 l 1
 1228 1386 l 1
 1300 1386 l 1
 1202 1044 l 1
 570 1044 l 1
 478 722 l 1
 476 722 l 1
 528 672 l 1
 884 672 l 1
 986 822 l 1
 1058 822 l 1
 934 346 l 1
 852 346 l 1
 854 476 l 1
 804 526 l 1
 422 526 l 1
 276 20 l 1
 196 20 l 1
 484 994 l 1
 444 1044 l 1
 302 1044 l 1
 126 762 l 1
 66 762 l 1
80 692 m 1
 196 692 l 1
 372 974 l 1
 450 974 l 1
 162 0 l 1
 212 -50 l 1
 346 -50 l 1
 492 456 l 1
 822 456 l 1
 820 326 l 1
 870 276 l 1
 1004 276 l 1
 1142 802 l 1
 1092 852 l 1
 966 852 l 1
 864 702 l 1
 562 702 l 1
 640 974 l 1
 1272 974 l 1
 1384 1366 l 1
 1334 1416 l 1
 1208 1416 l 1
 1126 1300 l 1
 204 1300 l 1
 30 742 l 1
 80 692 l 1
EndSplineSet
EndChar

StartChar: f
Encoding: 102 102 11
GlifName: f
Width: 830
Flags: HW
LayerCount: 2
Fore
SplineSet
398 1300 m 1
 306 1000 l 1
 104 1000 l 1
 40 724 l 1
 90 674 l 1
 206 674 l 1
 -62 -204 l 1
 -142 -204 l 1
 -140 -90 l 1
 -190 -40 l 1
 -262 -40 l 1
 -370 -400 l 1
 -320 -450 l 1
 64 -450 l 1
 404 674 l 1
 776 674 l 1
 858 950 l 1
 808 1000 l 1
 502 1000 l 1
 518 1054 l 1
 878 1054 l 1
 988 1400 l 1
 938 1450 l 1
 812 1450 l 1
 710 1300 l 1
 398 1300 l 1
72 744 m 1
 124 970 l 1
 326 970 l 1
 418 1270 l 1
 730 1270 l 1
 832 1420 l 1
 902 1420 l 1
 808 1124 l 1
 448 1124 l 1
 416 1020 l 1
 466 970 l 1
 774 970 l 1
 706 744 l 1
 334 744 l 1
 -6 -380 l 1
 -334 -380 l 1
 -242 -70 l 1
 -212 -70 l 1
 -214 -184 l 1
 -164 -234 l 1
 -42 -234 l 1
 242 694 l 1
 202 744 l 1
 72 744 l 1
EndSplineSet
EndChar

StartChar: G
Encoding: 71 71 12
GlifName: G_
Width: 1482
Flags: HW
HStem: -22 164<451 790> 526 160<608 1048> 1158 160<623 1036>
VStem: 60 164<372 756> 1060 186<-168 340>
LayerCount: 2
Fore
SplineSet
1468 496 m 1
 1240 514 l 1
 1246 -168 l 1
 1060 -236 l 1
 1070 340 l 1
 973 70 777 -22 564 -22 c 0
 255 -22 60 178 60 496 c 0
 60 938 430 1318 860 1318 c 0
 1018 1318 1166 1272 1372 1160 c 1
 1290 1008 l 1
 1086 1114 924 1158 754 1158 c 0
 416 1158 224 947 224 582 c 0
 224 302 411 142 630 142 c 0
 839 142 968 238 1062 516 c 1
 584 526 l 1
 608 686 l 1
 1488 658 l 1
 1468 496 l 1
EndSplineSet
EndChar

StartChar: g
Encoding: 103 103 13
GlifName: g
Width: 1270
Flags: HW
HStem: -328 184<475 1163> 858 164<387 601>
VStem: 60 164<438 690> 720 164<423 732> 1082 158<437 728>
LayerCount: 2
Fore
SplineSet
742 246 m 1
 968 260 1082 352 1082 520 c 0
 1082 630 1034 774 946 924 c 1
 1116 1006 l 1
 1194 876 1240 739 1240 636 c 0
 1240 343 978 96 646 74 c 1
 552 -76 512 -134 464 -190 c 1
 568 -160 692 -144 822 -144 c 0
 984 -144 1166 -170 1266 -206 c 1
 1238 -388 l 1
 1054 -344 890 -328 662 -328 c 0
 500 -328 441 -336 96 -400 c 1
 60 -248 l 1
 192 -206 l 1
 333 -130 440 -44 546 76 c 1
 254 104 60 274 60 500 c 0
 60 760 312 1022 564 1022 c 0
 756 1022 884 870 884 642 c 0
 884 510 840 388 742 246 c 1
646 250 m 1
 696 326 720 414 720 524 c 0
 720 740 626 858 454 858 c 0
 306 858 224 770 224 614 c 0
 224 400 378 266 646 250 c 1
EndSplineSet
EndChar

StartChar: H
Encoding: 72 72 14
GlifName: H_
Width: 1520
Flags: HW
HStem: -28 272<322 516> 0 312<1286 1514> 988 312<156 451>
VStem: 20 284<172 424> 604 168<352 835>
LayerCount: 2
Fore
SplineSet
156 1300 m 1xb8
 280 1300 l 2
 653 1300 772 1160 772 717 c 0
 772 224 624 -28 334 -28 c 0xb8
 140 -28 20 85 20 266 c 0
 20 768 1024 615 1074 1032 c 6
 1106 1300 l 5
 1318 1300 l 5
 1246 516 l 6
 1233 370 1287 312 1438 312 c 6
 1534 312 l 5
 1514 0 l 5
 1442 0 l 6x78
 1105 0 969 192 1026 584 c 6
 1052 762 l 5
 868 520 304 546 304 341 c 0
 304 281 347 244 415 244 c 0
 538 244 604 367 604 596 c 0
 604 881 501 988 228 988 c 2
 128 988 l 1
 156 1300 l 1xb8
EndSplineSet
EndChar

StartChar: h
Encoding: 104 104 15
GlifName: h
Width: 1190
Flags: HW
HStem: 0 312<921 1170> 720 296<669 933> 988 312<-44 181>
VStem: 604 566<69 306> 840 80<365 627>
LayerCount: 2
Fore
SplineSet
400 416 m 2xc8
 376 0 l 1
 144 0 l 1
 192 872 l 2
 197 958 170 988 88 988 c 2
 -72 988 l 1
 -44 1300 l 1
 140 1300 l 2xa8
 368 1300 449 1194 432 916 c 2
 421 713 l 1
 540 916 678 1016 847 1016 c 0
 1018 1016 1124 915 1124 760 c 0
 1124 545 920 457 920 365 c 0xc8
 920 330 950 312 998 312 c 2
 1170 312 l 1
 1170 0 l 1
 912 0 l 2
 694 0 604 68 604 176 c 4xd0
 604 346 840 486 840 627 c 0
 840 685 791 720 709 720 c 0
 565 720 411 568 400 416 c 2xc8
EndSplineSet
EndChar

StartChar: I
Encoding: 73 73 16
GlifName: I_
Width: 1140
Flags: HW
HStem: 0 620<30 350 790 1110> 0 280<350 510 630 790> 680 620<30 350 790 1110> 1020 280<350 510 630 790>
VStem: 30 320<280 620 680 1020> 410 320<340 960> 510 120<280 340 960 1020> 790 320<280 620 680 1020>
LayerCount: 2
Fore
SplineSet
30 1300 m 1x2b
 1110 1300 l 1
 1110 680 l 1
 790 680 l 1x2b
 790 1020 l 1
 630 1020 l 1
 630 960 l 1x1b
 730 960 l 1
 730 340 l 1x1d
 630 340 l 1
 630 280 l 1
 790 280 l 1x5b
 790 620 l 1
 1110 620 l 1
 1110 0 l 1
 30 0 l 1
 30 620 l 1
 350 620 l 1x8b
 350 280 l 1
 510 280 l 1
 510 340 l 1x4b
 410 340 l 1
 410 960 l 1x4d
 510 960 l 1
 510 1020 l 1
 350 1020 l 1x5b
 350 680 l 1
 30 680 l 1
 30 1300 l 1x2b
EndSplineSet
EndChar

StartChar: i
Encoding: 105 105 17
GlifName: i
Width: 766
Flags: HW
HStem: 0 600<30 230 408 728> 660 280<30 230 350 728> 1000 300<30 736>
VStem: 30 320<280 600> 230 120<600 660> 408 320<280 600>
LayerCount: 2
Fore
SplineSet
30 1300 m 1xf4
 736 1300 l 1
 736 1000 l 1
 30 1000 l 1
 30 1300 l 1xf4
728 660 m 1
 350 660 l 1xec
 350 280 l 1
 408 280 l 1
 408 600 l 1
 728 600 l 1
 728 0 l 1
 30 0 l 1
 30 600 l 1xf4
 230 600 l 1
 230 660 l 1xec
 30 660 l 1
 30 940 l 1
 728 940 l 1
 728 660 l 1
EndSplineSet
EndChar

StartChar: J
Encoding: 74 74 18
GlifName: J_
Width: 940
Flags: HW
HStem: -6 256<289 673> 988 150<307 570> 1200 100<100 147>
VStem: 40 38<490 544> 838 42<493 749 1008 1042>
LayerCount: 2
Fore
SplineSet
56 1300 m 5
 128 1300 l 5
 177 1179 238 1138 368 1138 c 4
 502 1138 607 1182 756 1300 c 5
 880 1300 l 5
 880 862 l 2
 880 206 784 -6 486 -6 c 0
 219 -6 81 164 40 542 c 1
 78 548 l 1
 116 343 236 250 460 250 c 0
 711 250 832 365 832 603 c 0
 832 744 789 898 728 980 c 1
 838 1008 l 1
 838 1042 l 1
 720 1006 615 988 525 988 c 0
 339 988 193 1066 128 1200 c 5
 100 1200 l 5
 362 722 l 1
 108 642 l 1
 56 1300 l 5
EndSplineSet
EndChar

StartChar: j
Encoding: 106 106 19
GlifName: j
Width: 468
Flags: HW
HStem: 874 126<18 82> 1024 276<80 388>
VStem: 38 392<1067 1261> 382 48<48 221>
LayerCount: 2
Fore
SplineSet
38 1165 m 0xe0
 38 1254 105 1300 234 1300 c 0
 363 1300 430 1254 430 1165 c 0
 430 1074 361 1024 234 1024 c 0
 107 1024 38 1074 38 1165 c 0xe0
18 1000 m 9
 18 874 l 25
 382 954 l 25
 382 924 l 25
 132 864 l 17
 132 646 l 1
 292 381 384 223 384 101 c 0
 384 18 318 -3 -4 -22 c 9
 16 -330 l 17
 308 -298 430 -168 430 110 c 10
 430 1000 l 17xd0
 18 1000 l 9
EndSplineSet
EndChar

StartChar: K
Encoding: 75 75 20
GlifName: K_
Width: 1192
Flags: HW
HStem: -74 50<405 787> 26 50<405 787> 126 50<405 787> 226 50<405 787> 326 50<405 787> 426 50<405 787> 526 50<401 791> 1290 10<512 680>
VStem: 60 10<282 820 870 987> 334 74<712 868 940 1172> 1122 10<280 987>
LayerCount: 2
Fore
SplineSet
1122 938 m 1
 1132 938 l 1
 1132 320 l 1
 1122 280 l 1
 1122 938 l 1
70 940 m 1
 70 282 l 1
 60 322 l 1
 60 940 l 1
 70 940 l 1
334 1172 m 1
 408 1172 l 1
 408 940 l 1
 742 1172 l 1
 848 1172 l 1
 536 958 l 1
 882 712 l 1
 780 712 l 1
 482 920 l 1
 408 868 l 1
 408 712 l 1
 334 712 l 1
 334 1172 l 1
60 870 m 1
 60 640 282 476 596 476 c 0
 910 476 1132 640 1132 870 c 1
 1132 820 l 2
 1132 590 910 426 596 426 c 0
 282 426 60 590 60 820 c 2
 60 870 l 1
60 770 m 1
 60 540 282 376 596 376 c 0
 910 376 1132 540 1132 770 c 1
 1132 720 l 2
 1132 490 910 326 596 326 c 0
 282 326 60 490 60 720 c 2
 60 770 l 1
60 670 m 1
 60 440 282 276 596 276 c 0
 910 276 1132 440 1132 670 c 1
 1132 620 l 2
 1132 390 910 226 596 226 c 0
 282 226 60 390 60 620 c 2
 60 670 l 1
60 570 m 1
 60 340 282 176 596 176 c 0
 910 176 1132 340 1132 570 c 1
 1132 520 l 2
 1132 290 910 126 596 126 c 0
 282 126 60 290 60 520 c 2
 60 570 l 1
60 470 m 1
 60 240 282 76 596 76 c 0
 910 76 1132 240 1132 470 c 1
 1132 420 l 2
 1132 190 910 26 596 26 c 0
 282 26 60 190 60 420 c 2
 60 470 l 1
60 370 m 1
 60 140 282 -24 596 -24 c 0
 910 -24 1132 140 1132 370 c 1
 1132 320 l 2
 1132 90 910 -74 596 -74 c 0
 282 -74 60 90 60 320 c 2
 60 370 l 1
1132 946 m 2
 1132 920 l 2
 1132 690 910 526 596 526 c 0
 282 526 60 690 60 920 c 2
 60 946 l 2
 60 1150 288 1300 596 1300 c 0
 904 1300 1132 1150 1132 946 c 2
70 940 m 0
 70 730 294 576 596 576 c 0
 898 576 1122 730 1122 940 c 0
 1122 1146 902 1290 596 1290 c 0
 290 1290 70 1146 70 940 c 0
EndSplineSet
EndChar

StartChar: k
Encoding: 107 107 21
GlifName: k
Width: 1192
Flags: HW
HStem: -74 50<405 787> 26 50<405 787> 126 50<405 787> 226 50<405 787> 326 50<405 787> 426 50<405 787> 526 50<401 791> 1290 10<512 680>
VStem: 60 10<282 820 870 987> 412 74<712 812 884 1172> 1122 10<280 987>
LayerCount: 2
Fore
SplineSet
1122 938 m 1
 1132 938 l 1
 1132 320 l 1
 1122 280 l 1
 1122 938 l 1
70 940 m 1
 70 282 l 1
 60 322 l 1
 60 940 l 1
 70 940 l 1
60 870 m 1
 60 640 282 476 596 476 c 0
 910 476 1132 640 1132 870 c 1
 1132 820 l 2
 1132 590 910 426 596 426 c 0
 282 426 60 590 60 820 c 2
 60 870 l 1
60 770 m 1
 60 540 282 376 596 376 c 0
 910 376 1132 540 1132 770 c 1
 1132 720 l 2
 1132 490 910 326 596 326 c 0
 282 326 60 490 60 720 c 2
 60 770 l 1
60 670 m 1
 60 440 282 276 596 276 c 0
 910 276 1132 440 1132 670 c 1
 1132 620 l 2
 1132 390 910 226 596 226 c 0
 282 226 60 390 60 620 c 2
 60 670 l 1
60 570 m 1
 60 340 282 176 596 176 c 0
 910 176 1132 340 1132 570 c 1
 1132 520 l 2
 1132 290 910 126 596 126 c 0
 282 126 60 290 60 520 c 2
 60 570 l 1
60 470 m 1
 60 240 282 76 596 76 c 0
 910 76 1132 240 1132 470 c 1
 1132 420 l 2
 1132 190 910 26 596 26 c 0
 282 26 60 190 60 420 c 2
 60 470 l 1
60 370 m 1
 60 140 282 -24 596 -24 c 0
 910 -24 1132 140 1132 370 c 1
 1132 320 l 2
 1132 90 910 -74 596 -74 c 0
 282 -74 60 90 60 320 c 2
 60 370 l 1
1132 946 m 2
 1132 920 l 2
 1132 690 910 526 596 526 c 0
 282 526 60 690 60 920 c 2
 60 946 l 2
 60 1150 288 1300 596 1300 c 0
 904 1300 1132 1150 1132 946 c 2
70 940 m 0
 70 730 294 576 596 576 c 0
 898 576 1122 730 1122 940 c 0
 1122 1146 902 1290 596 1290 c 0
 290 1290 70 1146 70 940 c 0
412 1172 m 1
 486 1172 l 1
 486 884 l 1
 706 1066 l 1
 808 1066 l 1
 606 904 l 1
 840 712 l 1
 738 712 l 1
 552 868 l 1
 486 812 l 1
 486 712 l 1
 412 712 l 1
 412 1172 l 1
EndSplineSet
EndChar

StartChar: L
Encoding: 76 76 22
GlifName: L_
Width: 970
Flags: HW
HStem: -232 76<860 1004> 194 100<414 573> 658 58<300 539> 1246 72<246 485>
VStem: 56 54<876 1103> 604 124<778 1126> 1052 36<-85 -53>
LayerCount: 2
Fore
SplineSet
538 294 m 0
 786 294 744 -156 938 -156 c 0
 986 -156 1021 -128 1052 -46 c 1
 1088 -58 l 1
 1049 -179 986 -232 888 -232 c 0
 612 -232 694 194 484 194 c 0
 410 194 334 142 194 -16 c 1
 60 126 l 1
 480 517 604 709 604 935 c 0
 604 1147 495 1246 358 1246 c 0
 208 1246 110 1126 110 983 c 0
 110 839 240 716 445 716 c 0
 690 716 831 845 886 1168 c 5
 998 1148 l 1
 919 797 753 658 488 658 c 0
 228 658 56 798 56 987 c 0
 56 1162 200 1318 402 1318 c 0
 610 1318 728 1151 728 926 c 0
 728 697 606 508 190 94 c 1
 214 70 l 1
 382 244 456 294 538 294 c 0
EndSplineSet
EndChar

StartChar: l
Encoding: 108 108 23
GlifName: l
Width: 648
Flags: HW
HStem: -18 68<252 436> 1232 66<327 437>
VStem: 466 122<864 1215>
LayerCount: 2
Fore
SplineSet
178 437 m 0
 178 862 270 1232 377 1232 c 0
 435 1232 466 1177 466 1073 c 4
 466 849 341 597 -146 108 c 1
 -118 74 l 1
 416 546 588 836 588 1064 c 4
 588 1204 516 1298 408 1298 c 0
 219 1298 62 914 62 455 c 0
 62 138 141 -18 302 -18 c 0
 398 -18 498 36 622 152 c 1
 590 192 l 1
 482 92 395 50 329 50 c 0
 227 50 178 176 178 437 c 0
EndSplineSet
EndChar

StartChar: M
Encoding: 77 77 24
GlifName: M_
Width: 1500
Flags: HW
HStem: 0 42G<40 468 544 968 1046 1460> 1260 40G<40 552 1032 1460>
VStem: 40 428<0 496> 544 424<0 479> 1046 414<0 553>
LayerCount: 2
Fore
SplineSet
1068 1300 m 1
 1460 1300 l 1
 1460 0 l 1
 1046 0 l 1
 1046 431 982 778 850 1060 c 1
 1068 1300 l 1
236 988 m 1
 188 938 l 1
 417 686 468 437 468 0 c 1
 40 0 l 1
 40 1300 l 1
 368 1300 l 2
 737 1300 968 799 968 0 c 1
 544 0 l 1
 544 390 490 732 236 988 c 1
EndSplineSet
EndChar

StartChar: m
Encoding: 109 109 25
GlifName: m
Width: 1392
Flags: HW
HStem: 0 42G<40 432 500 892 960 1352>
VStem: 40 392<0 329> 500 392<0 341> 960 392<0 369>
CounterMasks: 1 70
LayerCount: 2
Fore
SplineSet
500 0 m 1
 500 350 391 606 198 776 c 1
 156 734 l 1
 334 552 432 302 432 0 c 1
 40 0 l 1
 40 1000 l 1
 252 1000 l 2
 392 1000 515 927 618 789 c 1
 618 1000 l 1
 792 1000 l 2
 1176 1000 1352 615 1352 0 c 1
 960 0 l 1
 960 350 872 606 718 776 c 1
 676 734 l 1
 815 552 892 302 892 0 c 1
 500 0 l 1
EndSplineSet
EndChar

StartChar: N
Encoding: 78 78 26
GlifName: N_
Width: 1668
Flags: HW
HStem: 0 42G<60 1094 1142 1588> 1276 24G<283 630 672 1608>
VStem: 250 100<579 682> 1324 100<625 712>
LayerCount: 2
Fore
SplineSet
60 710 m 1
 60 1134 159 1316 406 1316 c 0
 853 1316 763 626 1324 625 c 1
 1324 712 l 1
 921 718 925 1168 672 1300 c 1
 1608 1300 l 1
 1608 934 1566 764 1424 719 c 1
 1424 621 l 1
 1474 620 1529 620 1588 620 c 1
 1588 0 l 1
 1576 0 l 2
 707 0 866 583 350 682 c 1
 350 586 l 1
 668 543 685 160 1094 0 c 1
 60 0 l 1
 60 392 109 557 250 586 c 1
 250 699 l 1
 201 706 147 710 86 710 c 2
 60 710 l 1
EndSplineSet
EndChar

StartChar: n
Encoding: 110 110 27
GlifName: n
Width: 1630
Flags: HW
HStem: 0 128<530 639> 0 106<1453 1570> 442 572<325 586> 648 368<981 1383>
VStem: 60 692<499 756> 1026 544<497 779>
LayerCount: 2
Fore
SplineSet
592 442 m 1x6c
 60 442 l 1
 67 828 186 1014 430 1014 c 0
 629 1014 752 896 752 704 c 0
 752 572 700 438 530 128 c 1
 624 128 l 1xac
 946 870 1054 1016 1288 1016 c 0
 1478 1016 1570 922 1570 724 c 0
 1570 514 1450 292 1450 178 c 0
 1450 125 1474 106 1570 106 c 1
 1570 0 l 1
 822 0 l 1
 822 248 1026 530 1026 620 c 0
 1026 638 1020 648 1000 648 c 0x5c
 962 648 936 610 680 0 c 1
 60 0 l 1
 60 460 434 172 592 442 c 1x6c
EndSplineSet
EndChar

StartChar: O
Encoding: 79 79 28
GlifName: O_
Width: 1196
Flags: HW
HStem: -20 426<427 838> 1104 218<288 744>
VStem: 60 112<396 931> 1040 96<369 801>
LayerCount: 2
Fore
SplineSet
654 1322 m 4
 833 1322 960 1215 960 1063 c 4
 960 940 877 852 762 852 c 4
 569 852 551 1104 358 1104 c 4
 241 1104 172 1010 172 852 c 4
 172 584 360 406 643 406 c 4
 886 406 1040 538 1040 749 c 4
 1040 833 1014 911 960 986 c 5
 978 998 l 5
 1082 877 1136 722 1136 542 c 4
 1136 195 936 -20 615 -20 c 4
 279 -20 60 216 60 576 c 4
 60 978 333 1322 654 1322 c 4
EndSplineSet
EndChar

StartChar: o
Encoding: 111 111 29
GlifName: o
Width: 906
Flags: HW
HStem: -20 326<347 619> 680 96<831 1007> 866 154<230 575>
VStem: 60 112<311 685> 760 24<832 849> 802 40<479 683>
LayerCount: 2
Fore
SplineSet
504 1020 m 0
 646 1020 740 931 740 797 c 0
 740 682 670 590 582 590 c 0
 429 590 443 866 290 866 c 0
 198 866 172 798 172 677 c 0
 172 455 312 306 520 306 c 0
 697 306 802 414 802 595 c 0
 802 666 786 760 760 844 c 1
 784 852 l 5
 809 801 856 776 929 776 c 0
 999 776 1059 808 1118 876 c 1
 1134 864 l 1
 1013 711 970 680 882 680 c 0
 858 680 840 681 830 684 c 1
 839 602 842 562 842 515 c 0
 842 190 688 -20 449 -20 c 0
 220 -20 60 172 60 449 c 0
 60 760 262 1020 504 1020 c 0
EndSplineSet
EndChar

StartChar: P
Encoding: 80 80 30
GlifName: P_
Width: 1220
Flags: HMW
LayerCount: 2
Fore
SplineSet
942 1120 m 1
 813 1023 756 929 714 736 c 6
 636 376 l 6
 587 151 482 40 318 40 c 0
 147 40 24 161 24 329 c 0
 24 526 192 686 397 686 c 0
 499 686 570 647 570 591 c 0
 570 546 523 512 459 512 c 0
 336 512 244 634 244 797 c 0
 244 1056 482 1252 799 1252 c 0
 1075 1252 1260 1107 1260 892 c 0
 1260 704 1120 540 959 540 c 0
 911 540 872 554 834 586 c 1
 828 580 l 1
 886 523 939 498 1004 498 c 0
 1164 498 1276 642 1276 845 c 0
 1276 1115 1064 1308 767 1308 c 0
 461 1308 232 1098 232 818 c 0
 232 635 329 502 461 502 c 0
 535 502 584 543 584 605 c 0
 584 685 515 736 406 736 c 0
 193 736 16 551 16 328 c 0
 16 136 153 -4 341 -4 c 0
 523 -4 650 127 698 364 c 6
 774 740 l 6
 815 942 859 1036 948 1114 c 1
 942 1120 l 1
EndSplineSet
EndChar

StartChar: p
Encoding: 112 112 31
GlifName: p
Width: 1028
Flags: HW
LayerCount: 2
Fore
SplineSet
350 1112 m 1
 258 648 108 314 -88 146 c 1
 -80 138 l 1
 68 266 182 462 282 762 c 1
 78 -400 l 1
 144 -400 l 1
 384 1112 l 1
 350 1112 l 1
390 22 m 1
 358 10 318 2 300 2 c 0
 288 2 280 4 280 10 c 0
 280 20 310 28 344 28 c 0
 360 28 370 26 390 22 c 1
366 46 m 0
 316 46 276 30 276 12 c 0
 276 2 288 -4 308 -4 c 0
 328 -4 360 2 410 16 c 1
 472 -8 526 -18 582 -18 c 0
 700 -18 810 28 948 138 c 1
 940 146 l 1
 832 66 718 30 584 30 c 0
 556 30 530 32 466 38 c 1
 734 156 950 466 950 738 c 0
 950 898 876 1006 766 1006 c 0
 586 1006 422 714 196 0 c 1
 206 -4 l 1
 428 686 580 964 732 964 c 0
 822 964 880 868 880 722 c 0
 880 452 684 150 438 40 c 1
 406 44 388 46 366 46 c 0
EndSplineSet
EndChar

StartChar: Q
Encoding: 81 81 32
GlifName: Q_
Width: 1428
Flags: HW
LayerCount: 2
Fore
SplineSet
100 590 m 0
 100 979 422 1322 786 1322 c 0
 1095 1322 1324 1079 1324 750 c 0
 1324 361 1002 18 638 18 c 0
 329 18 100 261 100 590 c 0
578 1148 m 0
 337 1148 168 1001 168 792 c 0
 168 491 505 192 846 192 c 0
 1087 192 1256 339 1256 548 c 0
 1256 849 919 1148 578 1148 c 0
225 -180 m 1
 366 -101 445 -76 548 -76 c 0
 756 -76 830 -188 1038 -188 c 0
 1200 -188 1300 -116 1330 16 c 1
 1340 16 l 1
 1281 -285 1172 -420 986 -420 c 0
 770 -420 677 -196 420 -196 c 0
 322 -196 209 -232 88 -300 c 1
 86 -294 l 1
 506 86 l 1
 526 58 l 1
 225 -180 l 1
EndSplineSet
EndChar

StartChar: q
Encoding: 113 113 33
GlifName: q
Width: 1196
Flags: HW
LayerCount: 2
Fore
SplineSet
1056 -360 m 1
 1182 -392 l 1
 1182 -400 l 1
 600 -400 l 1
 600 -392 l 1
 840 -360 l 1
 840 190 l 1
 736 56 592 -22 448 -22 c 0
 232 -22 80 154 80 406 c 0
 80 739 345 1022 657 1022 c 0
 856 1022 824 908 1056 1000 c 1
 1056 -360 l 1
840 214 m 1
 840 576 l 2
 840 776 705 908 500 908 c 0
 298 908 168 781 168 583 c 0
 168 338 375 126 615 126 c 0
 708 126 791 159 840 214 c 1
EndSplineSet
EndChar

StartChar: R
Encoding: 82 82 34
GlifName: R_
Width: 1014
Flags: HW
LayerCount: 2
Fore
SplineSet
692 662 m 5
 692 1014 l 5
 626 1080 l 5
 80 1080 l 5
 80 1300 l 5
 746 1300 l 5
 936 1114 l 5
 936 830 l 5
 766 662 l 5
 692 662 l 5
80 1020 m 5
 324 1020 l 5
 324 0 l 5
 80 0 l 5
 80 1020 l 5
384 602 m 5
 766 602 l 5
 994 72 l 5
 994 0 l 5
 774 0 l 5
 604 382 l 5
 384 382 l 5
 384 602 l 5
EndSplineSet
EndChar

StartChar: r
Encoding: 114 114 35
GlifName: r
Width: 704
Flags: HW
LayerCount: 2
Fore
SplineSet
704 780 m 1
 384 780 l 1
 384 860 l 1
 572 1000 l 1
 644 1000 l 1
 704 780 l 1
80 1000 m 1
 324 1000 l 1
 324 0 l 1
 80 0 l 1
 80 1000 l 1
EndSplineSet
EndChar

StartChar: S
Encoding: 83 83 36
GlifName: S_
Width: 1126
Flags: HW
LayerCount: 2
Fore
SplineSet
1012 1300 m 9
 958 804 l 17
 852 1064 644 1266 488 1266 c 0
 430 1266 406 1240 406 1187 c 0
 406 910 1056 766 1056 369 c 0
 1056 134 827 -24 418 -24 c 0
 306 -24 162 -14 50 0 c 13
 190 508 l 17
 290 254 511 58 687 58 c 0
 748 58 776 80 776 128 c 0
 776 370 90 588 90 970 c 0
 90 1188 312 1320 683 1320 c 0
 765 1320 866 1314 1012 1300 c 9
EndSplineSet
EndChar

StartChar: s
Encoding: 115 115 37
GlifName: s
Width: 934
Flags: HW
LayerCount: 2
Fore
SplineSet
-108 0 m 1
 134 187 213 310 650 1102 c 1
 694 1102 l 1
 362 522 209 231 114 0 c 1
 -108 0 l 1
622 984 m 1
 465 984 386 949 386 875 c 0
 386 680 864 656 864 273 c 0
 864 87 732 -24 511 -24 c 0
 458 -24 357 -13 282 0 c 1
 382 268 l 1
 445 164 583 78 688 78 c 0
 738 78 766 95 766 124 c 0
 766 269 156 411 156 746 c 0
 156 923 348 1020 630 1020 c 1
 622 984 l 1
EndSplineSet
EndChar

StartChar: T
Encoding: 84 84 38
GlifName: T_
Width: 1288
Flags: HW
LayerCount: 2
Fore
SplineSet
526 930 m 1
 520 942 l 1
 331 827 226 651 226 448 c 0
 226 184 444 -36 758 -36 c 0
 1052 -36 1238 172 1238 502 c 0
 1238 593 1223 654 1182 732 c 1
 1166 724 l 1
 1194 666 1206 618 1206 563 c 0
 1206 398 1098 308 901 308 c 0
 632 308 446 475 446 717 c 0
 446 805 471 871 526 930 c 1
800 830 m 1
 633 790 532 716 532 633 c 0
 532 474 824 443 824 360 c 0
 824 332 812 315 784 304 c 1
 804 304 l 1
 975 358 1076 439 1076 523 c 0
 1076 686 784 705 784 785 c 0
 784 807 791 818 816 830 c 1
 800 830 l 1
282 556 m 1
 286 566 l 1
 177 631 122 707 122 793 c 0
 122 896 200 948 355 948 c 0
 567 948 691 814 903 814 c 0
 1146 814 1288 933 1288 1136 c 0
 1288 1256 1241 1328 1163 1328 c 0
 1131 1328 1098 1318 1046 1292 c 1
 1054 1278 l 1
 1091 1298 1130 1310 1159 1310 c 0
 1204 1310 1230 1286 1230 1245 c 0
 1230 1202 1182 1176 1100 1176 c 0
 857 1176 709 1316 466 1316 c 0
 207 1316 50 1163 50 912 c 0
 50 738 126 622 282 556 c 1
EndSplineSet
EndChar

StartChar: t
Encoding: 116 116 39
GlifName: t
Width: 704
Flags: HW
LayerCount: 2
Fore
SplineSet
40 894 m 1
 40 882 l 1
 120 882 l 1
 120 270 l 2
 120 206 94 176 40 176 c 1
 40 166 l 1
 150 113 234 53 372 -70 c 5
 442 24 535 115 664 220 c 1
 664 238 l 1
 581 182 496 202 496 278 c 2
 496 882 l 1
 664 882 l 1
 664 1000 l 1
 452 1000 l 1
 482 1111 502 1215 524 1348 c 1
 512 1352 l 1
 405 1126 267 992 40 894 c 1
EndSplineSet
EndChar

StartChar: U
Encoding: 85 85 40
GlifName: U_
Width: 1328
Flags: HW
LayerCount: 2
Fore
SplineSet
1052 1078 m 2
 1024 1106 l 2
 1200 1280 l 1
 1228 1252 l 1
 1052 1078 l 2
1044 1078 m 2
 868 1252 l 1
 896 1280 l 1
 1072 1106 l 2
 1044 1078 l 2
284 1078 m 2
 256 1106 l 2
 432 1280 l 1
 460 1252 l 1
 284 1078 l 2
276 1078 m 2
 100 1252 l 1
 128 1280 l 1
 304 1106 l 2
 276 1078 l 2
664 190 m 0
 886 190 1028 346 1028 590 c 2
 1028 1120 l 1
 1068 1120 l 1
 1068 590 l 2
 1068 324 909 150 664 150 c 0
 419 150 260 322 260 590 c 2
 260 1120 l 1
 300 1120 l 1
 300 590 l 2
 300 344 441 190 664 190 c 0
664 360 m 0
 784 360 848 440 848 590 c 2
 848 1300 l 1
 1248 1300 l 1
 1248 590 l 2
 1248 230 1007 -20 664 -20 c 0
 318 -20 80 230 80 590 c 2
 80 1300 l 1
 480 1300 l 1
 480 590 l 2
 480 438 543 360 664 360 c 0
664 20 m 0
 985 20 1208 252 1208 590 c 2
 1208 1262 l 1
 888 1262 l 1
 888 590 l 2
 888 418 807 320 664 320 c 0
 520 320 440 416 440 590 c 2
 440 1262 l 1
 120 1262 l 1
 120 590 l 2
 120 252 341 20 664 20 c 0
EndSplineSet
EndChar

StartChar: u
Encoding: 117 117 41
GlifName: u
Width: 1188
Flags: HW
LayerCount: 2
Fore
SplineSet
904 778 m 1
 728 952 l 1
 756 980 l 1
 932 806 l 1
 904 778 l 1
912 778 m 1
 884 806 l 1
 1060 980 l 1
 1088 952 l 1
 912 778 l 1
1068 160 m 1
 1068 962 l 1
 748 962 l 1
 748 160 l 1
 708 160 l 1
 708 1000 l 1
 1108 1000 l 1
 1108 160 l 1
 1068 160 l 1
888 6 m 1
 888 820 l 1
 928 820 l 1
 928 6 l 1
 888 6 l 1
908 18 m 5
 1076 184 l 5
 1108 160 l 5
 908 -38 l 5
 708 160 l 5
 740 184 l 5
 908 18 l 5
284 778 m 1
 256 806 l 1
 432 980 l 1
 460 952 l 1
 284 778 l 1
276 778 m 1
 100 952 l 1
 128 980 l 1
 304 806 l 1
 276 778 l 1
499 190 m 0
 625 190 708 309 708 490 c 1
 726 490 l 1
 726 285 634 150 493 150 c 0
 351 150 260 260 260 430 c 2
 260 820 l 1
 300 820 l 1
 300 430 l 2
 300 281 376 190 499 190 c 0
736 490 m 1
 736 186 609 -20 421 -20 c 0
 222 -20 80 142 80 370 c 2
 80 1000 l 1
 480 1000 l 1
 480 490 l 2
 480 404 519 360 593 360 c 0
 668 360 708 405 708 490 c 1
 728 490 l 1
 728 382 679 320 593 320 c 0
 495 320 440 381 440 490 c 2
 440 962 l 1
 120 962 l 1
 120 370 l 2
 120 165 245 20 421 20 c 0
 593 20 708 208 708 490 c 1
 736 490 l 1
EndSplineSet
EndChar

StartChar: V
Encoding: 86 86 43
GlifName: V_
Width: 1372
Flags: HW
LayerCount: 2
Fore
SplineSet
1212 1170 m 0
 1240 1170 1262 1192 1262 1220 c 0
 1262 1248 1240 1270 1212 1270 c 0
 1184 1270 1162 1248 1162 1220 c 0
 1162 1192 1184 1170 1212 1170 c 0
686 30 m 0
 714 30 736 52 736 80 c 0
 736 108 714 130 686 130 c 0
 658 130 636 108 636 80 c 0
 636 52 658 30 686 30 c 0
160 1170 m 0
 188 1170 210 1192 210 1220 c 0
 210 1248 188 1270 160 1270 c 0
 132 1270 110 1248 110 1220 c 0
 110 1192 132 1170 160 1170 c 0
598 220 m 0
 626 220 648 242 648 270 c 0
 648 298 626 320 598 320 c 0
 570 320 548 298 548 270 c 0
 548 242 570 220 598 220 c 0
512 410 m 0
 540 410 562 432 562 460 c 0
 562 488 540 510 512 510 c 0
 484 510 462 488 462 460 c 0
 462 432 484 410 512 410 c 0
422 600 m 0
 450 600 472 622 472 650 c 0
 472 678 450 700 422 700 c 0
 394 700 372 678 372 650 c 0
 372 622 394 600 422 600 c 0
336 790 m 0
 364 790 386 812 386 840 c 0
 386 868 364 890 336 890 c 0
 308 890 286 868 286 840 c 0
 286 812 308 790 336 790 c 0
248 980 m 0
 276 980 298 1002 298 1030 c 0
 298 1058 276 1080 248 1080 c 0
 220 1080 198 1058 198 1030 c 0
 198 1002 220 980 248 980 c 0
774 220 m 0
 802 220 824 242 824 270 c 0
 824 298 802 320 774 320 c 0
 746 320 724 298 724 270 c 0
 724 242 746 220 774 220 c 0
860 410 m 0
 888 410 910 432 910 460 c 0
 910 488 888 510 860 510 c 0
 832 510 810 488 810 460 c 0
 810 432 832 410 860 410 c 0
948 600 m 0
 976 600 998 622 998 650 c 0
 998 678 976 700 948 700 c 0
 920 700 898 678 898 650 c 0
 898 622 920 600 948 600 c 0
1036 790 m 0
 1064 790 1086 812 1086 840 c 0
 1086 868 1064 890 1036 890 c 0
 1008 890 986 868 986 840 c 0
 986 812 1008 790 1036 790 c 0
1124 980 m 0
 1152 980 1174 1002 1174 1030 c 0
 1174 1058 1152 1080 1124 1080 c 0
 1096 1080 1074 1058 1074 1030 c 0
 1074 1002 1096 980 1124 980 c 0
1212 1320 m 0
 1268 1320 1312 1276 1312 1220 c 0
 1312 1206 1308 1192 1302 1178 c 2
 776 38 l 2
 772 30 748 -20 686 -20 c 0
 646 -20 612 4 596 38 c 2
 70 1178 l 2
 64 1192 60 1206 60 1220 c 0
 60 1276 104 1320 160 1320 c 0
 200 1320 234 1296 250 1262 c 2
 686 318 l 1
 1122 1262 l 2
 1126 1270 1150 1320 1212 1320 c 0
EndSplineSet
EndChar

StartChar: v
Encoding: 118 118 44
GlifName: v
Width: 1132
Flags: HW
LayerCount: 2
Fore
SplineSet
952 870 m 0
 980 870 1002 892 1002 920 c 0
 1002 948 980 970 952 970 c 0
 924 970 902 948 902 920 c 0
 902 892 924 870 952 870 c 0
566 30 m 0
 594 30 616 52 616 80 c 0
 616 108 594 130 566 130 c 0
 538 130 516 108 516 80 c 0
 516 52 538 30 566 30 c 0
180 870 m 0
 208 870 230 892 230 920 c 0
 230 948 208 970 180 970 c 0
 152 970 130 948 130 920 c 0
 130 892 152 870 180 870 c 0
470 240 m 0
 498 240 520 262 520 290 c 0
 520 318 498 340 470 340 c 0
 442 340 420 318 420 290 c 0
 420 262 442 240 470 240 c 0
372 450 m 0
 400 450 422 472 422 500 c 0
 422 528 400 550 372 550 c 0
 344 550 322 528 322 500 c 0
 322 472 344 450 372 450 c 0
276 660 m 0
 304 660 326 682 326 710 c 0
 326 738 304 760 276 760 c 0
 248 760 226 738 226 710 c 0
 226 682 248 660 276 660 c 0
662 240 m 0
 690 240 712 262 712 290 c 0
 712 318 690 340 662 340 c 0
 634 340 612 318 612 290 c 0
 612 262 634 240 662 240 c 0
760 450 m 0
 788 450 810 472 810 500 c 0
 810 528 788 550 760 550 c 0
 732 550 710 528 710 500 c 0
 710 472 732 450 760 450 c 0
856 660 m 0
 884 660 906 682 906 710 c 0
 906 738 884 760 856 760 c 0
 828 760 806 738 806 710 c 0
 806 682 828 660 856 660 c 0
952 1020 m 0
 1008 1020 1052 976 1052 920 c 0
 1052 906 1048 892 1042 878 c 2
 656 38 l 2
 640 4 606 -20 566 -20 c 0
 526 -20 492 4 476 38 c 2
 90 878 l 2
 84 892 80 906 80 920 c 0
 80 976 124 1020 180 1020 c 0
 220 1020 254 996 270 962 c 2
 566 320 l 1
 862 962 l 2
 878 996 912 1020 952 1020 c 0
EndSplineSet
EndChar

StartChar: W
Encoding: 87 87 45
GlifName: W_
Width: 1912
Flags: HW
LayerCount: 2
Fore
SplineSet
964 1360 m 5
 952 1360 l 5
 566 412 l 5
 224 1300 l 5
 20 1300 l 5
 556 -60 l 5
 568 -60 l 5
 958 903 l 5
 1336 -60 l 5
 1348 -60 l 5
 1892 1300 l 5
 1692 1300 l 5
 1338 412 l 5
 964 1360 l 5
EndSplineSet
EndChar

StartChar: w
Encoding: 119 119 46
GlifName: w
Width: 1568
Flags: HW
LayerCount: 2
Fore
SplineSet
792 1040 m 1
 780 1040 l 1
 482 372 l 1
 224 1000 l 1
 20 1000 l 1
 472 -60 l 1
 484 -60 l 1
 786 623 l 5
 1076 -60 l 1
 1088 -60 l 1
 1548 1000 l 1
 1348 1000 l 1
 1078 372 l 1
 792 1040 l 1
EndSplineSet
EndChar

StartChar: X
Encoding: 88 88 47
GlifName: X_
Width: 1356
Flags: HW
LayerCount: 2
Fore
SplineSet
28 0 m 1
 708 0 l 1
 468 390 l 1
 535 461 l 1
 1288 -20 l 1
 1288 540 l 1
 866 810 l 1
 1328 1300 l 1
 648 1300 l 1
 890 908 l 1
 824 838 l 1
 68 1320 l 1
 68 760 l 1
 492 490 l 1
 28 0 l 1
EndSplineSet
EndChar

StartChar: x
Encoding: 120 120 48
GlifName: x
Width: 1096
Flags: HW
LayerCount: 2
Fore
SplineSet
678 652 m 1
 68 1020 l 1
 68 560 l 1
 386 368 l 1
 28 0 l 1
 568 0 l 1
 384 302 l 1
 425 344 l 1
 1028 -20 l 1
 1028 440 l 1
 714 630 l 1
 1068 1000 l 1
 528 1000 l 1
 720 696 l 1
 678 652 l 1
EndSplineSet
EndChar

StartChar: Y
Encoding: 89 89 49
GlifName: Y_
Width: 992
Flags: HW
LayerCount: 2
Fore
SplineSet
10 1300 m 1
 494 1300 l 1
 494 1216 l 1
 378 1216 l 1
 558 576 l 5
 762 1216 l 1
 638 1216 l 1
 638 1300 l 1
 982 1300 l 1
 982 1216 l 1
 858 1216 l 1
 602 428 l 1
 602 84 l 1
 718 84 l 1
 718 0 l 1
 234 0 l 1
 234 84 l 1
 350 84 l 1
 350 418 l 1
 112 1216 l 1
 10 1216 l 1
 10 1300 l 1
EndSplineSet
EndChar

StartChar: y
Encoding: 121 121 50
GlifName: y
Width: 912
Flags: HW
LayerCount: 2
Fore
SplineSet
10 1000 m 1
 494 1000 l 1
 494 916 l 1
 378 916 l 1
 520 318 l 1
 682 916 l 1
 558 916 l 1
 558 1000 l 1
 902 1000 l 1
 902 916 l 1
 778 916 l 1
 404 -400 l 1
 158 -400 l 5
 158 -156 l 5
 392 -156 l 1
 410 -86 l 1
 112 916 l 1
 10 916 l 1
 10 1000 l 1
EndSplineSet
EndChar

StartChar: Z
Encoding: 90 90 51
GlifName: Z_
Width: 1388
Flags: HW
LayerCount: 2
Fore
SplineSet
60 1300 m 1
 600 1300 l 1
 300 824 l 1
 380 824 l 1
 680 1300 l 1
 1348 1300 l 1
 1348 1244 l 1
 578 80 l 1
 650 80 l 1
 970 556 l 1
 1328 556 l 1
 1328 0 l 1
 768 0 l 1
 1088 476 l 1
 1008 476 l 1
 688 0 l 1
 40 0 l 1
 40 56 l 1
 814 1220 l 1
 736 1220 l 1
 422 744 l 1
 60 744 l 1
 60 1300 l 1
EndSplineSet
EndChar

StartChar: z
Encoding: 122 122 52
GlifName: z
Width: 1252
Flags: HW
LayerCount: 2
Fore
SplineSet
814 500 m 1
 1212 944 l 1
 1212 1000 l 1
 584 1000 l 1
 260 624 l 1
 188 624 l 1
 504 1000 l 1
 64 1000 l 1
 64 544 l 1
 302 544 l 1
 640 920 l 1
 718 920 l 1
 40 156 l 1
 40 100 l 1
 438 100 l 1
 40 -344 l 1
 40 -400 l 1
 668 -400 l 1
 992 -24 l 1
 1064 -24 l 1
 748 -400 l 1
 1188 -400 l 1
 1188 56 l 1
 950 56 l 1
 612 -320 l 1
 534 -320 l 1
 1212 444 l 1
 1212 500 l 1
 814 500 l 1
552 180 m 1
 476 180 l 1
 701 420 l 1
 776 420 l 1
 552 180 l 1
EndSplineSet
EndChar

StartChar: zero
Encoding: 48 48 53
GlifName: zero
Width: 1192
Flags: HW
LayerCount: 2
Fore
SplineSet
96 80 m 17
 428 367 748 666 1064 980 c 9
 1132 908 l 17
 789 617 465 317 162 8 c 9
 96 80 l 17
158 500 m 0
 158 257 344 78 596 78 c 0
 848 78 1034 257 1034 500 c 0
 1034 743 848 922 596 922 c 0
 344 922 158 743 158 500 c 0
84 500 m 0
 84 794 304 1016 596 1016 c 0
 888 1016 1108 794 1108 500 c 0
 1108 206 888 -16 596 -16 c 0
 304 -16 84 206 84 500 c 0
EndSplineSet
EndChar

StartChar: one
Encoding: 49 49 54
GlifName: one
Width: 588
Flags: HW
LayerCount: 2
Fore
SplineSet
296 1000 m 1
 488 1000 l 1
 488 0 l 1
 276 0 l 1
 276 666 l 1
 40 666 l 1
 40 836 l 1
 56 836 l 2
 223 836 272 886 296 1000 c 1
EndSplineSet
EndChar

StartChar: two
Encoding: 50 50 55
GlifName: two
Width: 964
Flags: HW
LayerCount: 2
Fore
SplineSet
60 642 m 1
 138 882 302 1014 520 1014 c 0
 740 1014 900 878 900 690 c 0
 900 522 772 400 434 246 c 1
 838 246 l 1
 884 366 l 1
 904 366 l 1
 904 2 l 1
 60 2 l 1
 60 24 l 1
 584 380 704 490 704 620 c 0
 704 726 610 788 446 788 c 0
 304 788 194 744 80 642 c 1
 60 642 l 1
EndSplineSet
EndChar

StartChar: three
Encoding: 51 51 56
GlifName: three
Width: 852
Flags: HW
LayerCount: 2
Fore
SplineSet
60 912 m 1
 60 740 l 1
 186 789 293 814 378 814 c 0
 505 814 580 759 580 666 c 0
 580 590 520 540 428 540 c 2
 186 540 l 1
 186 344 l 1
 426 344 l 2
 509 344 568 286 568 204 c 0
 568 149 542 96 492 46 c 2
 44 -400 l 1
 336 -400 l 1
 632 -96 l 2
 743 18 788 98 788 182 c 0
 788 301 695 416 578 440 c 1
 718 484 788 572 788 701 c 0
 788 885 635 1012 416 1012 c 0
 308 1012 194 980 60 912 c 1
EndSplineSet
EndChar

StartChar: four
Encoding: 52 52 57
GlifName: four
Width: 996
Flags: HW
LayerCount: 2
Fore
SplineSet
724 208 m 1
 274 208 l 1
 274 210 l 1
 184 300 l 1
 274 390 l 1
 724 390 l 1
 814 300 l 1
 724 210 l 1
 724 208 l 1
740 -320 m 1
 740 190 l 1
 742 190 l 1
 832 280 l 1
 922 190 l 1
 922 -320 l 1
 832 -410 l 1
 742 -320 l 1
 740 -320 l 1
742 410 m 1
 742 920 l 1
 744 920 l 1
 834 1010 l 1
 924 920 l 1
 924 410 l 1
 834 320 l 1
 744 410 l 1
 742 410 l 1
72 410 m 1
 72 920 l 1
 74 920 l 1
 164 1010 l 1
 254 920 l 1
 254 410 l 1
 164 320 l 1
 74 410 l 1
 72 410 l 1
EndSplineSet
EndChar

StartChar: five
Encoding: 53 53 58
GlifName: five
Width: 1064
Flags: HW
LayerCount: 2
Fore
SplineSet
974 766 m 1
 314 766 l 1
 314 434 l 1
 974 434 l 1
 974 194 l 1
 524 -402 l 1
 210 -402 l 1
 680 200 l 1
 90 200 l 1
 90 1000 l 1
 974 1000 l 1
 974 766 l 1
EndSplineSet
EndChar

StartChar: six
Encoding: 54 54 59
GlifName: six
Width: 984
Flags: HW
LayerCount: 2
Fore
SplineSet
80 1042 m 1
 482 784 l 1
 482 660 l 1
 298 660 l 1
 194 720 l 2
 121 762 80 825 80 894 c 2
 80 1042 l 1
332 1300 m 2
 652 1300 l 2
 807 1300 904 1212 904 1066 c 1
 684 924 l 1
 684 980 l 2
 684 1051 646 1088 572 1088 c 2
 412 1088 l 2
 338 1088 300 1052 300 980 c 2
 300 924 l 1
 80 1066 l 1
 80 1212 177 1300 332 1300 c 2
574 1090 m 2
 646 1090 686 1052 686 982 c 2
 686 929 l 1
 902 1067 l 1
 901 1212 806 1298 652 1298 c 2
 332 1298 l 2
 178 1298 83 1212 82 1067 c 1
 298 929 l 1
 298 982 l 2
 298 1052 338 1090 410 1090 c 2
 574 1090 l 2
480 662 m 1
 480 783 l 1
 82 1037 l 1
 82 894 l 2
 82 826 123 763 196 721 c 2
 299 662 l 1
 480 662 l 1
652 0 m 2
 332 0 l 2
 177 0 80 90 80 234 c 1
 300 376 l 1
 300 320 l 2
 300 249 338 212 412 212 c 2
 572 212 l 2
 646 212 684 248 684 320 c 2
 684 376 l 1
 904 234 l 1
 904 90 807 0 652 0 c 2
904 1042 m 1
 904 894 l 2
 904 825 863 762 790 720 c 2
 686 660 l 1
 502 660 l 1
 502 784 l 1
 904 1042 l 1
904 258 m 1
 502 516 l 1
 502 640 l 1
 686 640 l 1
 790 580 l 2
 863 538 904 475 904 406 c 2
 904 258 l 1
80 258 m 1
 80 406 l 2
 80 475 121 538 194 580 c 2
 298 640 l 1
 482 640 l 1
 482 516 l 1
 80 258 l 1
EndSplineSet
EndChar

StartChar: seven
Encoding: 55 55 60
GlifName: seven
Width: 1076
Flags: HW
LayerCount: 2
Fore
SplineSet
68 986 m 2
 68 444 l 2
 68 418 85 402 114 402 c 0
 232 402 768 482 902 482 c 0
 918 482 916 466 900 460 c 0
 384 282 174 85 174 -126 c 0
 174 -291 303 -400 498 -400 c 0
 699 -400 838 -294 838 -140 c 0
 838 56 660 122 660 240 c 0
 660 316 721 339 904 412 c 0
 988 445 1008 462 1008 514 c 2
 1008 958 l 2
 1008 985 984 1000 942 1000 c 0
 822 1000 287 888 167 888 c 0
 128 888 112 898 112 922 c 2
 112 986 l 2
 112 1013 68 1013 68 986 c 2
EndSplineSet
EndChar

StartChar: eight
Encoding: 56 56 61
GlifName: eight
Width: 1088
Flags: HW
LayerCount: 2
Fore
SplineSet
280 556 m 1
 280 192 l 1
 808 192 l 1
 808 556 l 1
 280 556 l 1
220 1116 m 2
 220 1224 296 1300 404 1300 c 2
 660 1300 l 2
 782 1300 868 1224 868 1116 c 2
 868 739 l 1
 953 716 1008 651 1008 564 c 2
 1008 184 l 2
 1008 76 928 0 816 0 c 2
 280 0 l 2
 162 0 80 76 80 184 c 2
 80 564 l 2
 80 657 136 726 220 744 c 1
 220 1116 l 2
668 748 m 1
 668 1108 l 1
 420 1108 l 1
 420 748 l 1
 668 748 l 1
EndSplineSet
EndChar

StartChar: nine
Encoding: 57 57 62
GlifName: nine
Width: 954
Flags: HW
LayerCount: 2
Fore
SplineSet
346 -394 m 0
 318 -394 296 -372 296 -344 c 0
 296 -339 296 -334 298 -329 c 0
 362 -127 442 78 583 404 c 1
 505 327 420 290 326 290 c 0
 173 290 76 406 76 590 c 0
 76 821 267 1000 514 1000 c 0
 606 1000 698 964 759 903 c 0
 766 896 772 889 777 882 c 1
 790 907 805 934 822 965 c 0
 831 981 847 992 866 992 c 0
 894 992 916 970 916 942 c 0
 916 936 914 929 912 923 c 0
 907 910 508 1 394 -359 c 0
 387 -380 368 -394 346 -394 c 0
514 900 m 0
 322 900 176 766 176 590 c 0
 176 462 230 390 326 390 c 0
 462 390 558 487 731 797 c 1
 719 800 708 808 701 818 c 0
 670 863 586 900 514 900 c 0
EndSplineSet
EndChar

StartChar: ampersand
Encoding: 38 38 63
GlifName: ampersand
Width: 1388
Flags: HW
LayerCount: 2
Fore
SplineSet
1388 232 m 1
 889 232 376 597 376 947 c 0
 376 1034 408 1078 467 1078 c 0
 523 1078 552 1039 552 972 c 0
 552 697 40 589 40 271 c 0
 40 112 168 -20 349 -20 c 4
 810 -20 722 784 1057 784 c 0
 1115 784 1154 749 1154 705 c 0
 1154 649 1102 609 1014 570 c 1
 1026 546 l 1
 1173 607 1270 710 1270 812 c 0
 1270 887 1208 1000 1058 1000 c 0
 682 1000 890 208 485 208 c 0
 356 208 280 289 280 413 c 0
 280 693 664 799 664 1092 c 0
 664 1223 587 1312 473 1312 c 0
 356 1312 272 1217 272 1087 c 0
 272 712 973 -20 1332 -20 c 1
 1388 232 l 1
EndSplineSet
EndChar

StartChar: at
Encoding: 64 64 64
GlifName: at
Width: 1568
Flags: HW
LayerCount: 2
Fore
SplineSet
680 558 m 0
 680 502 726 456 780 456 c 0
 834 456 880 502 880 558 c 0
 880 612 836 656 780 656 c 0
 724 656 680 612 680 558 c 0
550 555 m 0
 550 674 646 768 766 768 c 0
 888 768 986 670 986 549 c 0
 986 430 890 336 770 336 c 0
 648 336 550 434 550 555 c 0
590 956 m 1
 756 956 l 1
 1138 478 l 1
 1256 478 1324 562 1324 704 c 0
 1324 972 1082 1188 792 1188 c 0
 486 1188 244 946 244 648 c 0
 244 350 486 108 784 108 c 0
 920 108 1050 158 1148 248 c 1
 1242 144 l 1
 1116 28 952 -36 782 -36 c 0
 408 -36 100 272 100 648 c 0
 100 1024 408 1332 793 1332 c 0
 1160 1332 1468 1052 1468 713 c 0
 1468 500 1346 352 1172 352 c 2
 1074 352 l 1
 590 956 l 1
EndSplineSet
EndChar

StartChar: underscore
Encoding: 95 95 65
GlifName: underscore
Width: 1008
Flags: HW
LayerCount: 2
Fore
SplineSet
40 0 m 1
 968 0 l 1
 968 -156 l 1
 40 -156 l 1
 40 0 l 1
EndSplineSet
EndChar

StartChar: asterisk
Encoding: 42 42 66
GlifName: asterisk
Width: 1114
Flags: HW
LayerCount: 2
Fore
SplineSet
62 860 m 4
 62 928 118 988 182 988 c 4
 220 988 258 968 292 932 c 6
 504 702 l 6
 518 686 542 700 536 720 c 6
 442 1018 l 6
 436 1034 434 1052 434 1070 c 4
 434 1146 486 1198 558 1198 c 4
 630 1198 682 1146 682 1076 c 4
 682 1060 680 1044 672 1018 c 6
 580 720 l 6
 574 698 594 686 610 702 c 6
 822 932 l 6
 852 966 890 984 928 984 c 4
 996 984 1054 924 1054 856 c 4
 1054 796 1008 748 936 732 c 6
 632 664 l 6
 608 658 608 634 632 628 c 6
 936 560 l 6
 1006 544 1052 494 1052 432 c 4
 1052 364 996 304 932 304 c 4
 894 304 856 324 822 360 c 6
 610 590 l 6
 597 604 572 592 578 572 c 6
 672 274 l 6
 678 258 680 240 680 222 c 4
 680 146 628 94 556 94 c 4
 484 94 432 146 432 216 c 4
 432 232 434 248 442 274 c 6
 534 572 l 6
 541 594 520 608 504 590 c 6
 292 360 l 6
 262 326 224 308 186 308 c 4
 118 308 60 368 60 436 c 4
 60 496 106 544 178 560 c 6
 482 628 l 6
 500 632 500 660 482 664 c 6
 178 732 l 6
 108 748 62 798 62 860 c 4
EndSplineSet
EndChar

StartChar: paragraph
Encoding: 182 182 67
GlifName: paragraph
Width: 1476
Flags: HW
LayerCount: 2
Fore
SplineSet
1036 1326 m 1
 1248 1298 l 1
 1030 -210 l 1
 864 -194 l 1
 1036 1326 l 1
644 1354 m 1
 860 1338 l 1
 666 -350 l 1
 498 -340 l 1
 644 1354 l 1
1454 1226 m 1
 1476 1150 l 1
 640 984 l 2
 385 933 281 824 281 661 c 0
 281 574 342 487 446 428 c 1
 284 384 l 1
 153 463 80 546 80 665 c 0
 80 854 253 983 574 1048 c 2
 1454 1226 l 1
EndSplineSet
EndChar

StartChar: section
Encoding: 167 167 68
GlifName: section
Width: 1324
Flags: HW
LayerCount: 2
Fore
SplineSet
60 0 m 1
 230 0 l 1
 230 -20 l 2
 230 -166 328 -260 478 -260 c 0
 621 -260 708 -191 708 -76 c 0
 708 156 76 175 76 500 c 0
 76 702 252 836 510 836 c 1
 471 878 448 925 448 980 c 0
 448 1182 601 1310 842 1310 c 0
 1097 1310 1264 1165 1264 942 c 2
 1264 910 l 1
 1094 910 l 1
 1094 930 l 2
 1094 1076 996 1170 846 1170 c 0
 703 1170 616 1101 616 986 c 0
 616 754 1248 735 1248 410 c 0
 1248 203 1078 66 825 66 c 1
 857 27 876 -18 876 -70 c 0
 876 -272 723 -400 482 -400 c 0
 227 -400 60 -255 60 -32 c 2
 60 0 l 1
709 668 m 0
 659 690 601 708 504 708 c 0
 368 708 248 635 248 520 c 0
 248 377 454 307 639 230 c 0
 677 214 734 202 820 202 c 0
 956 202 1076 275 1076 390 c 0
 1076 527 885 591 709 668 c 0
EndSplineSet
EndChar

StartChar: sterling
Encoding: 163 163 69
GlifName: sterling
Width: 1106
Flags: HW
LayerCount: 2
Fore
SplineSet
146 338 m 1
 154 340 l 1
 152 346 150 358 150 369 c 0
 150 432 204 464 308 464 c 0
 431 464 526 414 649 414 c 0
 802 414 915 501 986 672 c 1
 974 672 l 1
 937 581 847 538 695 538 c 0
 552 538 533 582 390 582 c 0
 231 582 130 517 130 415 c 0
 130 391 135 366 146 338 c 1
944 -38 m 0
 686 -38 625 146 367 146 c 0
 293 146 200 125 50 76 c 1
 50 74 50 74 50 74 c 1
 438 190 630 315 630 546 c 0
 630 734 498 847 498 1072 c 0
 498 1205 539 1286 606 1286 c 0
 671 1286 716 1209 716 1097 c 0
 716 911 570 769 328 718 c 1
 330 706 l 1
 654 783 846 926 846 1090 c 0
 846 1219 746 1306 600 1306 c 0
 440 1306 338 1202 338 1036 c 0
 338 843 490 707 490 514 c 0
 490 313 351 177 40 74 c 1
 66 -30 l 1
 150 -12 231 -2 284 -2 c 0
 519 -2 560 -138 795 -138 c 0
 959 -138 1109 -50 1158 74 c 1
 1148 78 l 1
 1101 -4 1041 -38 944 -38 c 0
EndSplineSet
EndChar

StartChar: cent
Encoding: 162 162 70
GlifName: cent
Width: 826
Flags: HW
LayerCount: 2
Fore
SplineSet
446 150 m 1
 522 158 l 1
 624 -66 l 1
 336 -54 l 1
 446 150 l 1
458 1066 m 5
 382 1256 l 5
 636 1288 l 5
 534 1064 l 5
 458 1066 l 5
730 1006 m 1
 404 1018 l 1
 164 880 l 1
 60 614 l 1
 128 376 l 1
 340 188 l 1
 786 224 l 1
 716 538 l 1
 492 422 l 1
 330 518 l 1
 340 718 l 1
 516 804 l 1
 712 710 l 1
 730 1006 l 1
EndSplineSet
EndChar

StartChar: percent
Encoding: 37 37 71
GlifName: percent
Width: 1310
Flags: HW
LayerCount: 2
Fore
SplineSet
90 490 m 25
 154 342 l 25
 1206 804 l 25
 1142 952 l 25
 90 490 l 25
800 258 m 0
 800 173 859 117 948 117 c 0
 1037 117 1096 173 1096 258 c 0
 1096 343 1037 399 948 399 c 0
 859 399 800 343 800 258 c 0
646 258 m 0
 646 426 772 546 948 546 c 0
 1124 546 1250 426 1250 258 c 0
 1250 90 1124 -30 948 -30 c 0
 772 -30 646 90 646 258 c 0
214 1036 m 0
 214 951 273 895 362 895 c 0
 451 895 510 951 510 1036 c 0
 510 1121 451 1177 362 1177 c 0
 273 1177 214 1121 214 1036 c 0
60 1036 m 0
 60 1204 186 1324 362 1324 c 0
 538 1324 664 1204 664 1036 c 0
 664 868 538 748 362 748 c 0
 186 748 60 868 60 1036 c 0
EndSplineSet
EndChar

StartChar: question
Encoding: 63 63 72
GlifName: question
Width: 1096
Flags: HW
LayerCount: 2
Fore
SplineSet
752 174 m 1
 560 -18 l 5
 366 162 l 1
 558 354 l 1
 752 174 l 1
626 1310 m 0
 866 1310 1026 1204 1026 1044 c 0
 1026 943 969 840 864 776 c 2
 660 656 l 1
 986 656 l 1
 848 416 l 1
 202 416 l 1
 348 656 l 1
 526 702 677 761 790 832 c 1
 800 856 806 885 806 913 c 0
 806 1014 698 1066 493 1066 c 0
 350 1066 221 1037 60 970 c 1
 242 1250 l 1
 392 1291 514 1310 626 1310 c 0
EndSplineSet
EndChar

StartChar: exclam
Encoding: 33 33 73
GlifName: exclam
Width: 548
Flags: HW
LayerCount: 2
Fore
SplineSet
100 314 m 5
 448 314 l 5
 448 0 l 5
 100 0 l 5
 100 314 l 5
80 1300 m 5
 468 1300 l 5
 408 418 l 5
 140 418 l 5
 80 1300 l 5
EndSplineSet
EndChar

StartChar: dollar
Encoding: 36 36 74
GlifName: dollar
Width: 1028
Flags: HW
LayerCount: 2
Fore
SplineSet
530 1352 m 1
 424 1474 l 2
 366 1540 438 1614 540 1614 c 0
 638 1614 706 1546 646 1474 c 2
 546 1352 l 1
 530 1352 l 1
540 -52 m 1
 646 -174 l 2
 704 -240 634 -314 532 -314 c 0
 434 -314 364 -246 424 -174 c 2
 524 -52 l 1
 540 -52 l 1
536 1300 m 2
 552 1300 l 2
 826 1300 968 1234 968 1060 c 0
 968 934 894 838 760 838 c 0
 660 838 608 892 608 974 c 0
 608 1130 800 1266 704 1266 c 2
 698 1266 l 2
 498 1266 432 1172 432 1072 c 0
 432 788 968 706 968 328 c 0
 968 108 786 0 532 0 c 2
 516 0 l 2
 234 0 60 96 60 282 c 0
 60 398 128 488 260 488 c 0
 356 488 428 440 428 340 c 0
 428 170 226 44 344 44 c 2
 350 44 l 2
 546 44 620 140 620 228 c 0
 620 458 100 638 100 978 c 0
 100 1180 282 1300 536 1300 c 2
EndSplineSet
EndChar

StartChar: yen
Encoding: 165 165 75
GlifName: yen
Width: 1304
Flags: HW
LayerCount: 2
Fore
SplineSet
160 232 m 1
 1144 232 l 1
 1144 0 l 1
 160 0 l 1
 160 232 l 1
160 512 m 1
 1144 512 l 1
 1144 280 l 1
 160 280 l 1
 160 512 l 1
1244 1300 m 1
 1244 1180 l 1
 1068 560 l 1
 612 560 l 1
 788 1300 l 1
 1244 1300 l 1
60 1300 m 1
 516 1300 l 1
 692 560 l 1
 236 560 l 1
 60 1180 l 1
 60 1300 l 1
416 560 m 1
 888 560 l 5
 888 0 l 5
 416 0 l 1
 416 560 l 1
EndSplineSet
EndChar

StartChar: numbersign
Encoding: 35 35 76
GlifName: numbersign
Width: 1320
Flags: HW
LayerCount: 2
Fore
SplineSet
348 1300 m 1
 676 1300 l 1
 596 784 l 1
 680 1000 l 1
 802 1000 l 1
 848 1300 l 1
 1176 1300 l 1
 1130 1000 l 1
 1240 1000 l 1
 1240 728 l 1
 830 728 l 1
 1086 680 l 1
 1058 520 l 1
 1240 520 l 1
 1240 248 l 1
 1018 248 l 1
 980 0 l 1
 652 0 l 1
 720 462 l 1
 636 248 l 1
 518 248 l 1
 480 0 l 1
 152 0 l 1
 190 248 l 1
 80 248 l 1
 80 520 l 1
 490 520 l 1
 236 560 l 1
 262 728 l 1
 80 728 l 1
 80 1000 l 1
 302 1000 l 1
 348 1300 l 1
762 728 m 1
 590 728 l 1
 558 520 l 1
 730 520 l 1
 762 728 l 1
EndSplineSet
EndChar

StartChar: braceleft
Encoding: 123 123 77
GlifName: braceleft
Width: 548
Flags: HW
LayerCount: 2
Fore
SplineSet
548 1380 m 5
 274 1380 227 1187 227 979 c 0
 227 857 242 730 242 628 c 0
 242 568 235 517 213 483 c 1
 235 450 242 402 242 344 c 0
 242 245 227 123 227 5 c 0
 227 -195 274 -380 548 -380 c 1
 548 -378 l 1
 375 -378 342 -243 342 -81 c 0
 342 28 357 149 357 253 c 0
 357 362 330 451 214 482 c 1
 336 514 361 615 361 737 c 0
 361 838 351 951 351 1056 c 0
 351 1230 380 1378 548 1378 c 1
 548 1380 l 5
213 483 m 1
 194 441 163 416 114 416 c 0
 65 416 40 446 40 482 c 0
 40 512 65 548 114 548 c 0
 163 548 194 524 213 483 c 1
EndSplineSet
EndChar

StartChar: braceright
Encoding: 125 125 78
GlifName: braceright
Width: 548
Flags: HW
LayerCount: 2
Fore
SplineSet
0 1380 m 5
 274 1380 321 1187 321 979 c 4
 321 857 306 730 306 628 c 4
 306 568 313 517 335 483 c 5
 313 450 306 402 306 344 c 4
 306 245 321 123 321 5 c 0
 321 -195 274 -380 0 -380 c 1
 0 -378 l 1
 173 -378 206 -243 206 -81 c 0
 206 28 191 149 191 253 c 4
 191 362 218 451 334 482 c 5
 212 514 187 615 187 737 c 4
 187 838 197 951 197 1056 c 4
 197 1230 168 1378 0 1378 c 5
 0 1380 l 5
335 483 m 5
 354 441 385 416 434 416 c 4
 483 416 508 446 508 482 c 4
 508 512 483 548 434 548 c 4
 385 548 354 524 335 483 c 5
EndSplineSet
EndChar

StartChar: bracketleft
Encoding: 91 91 79
GlifName: bracketleft
Width: 532
Flags: HW
LayerCount: 2
Fore
SplineSet
392 1244 m 5
 200 1244 l 5
 200 -240 l 5
 392 -240 l 5
 392 -260 l 5
 180 -260 l 5
 180 1264 l 5
 392 1264 l 5
 392 1244 l 5
160 1284 m 5
 160 -280 l 5
 412 -280 l 5
 412 -220 l 5
 220 -220 l 5
 220 1224 l 5
 412 1224 l 5
 412 1284 l 5
 160 1284 l 5
140 1304 m 5
 432 1304 l 5
 432 1204 l 5
 240 1204 l 5
 240 -200 l 5
 432 -200 l 5
 432 -300 l 5
 140 -300 l 5
 140 1304 l 5
120 1324 m 5
 120 -320 l 5
 452 -320 l 5
 452 -180 l 5
 260 -180 l 5
 260 1184 l 5
 452 1184 l 5
 452 1324 l 5
 120 1324 l 5
100 1344 m 5
 472 1344 l 5
 472 1164 l 5
 280 1164 l 5
 280 -160 l 5
 472 -160 l 5
 472 -340 l 5
 100 -340 l 5
 100 1344 l 5
80 1364 m 5
 80 -360 l 5
 492 -360 l 5
 492 -140 l 5
 300 -140 l 5
 300 1144 l 5
 492 1144 l 5
 492 1364 l 5
 80 1364 l 5
60 1384 m 5
 512 1384 l 5
 512 1124 l 5
 320 1124 l 5
 320 -120 l 5
 512 -120 l 5
 512 -380 l 5
 60 -380 l 5
 60 1384 l 5
EndSplineSet
EndChar

StartChar: bracketright
Encoding: 93 93 80
GlifName: bracketright
Width: 532
Flags: HW
LayerCount: 2
Fore
SplineSet
140 -240 m 1
 332 -240 l 1
 332 1244 l 1
 140 1244 l 1
 140 1264 l 1
 352 1264 l 1
 352 -260 l 1
 140 -260 l 1
 140 -240 l 1
372 -280 m 1
 372 1284 l 1
 120 1284 l 1
 120 1224 l 1
 312 1224 l 1
 312 -220 l 1
 120 -220 l 1
 120 -280 l 1
 372 -280 l 1
392 -300 m 1
 100 -300 l 1
 100 -200 l 1
 292 -200 l 1
 292 1204 l 1
 100 1204 l 1
 100 1304 l 1
 392 1304 l 1
 392 -300 l 1
412 -320 m 1
 412 1324 l 1
 80 1324 l 1
 80 1184 l 1
 272 1184 l 1
 272 -180 l 1
 80 -180 l 1
 80 -320 l 1
 412 -320 l 1
432 -340 m 1
 60 -340 l 1
 60 -160 l 1
 252 -160 l 1
 252 1164 l 1
 60 1164 l 1
 60 1344 l 1
 432 1344 l 1
 432 -340 l 1
452 -360 m 1
 452 1364 l 1
 40 1364 l 1
 40 1144 l 1
 232 1144 l 1
 232 -140 l 1
 40 -140 l 1
 40 -360 l 1
 452 -360 l 1
472 -380 m 1
 20 -380 l 1
 20 -120 l 1
 212 -120 l 1
 212 1124 l 1
 20 1124 l 1
 20 1384 l 1
 472 1384 l 1
 472 -380 l 1
EndSplineSet
EndChar

StartChar: parenleft
Encoding: 40 40 81
GlifName: parenleft
Width: 672
Flags: HW
LayerCount: 2
Fore
SplineSet
120 560 m 1
 0 560 l 1
 0 440 l 1
 120 440 l 1
 120 560 l 1
432 560 m 1
 312 560 l 1
 312 440 l 1
 432 440 l 1
 432 560 l 1
672 1440 m 1
 552 1440 l 1
 552 1320 l 1
 672 1320 l 1
 672 1440 l 1
360 1440 m 1
 240 1440 l 1
 240 1320 l 1
 360 1320 l 1
 360 1440 l 1
672 -320 m 1
 552 -320 l 1
 552 -440 l 1
 672 -440 l 1
 672 -320 l 1
360 -320 m 1
 240 -320 l 1
 240 -440 l 1
 360 -440 l 1
 360 -320 l 1
300 1380 m 1
 612 1380 l 1
 453 1153 372 856 372 500 c 0
 372 144 453 -153 612 -380 c 1
 300 -380 l 1
 142 -177 60 124 60 500 c 0
 60 876 142 1177 300 1380 c 1
EndSplineSet
EndChar

StartChar: parenright
Encoding: 41 41 82
GlifName: parenright
Width: 672
Flags: HW
LayerCount: 2
Fore
SplineSet
552 560 m 5
 552 440 l 5
 672 440 l 5
 672 560 l 5
 552 560 l 5
240 560 m 5
 240 440 l 5
 360 440 l 5
 360 560 l 5
 240 560 l 5
0 1440 m 5
 0 1320 l 5
 120 1320 l 5
 120 1440 l 5
 0 1440 l 5
312 1440 m 5
 312 1320 l 5
 432 1320 l 5
 432 1440 l 5
 312 1440 l 5
0 -320 m 5
 0 -440 l 5
 120 -440 l 5
 120 -320 l 5
 0 -320 l 5
312 -320 m 5
 312 -440 l 5
 432 -440 l 5
 432 -320 l 5
 312 -320 l 5
372 1380 m 5
 530 1177 612 876 612 500 c 4
 612 124 530 -177 372 -380 c 5
 60 -380 l 5
 219 -153 300 144 300 500 c 4
 300 856 219 1153 60 1380 c 5
 372 1380 l 5
EndSplineSet
EndChar

StartChar: period
Encoding: 46 46 83
GlifName: period
Width: 356
Flags: HW
LayerCount: 2
Fore
SplineSet
60 236 m 5
 296 236 l 5
 296 0 l 5
 60 0 l 5
 60 236 l 5
EndSplineSet
EndChar

StartChar: comma
Encoding: 44 44 84
GlifName: comma
Width: 356
Flags: HW
LayerCount: 2
Fore
SplineSet
60 236 m 5
 296 236 l 5
 296 -44 l 6
 296 -149 281 -322 84 -322 c 6
 20 -322 l 5
 20 -130 l 5
 80 -130 l 6
 202 -130 240 -104 240 -50 c 6
 240 0 l 5
 60 0 l 5
 60 236 l 5
EndSplineSet
EndChar

StartChar: colon
Encoding: 58 58 85
GlifName: colon
Width: 356
Flags: HW
LayerCount: 2
Fore
SplineSet
60 1000 m 5
 296 1000 l 5
 296 764 l 5
 60 764 l 5
 60 1000 l 5
60 236 m 5
 296 236 l 5
 296 0 l 5
 60 0 l 5
 60 236 l 5
EndSplineSet
EndChar

StartChar: semicolon
Encoding: 59 59 86
GlifName: semicolon
Width: 356
Flags: HW
LayerCount: 2
Fore
SplineSet
60 236 m 1
 296 236 l 1
 296 -44 l 2
 296 -149 281 -322 84 -322 c 2
 20 -322 l 1
 20 -130 l 1
 80 -130 l 2
 202 -130 240 -104 240 -50 c 2
 240 0 l 1
 60 0 l 1
 60 236 l 1
60 1000 m 1
 296 1000 l 1
 296 764 l 1
 60 764 l 1
 60 1000 l 1
EndSplineSet
EndChar

StartChar: slash
Encoding: 47 47 87
GlifName: slash
Width: 696
Flags: HW
LayerCount: 2
Fore
SplineSet
424 1300 m 1
 666 1300 l 1
 272 0 l 1
 30 0 l 1
 424 1300 l 1
EndSplineSet
EndChar

StartChar: backslash
Encoding: 92 92 88
GlifName: backslash
Width: 696
Flags: HW
LayerCount: 2
Fore
SplineSet
272 1300 m 5
 666 0 l 5
 424 0 l 5
 30 1300 l 5
 272 1300 l 5
EndSplineSet
EndChar

StartChar: quotedbl
Encoding: 34 34 89
GlifName: quotedbl
Width: 736
Flags: HW
LayerCount: 2
Fore
SplineSet
424 1300 m 5
 720 1300 l 5
 480 720 l 5
 424 720 l 5
 424 1300 l 5
72 1300 m 1
 368 1300 l 1
 128 720 l 1
 72 720 l 1
 72 1300 l 1
EndSplineSet
EndChar

StartChar: quotesingle
Encoding: 39 39 90
GlifName: quotesingle
Width: 384
Flags: HW
LayerCount: 2
Fore
SplineSet
72 1300 m 5
 368 1300 l 5
 128 720 l 5
 72 720 l 5
 72 1300 l 5
EndSplineSet
EndChar

StartChar: hyphen
Encoding: 45 45 91
GlifName: hyphen
Width: 648
Flags: HW
LayerCount: 2
Fore
SplineSet
60 712 m 5
 588 712 l 5
 588 504 l 5
 60 504 l 5
 60 712 l 5
EndSplineSet
EndChar

StartChar: plus
Encoding: 43 43 92
GlifName: plus
Width: 912
Flags: HW
LayerCount: 2
Fore
SplineSet
60 708 m 5
 60 500 l 5
 352 500 l 5
 352 208 l 5
 560 208 l 5
 560 500 l 5
 852 500 l 5
 852 708 l 5
 560 708 l 5
 560 1000 l 5
 352 1000 l 5
 352 708 l 5
 60 708 l 5
EndSplineSet
EndChar

StartChar: equal
Encoding: 61 61 93
GlifName: equal
Width: 912
Flags: HW
LayerCount: 2
Fore
SplineSet
852 260 m 1
 852 468 l 1
 60 468 l 1
 60 260 l 1
 852 260 l 1
852 700 m 5
 852 908 l 5
 60 908 l 5
 60 700 l 5
 852 700 l 5
EndSplineSet
EndChar

StartChar: less
Encoding: 60 60 94
GlifName: less
Width: 912
Flags: HW
LayerCount: 2
Fore
SplineSet
852 766 m 5
 852 1000 l 5
 60 608 l 5
 60 494 l 5
 852 102 l 5
 852 336 l 5
 399 551 l 5
 852 766 l 5
EndSplineSet
EndChar

StartChar: greater
Encoding: 62 62 95
GlifName: greater
Width: 912
Flags: HW
LayerCount: 2
Fore
SplineSet
60 766 m 5
 513 551 l 5
 60 336 l 5
 60 102 l 5
 852 494 l 5
 852 608 l 5
 60 1000 l 5
 60 766 l 5
EndSplineSet
EndChar

StartChar: asciicircum
Encoding: 94 94 96
GlifName: asciicircum
Width: 1058
Flags: HW
LayerCount: 2
Fore
SplineSet
764 816 m 1
 1038 816 l 1
 579 1300 l 1
 465 1300 l 1
 20 816 l 1
 294 816 l 1
 522 1081 l 1
 764 816 l 1
EndSplineSet
EndChar

StartChar: grave
Encoding: 96 96 97
GlifName: grave
Width: 724
Flags: HW
LayerCount: 2
Fore
SplineSet
32 1300 m 5
 328 1300 l 5
 704 720 l 1
 468 720 l 1
 32 1300 l 5
EndSplineSet
EndChar

StartChar: bar
Encoding: 124 124 98
GlifName: bar
Width: 436
Flags: HW
LayerCount: 2
Fore
SplineSet
100 1600 m 1
 336 1600 l 1
 336 -400 l 1
 100 -400 l 1
 100 1600 l 1
EndSplineSet
EndChar

StartChar: asciitilde
Encoding: 126 126 99
GlifName: asciitilde
Width: 1080
Flags: HW
LayerCount: 2
Fore
SplineSet
60 464 m 1
 94 697 204 830 363 830 c 0
 528 830 638 660 763 660 c 0
 840 660 877 705 910 842 c 1
 1020 842 l 1
 995 585 902 458 738 458 c 0
 558 458 497 634 317 634 c 0
 251 634 186 586 172 464 c 1
 60 464 l 1
EndSplineSet
EndChar

StartChar: exclamdown
Encoding: 161 161 100
GlifName: exclamdown
Width: 548
Flags: HW
LayerCount: 2
Fore
SplineSet
448 686 m 5
 100 686 l 5
 100 1000 l 5
 448 1000 l 5
 448 686 l 5
468 -300 m 5
 80 -300 l 5
 140 582 l 5
 408 582 l 5
 468 -300 l 5
EndSplineSet
EndChar

StartChar: questiondown
Encoding: 191 191 101
GlifName: questiondown
Width: 1096
Flags: HW
LayerCount: 2
Fore
SplineSet
334 826 m 1
 526 1018 l 1
 720 838 l 1
 528 646 l 1
 334 826 l 1
460 -310 m 0
 220 -310 60 -204 60 -44 c 0
 60 57 116 162 222 224 c 2
 426 344 l 1
 100 344 l 1
 238 584 l 1
 884 584 l 1
 738 344 l 1
 560 298 409 239 296 168 c 1
 286 144 280 115 280 87 c 0
 280 -14 388 -66 593 -66 c 0
 736 -66 865 -37 1026 30 c 1
 844 -250 l 1
 694 -291 572 -310 460 -310 c 0
EndSplineSet
EndChar

StartChar: guillemotleft
Encoding: 171 171 102
GlifName: guillemotleft
Width: 1072
Flags: HW
LayerCount: 2
Fore
SplineSet
1052 1000 m 1
 792 1000 l 1
 500 568 l 1
 500 534 l 5
 792 102 l 1
 1052 102 l 1
 719 551 l 1
 1052 1000 l 1
612 1000 m 1
 352 1000 l 1
 60 568 l 1
 60 534 l 5
 352 102 l 1
 612 102 l 1
 279 551 l 1
 612 1000 l 1
EndSplineSet
EndChar

StartChar: guillemotright
Encoding: 187 187 103
GlifName: guillemotright
Width: 1072
Flags: HW
LayerCount: 2
Fore
SplineSet
20 102 m 1
 280 102 l 1
 572 534 l 1
 572 568 l 1
 280 1000 l 1
 20 1000 l 1
 353 551 l 1
 20 102 l 1
460 102 m 1
 720 102 l 1
 1012 534 l 1
 1012 568 l 1
 720 1000 l 1
 460 1000 l 1
 793 551 l 1
 460 102 l 1
EndSplineSet
EndChar

StartChar: minus
Encoding: 256 8722 105
GlifName: minus
Width: 912
Flags: HW
LayerCount: 2
Fore
SplineSet
852 500 m 1
 852 708 l 1
 60 708 l 1
 60 500 l 1
 852 500 l 1
EndSplineSet
EndChar

StartChar: endash
Encoding: 257 8211 106
GlifName: endash
Width: 1108
Flags: HW
LayerCount: 2
Fore
SplineSet
60 712 m 1
 1048 712 l 5
 1048 504 l 5
 60 504 l 1
 60 712 l 1
EndSplineSet
EndChar

StartChar: emdash
Encoding: 258 8212 107
GlifName: emdash
Width: 1492
Flags: HW
LayerCount: 2
Fore
SplineSet
60 712 m 1
 1432 712 l 5
 1432 504 l 5
 60 504 l 1
 60 712 l 1
EndSplineSet
EndChar

StartChar: multiply
Encoding: 215 215 108
GlifName: multiply
Width: 912
Flags: HW
LayerCount: 2
Fore
SplineSet
62 358 m 5
 210 210 l 5
 456 456 l 5
 702 210 l 5
 850 358 l 5
 604 604 l 5
 850 850 l 5
 702 998 l 5
 456 752 l 5
 210 998 l 5
 62 850 l 5
 308 604 l 5
 62 358 l 5
EndSplineSet
EndChar

StartChar: divide
Encoding: 247 247 109
GlifName: divide
Width: 912
Flags: HW
LayerCount: 2
Fore
SplineSet
338 1000 m 1
 574 1000 l 1
 574 784 l 1
 338 784 l 1
 338 1000 l 1
338 416 m 5
 574 416 l 5
 574 200 l 1
 338 200 l 1
 338 416 l 5
852 520 m 1
 852 688 l 1
 60 688 l 1
 60 520 l 1
 852 520 l 1
EndSplineSet
EndChar

StartChar: Agrave
Encoding: 192 192 110
GlifName: A_grave
Width: 1700
Flags: HW
HStem: 0 404<100 318 491 672 768 856 1489 1600> 520 142<554 774> 1260 40G<354 1158>
VStem: 100 572<0 404>
LayerCount: 2
Fore
SplineSet
474 1700 m 5
 1018 1600 l 5
 1018 1376 l 5
 858 1376 l 5
 858 1421 831 1442 774 1442 c 6
 474 1442 l 5
 474 1700 l 5
354 1300 m 1
 1142 1300 l 1
 1476 476 l 2
 1497 425 1519 404 1554 404 c 2
 1600 404 l 1
 1600 0 l 1
 768 0 l 1
 768 404 l 1
 820 404 l 2
 854 404 866 438 848 482 c 2
 832 520 l 1
 507 520 l 1
 498 492 l 2
 482 443 496 404 529 404 c 2
 672 404 l 1
 672 0 l 1
 100 0 l 1
 100 404 l 1
 249 404 l 2
 290 404 320 434 342 498 c 2
 460 834 l 2
 472 869 454 896 419 896 c 2
 354 896 l 1
 354 1300 l 1
774 662 m 1
 678 896 l 1
 631 896 l 1
 554 662 l 1
 774 662 l 1
EndSplineSet
EndChar

StartChar: Aacute
Encoding: 193 193 111
GlifName: A_acute
Width: 1700
Flags: HW
HStem: 0 404<100 318 491 672 768 856 1489 1600> 520 142<554 774> 1260 40G<354 1158>
VStem: 100 572<0 404>
LayerCount: 2
Fore
SplineSet
1118 1700 m 5
 1118 1442 l 5
 818 1442 l 6
 761 1442 734 1421 734 1376 c 5
 574 1376 l 5
 574 1600 l 5
 1118 1700 l 5
354 1300 m 1
 1142 1300 l 1
 1476 476 l 2
 1496 426 1518 404 1554 404 c 2
 1600 404 l 1
 1600 0 l 1
 768 0 l 1
 768 404 l 1
 820 404 l 2
 856 404 865 441 848 482 c 2
 832 520 l 1
 507 520 l 1
 498 492 l 2
 485 451 490 404 529 404 c 2
 672 404 l 1
 672 0 l 1
 100 0 l 1
 100 404 l 1
 249 404 l 2
 298 404 325 448 342 498 c 2
 460 834 l 2
 472 868 456 896 419 896 c 2
 354 896 l 1
 354 1300 l 1
774 662 m 1
 678 896 l 1
 631 896 l 1
 554 662 l 1
 774 662 l 1
EndSplineSet
EndChar

StartChar: Acircumflex
Encoding: 194 194 112
GlifName: A_circumflex
Width: 1700
Flags: HW
HStem: 0 404<100 318 491 672 768 856 1489 1600> 520 142<554 774> 1260 40G<354 1158>
VStem: 100 572<0 404>
LayerCount: 2
Fore
SplineSet
774 662 m 1
 678 896 l 1
 631 896 l 1
 554 662 l 1
 774 662 l 1
354 1300 m 1
 1142 1300 l 1
 1476 476 l 2
 1496 426 1518 404 1554 404 c 2
 1600 404 l 1
 1600 0 l 1
 768 0 l 1
 768 404 l 1
 820 404 l 2
 856 404 865 441 848 482 c 2
 832 520 l 1
 507 520 l 1
 498 492 l 2
 485 451 490 404 529 404 c 2
 672 404 l 1
 672 0 l 1
 100 0 l 1
 100 404 l 1
 249 404 l 2
 298 404 325 448 342 498 c 2
 460 834 l 2
 472 868 456 896 419 896 c 2
 354 896 l 1
 354 1300 l 1
1038 1442 m 6
 598 1442 l 6
 541 1442 514 1421 514 1376 c 5
 354 1376 l 5
 354 1600 l 5
 818 1700 l 5
 1282 1600 l 5
 1282 1376 l 5
 1122 1376 l 5
 1122 1421 1095 1442 1038 1442 c 6
EndSplineSet
EndChar

StartChar: Atilde
Encoding: 195 195 113
GlifName: A_tilde
Width: 1700
Flags: HW
HStem: 0 404<100 318 491 672 768 856 1489 1600> 520 142<554 774> 1260 40G<354 1158>
VStem: 100 572<0 404>
LayerCount: 2
Fore
SplineSet
774 662 m 1
 678 896 l 1
 631 896 l 1
 554 662 l 1
 774 662 l 1
354 1300 m 1
 1142 1300 l 1
 1476 476 l 2
 1496 426 1518 404 1554 404 c 2
 1600 404 l 1
 1600 0 l 1
 768 0 l 1
 768 404 l 1
 820 404 l 2
 856 404 865 441 848 482 c 2
 832 520 l 1
 507 520 l 1
 498 492 l 2
 485 451 490 404 529 404 c 2
 672 404 l 1
 672 0 l 1
 100 0 l 1
 100 404 l 1
 249 404 l 2
 298 404 325 448 342 498 c 2
 460 834 l 2
 472 868 456 896 419 896 c 2
 354 896 l 1
 354 1300 l 1
598 1442 m 6
 545 1448 514 1421 514 1376 c 5
 354 1376 l 5
 354 1700 l 5
 536 1700 l 5
 1038 1640 l 6
 1098 1633 1122 1661 1122 1706 c 5
 1282 1706 l 5
 1282 1382 l 5
 1100 1382 l 5
 598 1442 l 6
EndSplineSet
EndChar

StartChar: Adieresis
Encoding: 196 196 114
GlifName: A_dieresis
Width: 1700
Flags: HW
HStem: 0 404<100 318 491 672 768 856 1489 1600> 520 142<554 774> 1260 40G<354 1158>
VStem: 100 572<0 404>
LayerCount: 2
Fore
SplineSet
774 1376 m 5
 354 1376 l 5
 354 1700 l 5
 774 1700 l 5
 774 1376 l 5
862 1706 m 5
 1282 1706 l 5
 1282 1382 l 5
 862 1382 l 5
 862 1706 l 5
354 1300 m 1
 1142 1300 l 1
 1476 476 l 2
 1496 426 1518 404 1554 404 c 2
 1600 404 l 1
 1600 0 l 1
 768 0 l 1
 768 404 l 1
 820 404 l 2
 856 404 865 441 848 482 c 2
 832 520 l 1
 507 520 l 1
 498 492 l 2
 485 451 490 404 529 404 c 2
 672 404 l 1
 672 0 l 1
 100 0 l 1
 100 404 l 1
 249 404 l 2
 298 404 325 448 342 498 c 2
 460 834 l 2
 472 868 456 896 419 896 c 2
 354 896 l 1
 354 1300 l 1
774 662 m 1
 678 896 l 1
 631 896 l 1
 554 662 l 1
 774 662 l 1
EndSplineSet
EndChar

StartChar: Aring
Encoding: 197 197 115
GlifName: A_ring
Width: 1700
Flags: HW
HStem: 0 404<100 318 491 672 768 856 1489 1600> 520 142<554 774> 1260 40G<354 1158>
VStem: 100 572<0 404>
LayerCount: 2
Fore
SplineSet
698 1552 m 4
 698 1518 725 1500 776 1500 c 4
 827 1500 854 1518 854 1552 c 4
 854 1586 827 1604 776 1604 c 4
 725 1604 698 1586 698 1552 c 4
412 1552 m 4
 412 1680 554 1760 776 1760 c 4
 998 1760 1140 1680 1140 1552 c 4
 1140 1424 998 1344 776 1344 c 4
 554 1344 412 1424 412 1552 c 4
354 1300 m 1
 1142 1300 l 1
 1476 476 l 2
 1496 424 1518 404 1554 404 c 2
 1600 404 l 1
 1600 0 l 1
 768 0 l 1
 768 404 l 1
 820 404 l 2
 854 404 866 438 848 482 c 2
 832 520 l 1
 506 520 l 1
 498 492 l 2
 482 442 494 404 528 404 c 2
 672 404 l 1
 672 0 l 1
 100 0 l 1
 100 404 l 1
 250 404 l 2
 290 404 320 434 342 498 c 2
 460 834 l 2
 472 870 456 896 420 896 c 2
 354 896 l 1
 354 1300 l 1
774 662 m 1
 678 896 l 1
 630 896 l 1
 554 662 l 1
 774 662 l 1
EndSplineSet
EndChar

StartChar: AE
Encoding: 198 198 116
GlifName: A_E_
Width: 1972
Flags: HW
LayerCount: 2
Fore
SplineSet
868 662 m 1
 868 896 l 1
 820 896 l 1
 648 662 l 1
 868 662 l 1
1418 24 m 0
 1664 24 1749 206 1782 584 c 1
 1804 584 l 1
 1804 218 1852 48 1962 24 c 1
 1962 0 l 1
 768 0 l 1
 768 404 l 1
 820 404 l 2
 852 404 868 426 868 450 c 2
 868 520 l 1
 552 520 l 1
 538 492 l 2
 504 424 540 404 568 404 c 2
 672 404 l 1
 672 0 l 1
 100 0 l 1
 100 404 l 1
 244 404 l 2
 313 404 336 436 376 498 c 2
 590 834 l 1
 602 868 586 896 550 896 c 2
 450 896 l 1
 450 1300 l 1
 1922 1300 l 1
 1922 1276 l 1
 1832 1252 1796 1124 1796 836 c 1
 1774 836 l 1
 1741 1148 1669 1276 1416 1276 c 0
 1345 1276 1265 1268 1210 1256 c 1
 1210 720 l 1
 1298 720 l 2
 1433 720 1542 778 1578 1056 c 1
 1600 1056 l 1
 1558 808 1548 728 1548 524 c 2
 1548 302 l 1
 1526 302 l 1
 1524 574 1415 692 1298 692 c 2
 1210 692 l 1
 1210 44 l 1
 1270 32 1354 24 1418 24 c 0
EndSplineSet
EndChar

StartChar: agrave
Encoding: 224 224 117
GlifName: agrave
Width: 1608
Flags: HW
HStem: -28 306<1194 1448> -28 284<341 725> 616 114<599 680> 894 134<603 750>
VStem: 82 542<161 383> 784 580<279 426 596 794> 1468 140<290 480>
LayerCount: 2
Fore
SplineSet
474 1442 m 5
 1018 1342 l 5
 1018 1118 l 5
 858 1118 l 5
 858 1163 831 1184 774 1184 c 6
 474 1184 l 5
 474 1442 l 5
1364 324 m 2x7e
 1364 295 1377 278 1400 278 c 0
 1445 278 1468 324 1468 480 c 1
 1608 480 l 1
 1608 95 1515 -28 1227 -28 c 0xbe
 1050 -28 925 42 876 170 c 1
 856 170 l 1
 773 35 647 -28 460 -28 c 0
 222 -28 82 75 82 250 c 0
 82 411 212 528 652 560 c 0
 752 567 784 616 784 710 c 2
 784 734 l 2
 784 833 741 894 671 894 c 0
 621 894 590 867 590 825 c 0
 590 779 625 750 680 750 c 1
 680 636 l 1
 82 636 l 1
 82 911 263 1028 685 1028 c 0
 1126 1028 1364 890 1364 634 c 2
 1364 324 l 2x7e
784 426 m 1
 712 426 l 2
 659 426 624 390 624 337 c 0
 624 288 654 256 698 256 c 0x7e
 752 256 784 304 784 386 c 2
 784 426 l 1
EndSplineSet
EndChar

StartChar: aacute
Encoding: 225 225 118
GlifName: aacute
Width: 1608
Flags: HW
HStem: -28 306<1194 1448> -28 284<341 725> 616 114<599 680> 894 134<603 750>
VStem: 82 542<161 383> 784 580<279 426 596 794> 1468 140<290 480>
LayerCount: 2
Fore
SplineSet
1058 1442 m 5
 1058 1184 l 5
 758 1184 l 6
 701 1184 674 1163 674 1118 c 5
 514 1118 l 5
 514 1342 l 5
 1058 1442 l 5
1364 324 m 2x7e
 1364 295 1377 278 1400 278 c 0
 1445 278 1468 324 1468 480 c 1
 1608 480 l 1
 1608 95 1515 -28 1227 -28 c 0xbe
 1050 -28 925 42 876 170 c 1
 856 170 l 1
 773 35 647 -28 460 -28 c 0
 222 -28 82 75 82 250 c 0
 82 411 212 528 652 560 c 0
 752 567 784 616 784 710 c 2
 784 734 l 2
 784 833 741 894 671 894 c 0
 621 894 590 867 590 825 c 0
 590 779 625 750 680 750 c 1
 680 636 l 1
 82 636 l 1
 82 911 263 1028 685 1028 c 0
 1126 1028 1364 890 1364 634 c 2
 1364 324 l 2x7e
784 426 m 1
 712 426 l 2
 659 426 624 390 624 337 c 0
 624 288 654 256 698 256 c 0x7e
 752 256 784 304 784 386 c 2
 784 426 l 1
EndSplineSet
EndChar

StartChar: acircumflex
Encoding: 226 226 119
GlifName: acircumflex
Width: 1608
Flags: HW
HStem: -28 306<1194 1448> -28 284<341 725> 616 114<599 680> 894 134<603 750>
VStem: 82 542<161 383> 784 580<279 426 596 794> 1468 140<290 480>
LayerCount: 2
Fore
SplineSet
978 1184 m 6
 538 1184 l 6
 481 1184 454 1163 454 1118 c 5
 294 1118 l 5
 294 1342 l 5
 758 1442 l 5
 1222 1342 l 5
 1222 1118 l 5
 1062 1118 l 5
 1062 1163 1035 1184 978 1184 c 6
1364 324 m 2x7e
 1364 295 1377 278 1400 278 c 0
 1445 278 1468 324 1468 480 c 1
 1608 480 l 1
 1608 95 1515 -28 1227 -28 c 0xbe
 1050 -28 925 42 876 170 c 1
 856 170 l 1
 773 35 647 -28 460 -28 c 0
 222 -28 82 75 82 250 c 0
 82 411 212 530 652 560 c 0
 752 567 784 616 784 710 c 2
 784 734 l 2
 784 833 741 894 671 894 c 0
 621 894 590 867 590 825 c 0
 590 779 625 750 680 750 c 1
 680 636 l 1
 82 636 l 1
 82 911 263 1028 685 1028 c 0
 1126 1028 1364 890 1364 634 c 2
 1364 324 l 2x7e
784 426 m 1
 712 426 l 2
 659 426 624 390 624 337 c 0
 624 288 654 256 698 256 c 0x7e
 752 256 784 304 784 386 c 2
 784 426 l 1
EndSplineSet
EndChar

StartChar: atilde
Encoding: 227 227 120
GlifName: atilde
Width: 1608
Flags: HW
HStem: -28 306<1194 1448> -28 284<341 725> 616 114<599 680> 894 134<603 750>
VStem: 82 542<161 383> 784 580<279 426 596 794> 1468 140<290 480>
LayerCount: 2
Fore
SplineSet
538 1178 m 6
 485 1184 454 1157 454 1112 c 5
 294 1112 l 5
 294 1436 l 5
 476 1436 l 5
 978 1376 l 6
 1038 1369 1062 1397 1062 1442 c 5
 1222 1442 l 5
 1222 1118 l 5
 1040 1118 l 5
 538 1178 l 6
1364 324 m 2x7e
 1364 295 1377 278 1400 278 c 0
 1445 278 1468 324 1468 480 c 1
 1608 480 l 1
 1608 95 1515 -28 1227 -28 c 0xbe
 1050 -28 925 42 876 170 c 1
 856 170 l 1
 773 35 647 -28 460 -28 c 0
 222 -28 82 75 82 250 c 0
 82 411 212 528 652 560 c 0
 752 567 784 616 784 710 c 2
 784 734 l 2
 784 833 741 894 671 894 c 0
 621 894 590 867 590 825 c 0
 590 779 625 750 680 750 c 1
 680 636 l 1
 82 636 l 1
 82 911 263 1028 685 1028 c 0
 1126 1028 1364 890 1364 634 c 2
 1364 324 l 2x7e
784 426 m 1
 712 426 l 2
 659 426 624 390 624 337 c 0
 624 288 654 256 698 256 c 0x7e
 752 256 784 304 784 386 c 2
 784 426 l 1
EndSplineSet
EndChar

StartChar: adieresis
Encoding: 228 228 121
GlifName: adieresis
Width: 1608
Flags: HW
HStem: -28 306<1194 1448> -28 284<341 725> 616 114<599 680> 894 134<603 750>
VStem: 82 542<161 383> 784 580<279 426 596 794> 1468 140<290 480>
LayerCount: 2
Fore
SplineSet
674 1112 m 5
 254 1112 l 5
 254 1436 l 5
 674 1436 l 5
 674 1112 l 5
762 1442 m 5
 1182 1442 l 5
 1182 1118 l 5
 762 1118 l 5
 762 1442 l 5
1364 324 m 2x7e
 1364 295 1377 278 1400 278 c 0
 1445 278 1468 324 1468 480 c 1
 1608 480 l 1
 1608 95 1515 -28 1227 -28 c 0xbe
 1050 -28 925 42 876 170 c 1
 856 170 l 1
 773 35 647 -28 460 -28 c 0
 222 -28 82 75 82 250 c 0
 82 411 212 528 652 560 c 0
 752 567 784 616 784 710 c 2
 784 734 l 2
 784 833 741 894 671 894 c 0
 621 894 590 867 590 825 c 0
 590 779 625 750 680 750 c 1
 680 636 l 1
 82 636 l 1
 82 911 263 1028 685 1028 c 0
 1126 1028 1364 890 1364 634 c 2
 1364 324 l 2x7e
784 426 m 1
 712 426 l 2
 659 426 624 390 624 337 c 0
 624 288 654 256 698 256 c 0x7e
 752 256 784 304 784 386 c 2
 784 426 l 1
EndSplineSet
EndChar

StartChar: aring
Encoding: 229 229 122
GlifName: aring
Width: 1608
Flags: HW
HStem: -28 306<1194 1448> -28 284<341 725> 616 114<599 680> 894 134<603 750>
VStem: 82 542<161 383> 784 580<279 426 596 794> 1468 140<290 480>
LayerCount: 2
Fore
SplineSet
678 1292 m 4
 678 1258 705 1240 756 1240 c 4
 807 1240 834 1258 834 1292 c 4
 834 1326 807 1344 756 1344 c 4
 705 1344 678 1326 678 1292 c 4
392 1292 m 4
 392 1420 534 1500 756 1500 c 4
 978 1500 1120 1420 1120 1292 c 4
 1120 1164 978 1084 756 1084 c 4
 534 1084 392 1164 392 1292 c 4
1364 324 m 2x7e
 1364 295 1377 278 1400 278 c 0
 1445 278 1468 324 1468 480 c 1
 1608 480 l 1
 1608 95 1515 -28 1227 -28 c 0xbe
 1050 -28 925 42 876 170 c 1
 856 170 l 1
 773 35 647 -28 460 -28 c 0
 222 -28 82 75 82 250 c 0
 82 411 212 530 652 560 c 0
 752 567 784 616 784 710 c 2
 784 734 l 2
 784 833 741 894 671 894 c 0
 621 894 590 867 590 825 c 0
 590 779 625 750 680 750 c 1
 680 636 l 1
 82 636 l 1
 82 911 263 1028 685 1028 c 0
 1126 1028 1364 890 1364 634 c 2
 1364 324 l 2x7e
784 426 m 1
 712 426 l 2
 659 426 624 390 624 337 c 0
 624 288 654 256 698 256 c 0x7e
 752 256 784 304 784 386 c 2
 784 426 l 1
EndSplineSet
EndChar

StartChar: ae
Encoding: 230 230 123
GlifName: ae
Width: 2040
Flags: HW
LayerCount: 2
Fore
SplineSet
784 426 m 1
 712 426 l 2
 658 426 624 392 624 338 c 0
 624 290 654 256 698 256 c 0
 752 256 784 304 784 386 c 2
 784 426 l 1
1976 498 m 1
 2000 496 l 1
 2000 146 1746 -30 1382 -30 c 0
 1129 -30 948 41 876 170 c 1
 856 170 l 1
 772 34 646 -28 460 -28 c 0
 222 -28 82 74 82 250 c 0
 82 412 212 525 652 560 c 0
 752 568 784 616 784 710 c 2
 784 734 l 2
 784 832 740 894 670 894 c 0
 620 894 590 866 590 824 c 0
 590 778 626 750 680 750 c 1
 680 636 l 1
 82 636 l 1
 82 910 262 1028 684 1028 c 0
 952 1028 1132 958 1214 825 c 1
 1296 949 1430 1022 1594 1022 c 0
 1784 1022 1918 922 1918 780 c 0
 1918 716 1890 672 1828 646 c 1
 1990 646 l 1
 1990 622 l 1
 1364 622 l 1
 1374 346 1496 190 1702 190 c 0
 1884 190 1972 290 1976 498 c 1
1364 646 m 1
 1506 646 l 2
 1618 646 1672 698 1672 806 c 0
 1672 914 1616 988 1532 988 c 0
 1424 988 1364 874 1364 662 c 0
 1364 656 1364 652 1364 646 c 1
EndSplineSet
EndChar

StartChar: Ccedilla
Encoding: 199 199 124
GlifName: C_cedilla
Width: 1272
Flags: HW
HStem: 0 160<543 1042> 284 168<616 1042> 684 160<942 1042> 848 168<602 782> 1140 160<531 1042>
VStem: 70 160<456 869> 362 168<537 781> 1042 160<160 284 844 1140>
LayerCount: 2
Fore
SplineSet
774 0 m 1
 357 0 70 270 70 662 c 0
 70 1054 341 1300 774 1300 c 2
 1202 1300 l 1
 1202 684 l 1
 782 684 l 1
 782 848 l 1
 754 848 l 2
 616 848 530 777 530 662 c 0
 530 541 625 452 754 452 c 2
 1202 452 l 1
 1202 0 l 1
 1042 0 l 1
 1042 284 l 1
 750 284 l 2
 534 284 362 451 362 662 c 0
 362 870 522 1016 750 1016 c 2
 942 1016 l 1
 942 844 l 1
 1042 844 l 1
 1042 1140 l 1
 778 1140 l 2
 442 1140 230 955 230 662 c 0
 230 364 451 160 774 160 c 1
 774 0 l 1
928 -400 m 5
 532 -400 l 5
 532 -240 l 5
 676 160 l 5
 830 160 l 5
 692 -240 l 5
 822 -240 l 5
 956 160 l 5
 1116 160 l 5
 928 -400 l 5
EndSplineSet
EndChar

StartChar: ccedilla
Encoding: 231 231 125
GlifName: ccedilla
Width: 1076
Flags: HW
HStem: 0 160<417 846> 284 168<531 846> 494 140<746 846> 548 168<534 620> 840 160<413 846>
VStem: 70 160<333 673> 362 168<456 544> 846 160<160 284 634 840>
LayerCount: 2
Fore
SplineSet
766 -400 m 1
 370 -400 l 1
 370 -240 l 1
 514 160 l 1
 668 160 l 1
 530 -240 l 1
 660 -240 l 1
 794 160 l 1
 954 160 l 1
 766 -400 l 1
612 0 m 1
 291 0 70 204 70 502 c 0
 70 808 279 1000 612 1000 c 2
 1006 1000 l 1xdf
 1006 494 l 1
 620 494 l 1xef
 620 548 l 1
 592 548 l 2
 554 548 530 530 530 502 c 0
 530 473 556 452 592 452 c 2
 1006 452 l 1
 1006 0 l 1
 846 0 l 1
 846 284 l 1
 588 284 l 2
 462 284 362 380 362 502 c 0
 362 628 455 716 588 716 c 2
 746 716 l 1xdf
 746 634 l 1
 846 634 l 1
 846 840 l 1
 616 840 l 2
 379 840 230 709 230 502 c 0
 230 299 385 160 612 160 c 1
 612 0 l 1
EndSplineSet
EndChar

StartChar: Egrave
Encoding: 200 200 126
GlifName: E_grave
Width: 1336
Flags: HW
HStem: 0 24<40 153 558 817 1297 1326> 692 28<514 683> 1276 24<40 153 555 841 1258 1286>
VStem: 234 280<58 692 720 1242> 890 22<302 418> 942 22<1006 1056> 1146 22<502 584 836 849>
LayerCount: 2
Fore
SplineSet
552 1708 m 6
 974 1392 l 5
 968 1374 l 5
 456 1508 l 6
 387 1527 342 1570 342 1626 c 4
 342 1686 387 1740 456 1740 c 4
 493 1740 525 1728 552 1708 c 6
702 24 m 0
 982 24 1102 176 1146 584 c 1
 1168 584 l 1
 1168 218 1216 48 1326 24 c 1
 1326 0 l 1
 40 0 l 1
 40 24 l 1
 204 24 234 58 234 236 c 2
 234 1064 l 2
 234 1242 204 1276 40 1276 c 1
 40 1300 l 1
 1286 1300 l 1
 1286 1276 l 1
 1196 1252 1160 1124 1160 836 c 1
 1138 836 l 1
 1094 1170 990 1276 700 1276 c 0
 636 1276 564 1268 514 1256 c 1
 514 720 l 1
 602 720 l 2
 804 720 904 820 942 1056 c 1
 964 1056 l 1
 920 796 912 720 912 524 c 2
 912 302 l 1
 890 302 l 1
 890 540 776 692 602 692 c 2
 514 692 l 1
 514 44 l 1
 568 32 644 24 702 24 c 0
EndSplineSet
EndChar

StartChar: Eacute
Encoding: 201 201 127
GlifName: E_acute
Width: 1336
Flags: HW
HStem: 0 24<40 153 558 817 1297 1326> 692 28<514 683> 1276 24<40 153 555 841 1258 1286>
VStem: 234 280<58 692 720 1242> 890 22<302 418> 942 22<1006 1056> 1146 22<502 584 836 849>
LayerCount: 2
Fore
SplineSet
844 1708 m 2
 871 1728 903 1740 940 1740 c 4
 1009 1740 1054 1686 1054 1626 c 0
 1054 1570 1009 1527 940 1508 c 2
 428 1374 l 1
 422 1392 l 1
 844 1708 l 2
702 24 m 0
 1002 24 1106 206 1146 584 c 1
 1168 584 l 1
 1168 218 1216 49 1326 24 c 1
 1326 0 l 1
 40 0 l 1
 40 24 l 1
 203 24 234 58 234 236 c 2
 234 1064 l 2
 234 1242 203 1276 40 1276 c 1
 40 1300 l 1
 1286 1300 l 1
 1286 1276 l 1
 1196 1252 1160 1125 1160 836 c 1
 1138 836 l 1
 1098 1147 1010 1276 700 1276 c 0
 636 1276 564 1268 514 1256 c 1
 514 720 l 1
 602 720 l 2
 765 720 898 778 942 1056 c 1
 964 1056 l 1
 921 807 912 727 912 524 c 2
 912 302 l 1
 890 302 l 1
 889 574 750 692 602 692 c 2
 514 692 l 1
 514 44 l 1
 568 32 644 24 702 24 c 0
EndSplineSet
EndChar

StartChar: Ecircumflex
Encoding: 202 202 128
GlifName: E_circumflex
Width: 1336
Flags: HW
HStem: 0 24<40 153 558 817 1297 1326> 692 28<514 683> 1276 24<40 153 555 841 1258 1286>
VStem: 234 280<58 692 720 1242> 890 22<302 418> 942 22<1006 1056> 1146 22<502 584 836 849>
LayerCount: 2
Fore
SplineSet
702 24 m 0
 1002 24 1106 206 1146 584 c 1
 1168 584 l 1
 1168 218 1216 49 1326 24 c 1
 1326 0 l 1
 40 0 l 1
 40 24 l 1
 203 24 234 58 234 236 c 2
 234 1064 l 2
 234 1242 203 1276 40 1276 c 1
 40 1300 l 1
 1286 1300 l 1
 1286 1276 l 1
 1196 1252 1160 1125 1160 836 c 1
 1138 836 l 1
 1098 1147 1010 1276 700 1276 c 0
 636 1276 564 1268 514 1256 c 1
 514 720 l 1
 602 720 l 2
 765 720 898 778 942 1056 c 1
 964 1056 l 1
 921 807 912 727 912 524 c 2
 912 302 l 1
 890 302 l 1
 889 574 750 692 602 692 c 2
 514 692 l 1
 514 44 l 1
 568 32 644 24 702 24 c 0
676 1740 m 5
 240 1386 l 5
 244 1370 l 5
 676 1506 l 5
 1108 1370 l 5
 1112 1386 l 5
 676 1740 l 5
EndSplineSet
EndChar

StartChar: Edieresis
Encoding: 203 203 129
GlifName: E_dieresis
Width: 1336
Flags: HW
HStem: 0 24<40 153 558 817 1297 1326> 692 28<514 683> 1276 24<40 153 555 841 1258 1286>
VStem: 234 280<58 692 720 1242> 890 22<302 418> 942 22<1006 1056> 1146 22<502 584 836 849>
LayerCount: 2
Fore
SplineSet
232 1370 m 5
 248 1370 l 5
 268 1463 358 1500 449 1500 c 4
 638 1500 701 1364 890 1364 c 4
 1019 1364 1092 1479 1112 1712 c 5
 1098 1712 l 5
 1072 1585 1020 1550 935 1550 c 4
 797 1550 677 1700 495 1700 c 4
 357 1700 262 1580 232 1370 c 5
702 24 m 0
 1002 24 1106 206 1146 584 c 1
 1168 584 l 1
 1168 218 1216 49 1326 24 c 1
 1326 0 l 1
 40 0 l 1
 40 24 l 1
 203 24 234 58 234 236 c 2
 234 1064 l 2
 234 1242 203 1276 40 1276 c 1
 40 1300 l 1
 1286 1300 l 1
 1286 1276 l 1
 1196 1252 1160 1125 1160 836 c 1
 1138 836 l 1
 1098 1147 1010 1276 700 1276 c 0
 636 1276 564 1268 514 1256 c 1
 514 720 l 1
 602 720 l 2
 765 720 898 778 942 1056 c 1
 964 1056 l 1
 921 807 912 727 912 524 c 2
 912 302 l 1
 890 302 l 1
 889 574 750 692 602 692 c 2
 514 692 l 1
 514 44 l 1
 568 32 644 24 702 24 c 0
EndSplineSet
EndChar

StartChar: egrave
Encoding: 232 232 130
GlifName: egrave
Width: 976
Flags: HW
HStem: -24 220<479 695> 628 24<301 519 763 926> 994 34<404 626>
VStem: 60 240<406 628 652 734> 608 246<689 912> 912 24<404 502>
LayerCount: 2
Fore
SplineSet
448 1422 m 6
 730 1086 l 5
 722 1074 l 5
 352 1222 l 6
 276 1253 247 1301 247 1347 c 4
 247 1410 301 1467 362 1467 c 4
 391 1467 421 1454 448 1422 c 6
300 652 m 1
 442 652 l 2
 554 652 608 704 608 812 c 0
 608 920 551 994 467 994 c 0
 358 994 300 880 300 668 c 0
 300 662 300 657 300 652 c 1
912 504 m 1
 936 502 l 1
 936 192 764 -24 518 -24 c 0
 248 -24 60 192 60 502 c 0
 60 815 251 1028 530 1028 c 0
 721 1028 854 928 854 786 c 0
 854 723 824 679 763 652 c 1
 926 652 l 1
 926 628 l 1
 301 628 l 1
 312 352 432 196 637 196 c 0
 819 196 908 296 912 504 c 1
EndSplineSet
EndChar

StartChar: eacute
Encoding: 233 233 131
GlifName: eacute
Width: 976
Flags: HW
HStem: -24 220<479 695> 628 24<301 519 763 926> 994 34<404 626>
VStem: 60 240<406 628 652 734> 608 246<689 912> 912 24<404 502>
LayerCount: 2
Fore
SplineSet
615 1422 m 2
 642 1454 672 1467 701 1467 c 0
 762 1467 816 1410 816 1347 c 0
 816 1301 787 1253 711 1222 c 2
 341 1074 l 1
 333 1086 l 1
 615 1422 l 2
300 652 m 1
 442 652 l 2
 554 652 608 704 608 812 c 0
 608 920 551 994 467 994 c 0
 358 994 300 880 300 668 c 0
 300 662 300 657 300 652 c 1
912 504 m 1
 936 502 l 1
 936 192 764 -24 518 -24 c 0
 248 -24 60 192 60 502 c 0
 60 815 251 1028 530 1028 c 0
 721 1028 854 928 854 786 c 0
 854 723 824 679 763 652 c 1
 926 652 l 1
 926 628 l 1
 301 628 l 1
 312 352 432 196 637 196 c 0
 819 196 908 296 912 504 c 1
EndSplineSet
EndChar

StartChar: ecircumflex
Encoding: 234 234 132
GlifName: ecircumflex
Width: 976
Flags: HW
HStem: -24 220<479 695> 628 24<301 519 763 926> 994 34<404 626>
VStem: 60 240<406 628 652 734> 608 246<689 912> 912 24<404 502>
LayerCount: 2
Fore
SplineSet
516 1482 m 5
 180 1088 l 1
 190 1078 l 1
 516 1228 l 1
 842 1078 l 1
 852 1088 l 1
 516 1482 l 5
300 652 m 1
 442 652 l 2
 554 652 608 704 608 812 c 0
 608 920 551 994 467 994 c 0
 358 994 300 880 300 668 c 0
 300 662 300 657 300 652 c 1
912 504 m 1
 936 502 l 1
 936 192 764 -24 518 -24 c 0
 248 -24 60 192 60 502 c 0
 60 815 251 1028 530 1028 c 0
 721 1028 854 928 854 786 c 0
 854 723 824 679 763 652 c 1
 926 652 l 1
 926 628 l 1
 301 628 l 1
 312 352 432 196 637 196 c 0
 819 196 908 296 912 504 c 1
EndSplineSet
EndChar

StartChar: edieresis
Encoding: 235 235 133
GlifName: edieresis
Width: 976
Flags: HW
HStem: -24 220<479 695> 628 24<301 519 763 926> 994 34<404 626>
VStem: 60 240<406 628 652 734> 608 246<689 912> 912 24<404 502>
LayerCount: 2
Fore
SplineSet
132 1092 m 1
 148 1092 l 1
 166 1185 247 1222 329 1222 c 0
 484 1222 535 1106 690 1106 c 0
 808 1106 874 1221 892 1454 c 1
 878 1454 l 1
 855 1343 810 1312 735 1312 c 0
 622 1312 524 1442 375 1442 c 0
 248 1442 159 1315 132 1092 c 1
300 652 m 1
 442 652 l 2
 554 652 608 704 608 812 c 0
 608 920 551 994 467 994 c 0
 358 994 300 880 300 668 c 0
 300 662 300 657 300 652 c 1
912 504 m 1
 936 502 l 1
 936 192 764 -24 518 -24 c 0
 248 -24 60 192 60 502 c 0
 60 815 251 1028 530 1028 c 0
 721 1028 854 928 854 786 c 0
 854 723 824 679 763 652 c 1
 926 652 l 1
 926 628 l 1
 301 628 l 1
 312 352 432 196 637 196 c 0
 819 196 908 296 912 504 c 1
EndSplineSet
EndChar

StartChar: Igrave
Encoding: 204 204 134
GlifName: I_grave
Width: 1140
Flags: HW
HStem: 0 620<30 350 790 1110> 0 280<350 510 630 790> 680 620<30 350 790 1110> 1020 280<350 510 630 790>
VStem: 30 320<280 620 680 1020> 410 320<340 960> 510 120<280 340 960 1020> 790 320<280 620 680 1020>
LayerCount: 2
Fore
SplineSet
216 1700 m 5xf4
 924 1580 l 5
 924 1360 l 5
 216 1360 l 5
 216 1700 l 5xf4
30 1300 m 1x2b
 1110 1300 l 1
 1110 680 l 1
 790 680 l 1x2b
 790 1020 l 1
 630 1020 l 1
 630 960 l 1x1b
 730 960 l 1
 730 340 l 1x1d
 630 340 l 1
 630 280 l 1
 790 280 l 1x5b
 790 620 l 1
 1110 620 l 1
 1110 0 l 1
 30 0 l 1
 30 620 l 1
 350 620 l 1x8b
 350 280 l 1
 510 280 l 1
 510 340 l 1x4b
 410 340 l 1
 410 960 l 1x4d
 510 960 l 1
 510 1020 l 1
 350 1020 l 1x5b
 350 680 l 1
 30 680 l 1
 30 1300 l 1x2b
EndSplineSet
EndChar

StartChar: Iacute
Encoding: 205 205 135
GlifName: I_acute
Width: 1140
Flags: HW
HStem: 0 620<30 350 790 1110> 0 280<350 510 630 790> 680 620<30 350 790 1110> 1020 280<350 510 630 790>
VStem: 30 320<280 620 680 1020> 410 320<340 960> 510 120<280 340 960 1020> 790 320<280 620 680 1020>
LayerCount: 2
Fore
SplineSet
924 1700 m 5xf4
 924 1360 l 5
 216 1360 l 5
 216 1580 l 5
 924 1700 l 5xf4
30 1300 m 1x2b
 1110 1300 l 1
 1110 680 l 1
 790 680 l 1x2b
 790 1020 l 1
 630 1020 l 1
 630 960 l 1x1b
 730 960 l 1
 730 340 l 1x1d
 630 340 l 1
 630 280 l 1
 790 280 l 1x5b
 790 620 l 1
 1110 620 l 1
 1110 0 l 1
 30 0 l 1
 30 620 l 1
 350 620 l 1x8b
 350 280 l 1
 510 280 l 1
 510 340 l 1x4b
 410 340 l 1
 410 960 l 1x4d
 510 960 l 1
 510 1020 l 1
 350 1020 l 1x5b
 350 680 l 1
 30 680 l 1
 30 1300 l 1x2b
EndSplineSet
EndChar

StartChar: Icircumflex
Encoding: 206 206 136
GlifName: I_circumflex
Width: 1140
Flags: HW
HStem: 0 620<30 350 790 1110> 0 280<350 510 630 790> 680 620<30 350 790 1110> 1020 280<350 510 630 790>
VStem: 30 320<280 620 680 1020> 410 320<340 960> 510 120<280 340 960 1020> 790 320<280 620 680 1020>
LayerCount: 2
Fore
SplineSet
30 1300 m 1
 1110 1300 l 1
 1110 680 l 1
 790 680 l 1
 790 1020 l 1
 630 1020 l 1
 630 960 l 1
 730 960 l 1
 730 340 l 1
 630 340 l 1
 630 280 l 1
 790 280 l 1
 790 620 l 1
 1110 620 l 1
 1110 0 l 1
 30 0 l 1
 30 620 l 1
 350 620 l 1
 350 280 l 1
 510 280 l 1
 510 340 l 1
 410 340 l 1
 410 960 l 1
 510 960 l 1
 510 1020 l 1
 350 1020 l 1
 350 680 l 1
 30 680 l 1
 30 1300 l 1
216 1360 m 5
 216 1580 l 5
 570 1700 l 5
 924 1580 l 5
 924 1360 l 5
 216 1360 l 5
EndSplineSet
EndChar

StartChar: Idieresis
Encoding: 207 207 137
GlifName: I_dieresis
Width: 1140
Flags: HW
HStem: 0 620<30 350 790 1110> 0 280<350 510 630 790> 680 620<30 350 790 1110> 1020 280<350 510 630 790>
VStem: 30 320<280 620 680 1020> 410 320<340 960> 510 120<280 340 960 1020> 790 320<280 620 680 1020>
LayerCount: 2
Fore
SplineSet
30 1300 m 1x2b
 1110 1300 l 1
 1110 680 l 1
 790 680 l 1x2b
 790 1020 l 1
 630 1020 l 1
 630 960 l 1x1b
 730 960 l 1
 730 340 l 1x1d
 630 340 l 1
 630 280 l 1
 790 280 l 1x5b
 790 620 l 1
 1110 620 l 1
 1110 0 l 1
 30 0 l 1
 30 620 l 1
 350 620 l 1x8b
 350 280 l 1
 510 280 l 1
 510 340 l 1x4b
 410 340 l 1
 410 960 l 1x4d
 510 960 l 1
 510 1020 l 1
 350 1020 l 1x5b
 350 680 l 1
 30 680 l 1
 30 1300 l 1x2b
600 1640 m 5
 924 1640 l 5
 924 1360 l 5
 600 1360 l 5
 600 1640 l 5
540 1640 m 5
 540 1360 l 5
 216 1360 l 5
 216 1640 l 5
 540 1640 l 5
EndSplineSet
EndChar

StartChar: igrave
Encoding: 236 236 138
GlifName: igrave
Width: 766
Flags: HW
HStem: 0 600<30 230 408 728> 660 280<30 230 350 728> 1000 300<30 736>
VStem: 30 320<280 600> 230 120<600 660> 408 320<280 600>
LayerCount: 2
Fore
SplineSet
30 1340 m 1xf4
 736 1220 l 1
 736 1000 l 1
 30 1000 l 1
 30 1340 l 1xf4
728 660 m 1
 350 660 l 1xec
 350 280 l 1
 408 280 l 1
 408 600 l 1
 728 600 l 1
 728 0 l 1
 30 0 l 1
 30 600 l 1xf4
 230 600 l 1
 230 660 l 1xec
 30 660 l 1
 30 940 l 1
 728 940 l 1
 728 660 l 1
EndSplineSet
EndChar

StartChar: iacute
Encoding: 237 237 139
GlifName: iacute
Width: 766
Flags: HW
HStem: 0 600<30 230 408 728> 660 280<30 230 350 728> 1000 300<30 736>
VStem: 30 320<280 600> 230 120<600 660> 408 320<280 600>
LayerCount: 2
Fore
SplineSet
736 1340 m 5xf4
 736 1000 l 5
 30 1000 l 1
 30 1220 l 1
 736 1340 l 5xf4
728 660 m 1
 350 660 l 1xec
 350 280 l 1
 408 280 l 1
 408 600 l 1
 728 600 l 1
 728 0 l 1
 30 0 l 1
 30 600 l 1xf4
 230 600 l 1
 230 660 l 1xec
 30 660 l 1
 30 940 l 1
 728 940 l 1
 728 660 l 1
EndSplineSet
EndChar

StartChar: icircumflex
Encoding: 238 238 140
GlifName: icircumflex
Width: 766
Flags: HW
HStem: 0 600<30 230 408 728> 660 280<30 230 350 728> 1000 300<30 736>
VStem: 30 320<280 600> 230 120<600 660> 408 320<280 600>
LayerCount: 2
Fore
SplineSet
30 1000 m 5
 30 1220 l 5
 382 1340 l 1
 736 1220 l 1
 736 1000 l 1
 30 1000 l 5
728 660 m 1
 350 660 l 1xec
 350 280 l 1
 408 280 l 1
 408 600 l 1
 728 600 l 1
 728 0 l 1
 30 0 l 1
 30 600 l 1xf4
 230 600 l 1
 230 660 l 1xec
 30 660 l 1
 30 940 l 1
 728 940 l 1
 728 660 l 1
EndSplineSet
EndChar

StartChar: idieresis
Encoding: 239 239 141
GlifName: idieresis
Width: 766
Flags: HW
HStem: 0 600<30 230 408 728> 660 280<30 230 350 728> 1000 300<30 736>
VStem: 30 320<280 600> 230 120<600 660> 408 320<280 600>
LayerCount: 2
Fore
SplineSet
412 1300 m 5
 736 1300 l 5
 736 1000 l 1
 412 1000 l 1
 412 1300 l 5
352 1300 m 5
 352 1000 l 1
 30 1000 l 1
 30 1300 l 5
 352 1300 l 5
728 660 m 1
 350 660 l 1xec
 350 280 l 1
 408 280 l 1
 408 600 l 1
 728 600 l 1
 728 0 l 1
 30 0 l 1
 30 600 l 1xf4
 230 600 l 1
 230 660 l 1xec
 30 660 l 1
 30 940 l 1
 728 940 l 1
 728 660 l 1
EndSplineSet
EndChar

StartChar: Eth
Encoding: 208 208 142
GlifName: E_th
Width: 1408
Flags: HW
HStem: 0 100<168 268 288 388 408 508 528 628 648 748 768 868> 10 80<60 136 896 978 1024 1092> 38 24<1164 1190> 120 100<60 136 168 268 288 388 408 508 528 628 648 748 768 868 888 988 1008 1108 1140 1216> 240 100<288 388 408 508 528 628 1008 1108 1128 1228> 256 68<904 972 1264 1332> 276 28<802 832> 360 100<288 388 408 508 528 628 1008 1108 1128 1228 1252 1342> 396 28<922 952> 480 100<288 388 408 508 528 628 1008 1108 1128 1228 1248 1348> 600 100<288 388 408 508 528 628 1008 1108 1128 1228 1248 1348> 720 100<288 388 408 508 528 628 1008 1108 1128 1228 1248 1348> 840 100<288 388 408 508 528 628 1008 1108 1128 1228 1252 1342> 876 28<922 952> 960 100<288 388 408 508 528 628 1008 1108 1128 1228> 976 68<904 972 1264 1332> 996 28<802 832> 1080 100<60 136 168 268 288 388 408 508 528 628 648 748 768 868 888 988 1008 1108 1140 1216> 1200 100<168 268 288 388 408 508 528 628 648 748 768 868> 1210 80<60 136 896 978 1024 1092> 1238 24<1164 1190>
VStem: 60 76<12 88 132 208 1092 1168 1212 1288> 168 100<0 100 120 220 1080 1180 1200 1300> 288 100<0 100 120 220 240 340 360 460 480 580 600 700 720 820 840 940 960 1060 1080 1180 1200 1300> 408 100<0 100 120 220 240 340 360 460 480 580 600 700 720 820 840 940 960 1060 1080 1180 1200 1300> 528 100<0 100 120 220 240 340 360 460 480 580 600 700 720 820 840 940 960 1060 1080 1180 1200 1300> 648 100<0 100 120 220 1080 1180 1200 1300> 768 100<0 100 120 220 1080 1180 1200 1300> 802 30<276 304 996 1024> 888 100<120 220 1080 1180> 896 82<10 90 256 324 976 1044 1210 1290> 922 30<396 424 876 904> 1008 100<120 220 240 340 360 460 480 580 600 700 720 820 840 940 960 1060 1080 1180> 1024 68<16 84 1216 1284> 1128 100<132 208 240 340 360 460 480 580 600 700 720 820 840 940 960 1060 1092 1168> 1164 25<38 62 1238 1262> 1248 100<364 456 480 580 600 700 720 820 844 936> 1264 68<256 324 976 1044>
LayerCount: 2
Fore
SplineSet
804 542 m 1
 828 542 l 1
 828 518 l 1
 804 518 l 1
 804 542 l 1
778 688 m 1
 854 688 l 1
 854 612 l 1
 778 612 l 1
 778 688 l 1
804 782 m 1
 828 782 l 1
 828 758 l 1
 804 758 l 1
 804 782 l 1
686 542 m 1
 710 542 l 1
 710 518 l 1
 686 518 l 1
 686 542 l 1
86 542 m 1
 110 542 l 1
 110 518 l 1
 86 518 l 1
 86 542 l 1
204 544 m 1x107067e0
 232 544 l 1
 232 516 l 1
 204 516 l 1
 204 544 l 1x107067e0
660 688 m 1
 736 688 l 1
 736 612 l 1
 660 612 l 1
 660 688 l 1
686 782 m 1
 710 782 l 1
 710 758 l 1
 686 758 l 1
 686 782 l 1
60 688 m 1
 136 688 l 1
 136 612 l 1
 60 612 l 1
 60 688 l 1
86 782 m 1
 110 782 l 1
 110 758 l 1
 86 758 l 1
 86 782 l 1
168 700 m 1
 268 700 l 1
 268 600 l 1
 168 600 l 1
 168 700 l 1
204 784 m 1x107067e0
 232 784 l 1
 232 756 l 1
 204 756 l 1
 204 784 l 1x107067e0
802 304 m 5x127047e8
 832 304 l 5
 832 276 l 5
 802 276 l 5
 802 304 l 5x127047e8
802 1024 m 1x1070c7e8
 832 1024 l 1
 832 996 l 1
 802 996 l 1
 802 1024 l 1x1070c7e8
922 424 m 5x10f047e1
 952 424 l 5
 952 396 l 5
 922 396 l 5
 922 424 l 5x10f047e1
922 904 m 1x107447e1
 952 904 l 1
 952 876 l 1
 922 876 l 1
 922 904 l 1x107447e1
60 88 m 1
 136 88 l 1
 136 12 l 1
 60 12 l 1
 60 88 l 1
60 208 m 1
 136 208 l 1
 136 132 l 1
 60 132 l 1
 60 208 l 1
60 1168 m 1
 136 1168 l 1
 136 1092 l 1
 60 1092 l 1
 60 1168 l 1
60 1288 m 1
 136 1288 l 1
 136 1212 l 1
 60 1212 l 1
 60 1288 l 1
904 324 m 5x147047e0
 972 324 l 5
 972 256 l 5
 904 256 l 5
 904 324 l 5x147047e0
904 1044 m 1x107147e0
 972 1044 l 1
 972 976 l 1
 904 976 l 1
 904 1044 l 1x107147e0
1164 62 m 5x307047e010
 1190 62 l 5
 1190 38 l 5
 1164 38 l 5
 1164 62 l 5x307047e010
1140 208 m 5
 1216 208 l 5
 1216 132 l 5
 1140 132 l 5
 1140 208 l 5
1140 1168 m 1
 1216 1168 l 1
 1216 1092 l 1
 1140 1092 l 1
 1140 1168 l 1
1164 1262 m 1x10704fe010
 1190 1262 l 1
 1190 1238 l 1
 1164 1238 l 1
 1164 1262 l 1x10704fe010
1024 84 m 5x107047e040
 1092 84 l 5
 1092 16 l 5
 1024 16 l 5
 1024 84 l 5x107047e040
1008 220 m 5x107047e080
 1108 220 l 5
 1108 120 l 5
 1008 120 l 5
 1008 220 l 5x107047e080
1008 1180 m 1
 1108 1180 l 1
 1108 1080 l 1
 1008 1080 l 1
 1008 1180 l 1
1024 1284 m 1x107047e040
 1092 1284 l 1
 1092 1216 l 1
 1024 1216 l 1
 1024 1284 l 1x107047e040
1248 700 m 5x107047e008
 1348 700 l 5
 1348 600 l 5
 1248 600 l 5
 1248 700 l 5x107047e008
1264 324 m 5x147047e004
 1332 324 l 5
 1332 256 l 5
 1264 256 l 5
 1264 324 l 5x147047e004
1252 456 m 5
 1342 456 l 5
 1342 364 l 5
 1252 364 l 5
 1252 456 l 5
1248 580 m 5x107047e008
 1348 580 l 5
 1348 480 l 5
 1248 480 l 5
 1248 580 l 5x107047e008
1248 820 m 1
 1348 820 l 1
 1348 720 l 1
 1248 720 l 1
 1248 820 l 1
1252 936 m 1
 1342 936 l 1
 1342 844 l 1
 1252 844 l 1
 1252 936 l 1
1264 1044 m 1x107147e004
 1332 1044 l 1
 1332 976 l 1
 1264 976 l 1
 1264 1044 l 1x107147e004
1128 700 m 5x107047e020
 1228 700 l 5
 1228 600 l 5
 1128 600 l 5
 1128 700 l 5x107047e020
1128 340 m 5x187047e020
 1228 340 l 5
 1228 240 l 5
 1128 240 l 5
 1128 340 l 5x187047e020
1128 460 m 5x117047e020
 1228 460 l 5
 1228 360 l 5
 1128 360 l 5
 1128 460 l 5x117047e020
1128 580 m 5
 1228 580 l 5
 1228 480 l 5
 1128 480 l 5
 1128 580 l 5
1128 820 m 1
 1228 820 l 1
 1228 720 l 1
 1128 720 l 1
 1128 820 l 1
1128 940 m 1x107847e020
 1228 940 l 1
 1228 840 l 1
 1128 840 l 1
 1128 940 l 1x107847e020
1128 1060 m 1x107247e020
 1228 1060 l 1
 1228 960 l 1
 1128 960 l 1
 1128 1060 l 1x107247e020
1008 700 m 5x107047e080
 1108 700 l 5
 1108 600 l 5
 1008 600 l 5
 1008 700 l 5x107047e080
1008 340 m 5x187047e080
 1108 340 l 5
 1108 240 l 5
 1008 240 l 5
 1008 340 l 5x187047e080
1008 460 m 5x117047e080
 1108 460 l 5
 1108 360 l 5
 1008 360 l 5
 1008 460 l 5x117047e080
1008 580 m 5
 1108 580 l 5
 1108 480 l 5
 1008 480 l 5
 1008 580 l 5
1008 820 m 1
 1108 820 l 1
 1108 720 l 1
 1008 720 l 1
 1008 820 l 1
1008 940 m 1x107847e080
 1108 940 l 1
 1108 840 l 1
 1008 840 l 1
 1008 940 l 1x107847e080
1008 1060 m 1x107247e080
 1108 1060 l 1
 1108 960 l 1
 1008 960 l 1
 1008 1060 l 1x107247e080
896 90 m 5x507047e2
 978 90 l 5
 978 10 l 5
 896 10 l 5
 896 90 l 5x507047e2
888 220 m 5x107047e4
 988 220 l 5
 988 120 l 5
 888 120 l 5
 888 220 l 5x107047e4
888 1180 m 1
 988 1180 l 1
 988 1080 l 1
 888 1080 l 1
 888 1180 l 1
896 1290 m 1x107057e2
 978 1290 l 1
 978 1210 l 1
 896 1210 l 1
 896 1290 l 1x107057e2
768 100 m 5x907047f0
 868 100 l 5
 868 0 l 5
 768 0 l 5
 768 100 l 5x907047f0
768 220 m 5
 868 220 l 5
 868 120 l 5
 768 120 l 5
 768 220 l 5
768 1180 m 1
 868 1180 l 1
 868 1080 l 1
 768 1080 l 1
 768 1180 l 1
768 1300 m 1x107067f0
 868 1300 l 1
 868 1200 l 1
 768 1200 l 1
 768 1300 l 1x107067f0
648 100 m 1x907047e0
 748 100 l 1
 748 0 l 1
 648 0 l 1
 648 100 l 1x907047e0
648 220 m 1
 748 220 l 1
 748 120 l 1
 648 120 l 1
 648 220 l 1
648 1180 m 1
 748 1180 l 1
 748 1080 l 1
 648 1080 l 1
 648 1180 l 1
648 1300 m 1x107067e0
 748 1300 l 1
 748 1200 l 1
 648 1200 l 1
 648 1300 l 1x107067e0
168 100 m 1x907047e0
 268 100 l 1
 268 0 l 1
 168 0 l 1
 168 100 l 1x907047e0
168 220 m 1
 268 220 l 1
 268 120 l 1
 168 120 l 1
 168 220 l 1
168 1180 m 1
 268 1180 l 1
 268 1080 l 1
 168 1080 l 1
 168 1180 l 1
168 1300 m 1x107067e0
 268 1300 l 1
 268 1200 l 1
 168 1200 l 1
 168 1300 l 1x107067e0
528 700 m 1
 628 700 l 1
 628 600 l 1
 528 600 l 1
 528 700 l 1
528 100 m 1x907047e0
 628 100 l 1
 628 0 l 1
 528 0 l 1
 528 100 l 1x907047e0
528 220 m 1
 628 220 l 1
 628 120 l 1
 528 120 l 1
 528 220 l 1
528 340 m 1x187047e0
 628 340 l 1
 628 240 l 1
 528 240 l 1
 528 340 l 1x187047e0
528 460 m 1x117047e0
 628 460 l 1
 628 360 l 1
 528 360 l 1
 528 460 l 1x117047e0
528 580 m 1
 628 580 l 1
 628 480 l 1
 528 480 l 1
 528 580 l 1
528 820 m 1
 628 820 l 1
 628 720 l 1
 528 720 l 1
 528 820 l 1
528 940 m 1x107847e0
 628 940 l 1
 628 840 l 1
 528 840 l 1
 528 940 l 1x107847e0
528 1060 m 1x107247e0
 628 1060 l 1
 628 960 l 1
 528 960 l 1
 528 1060 l 1x107247e0
528 1180 m 1
 628 1180 l 1
 628 1080 l 1
 528 1080 l 1
 528 1180 l 1
528 1300 m 1x107067e0
 628 1300 l 1
 628 1200 l 1
 528 1200 l 1
 528 1300 l 1x107067e0
408 700 m 1
 508 700 l 1
 508 600 l 1
 408 600 l 1
 408 700 l 1
408 100 m 1x907047e0
 508 100 l 1
 508 0 l 1
 408 0 l 1
 408 100 l 1x907047e0
408 220 m 1
 508 220 l 1
 508 120 l 1
 408 120 l 1
 408 220 l 1
408 340 m 1x187047e0
 508 340 l 1
 508 240 l 1
 408 240 l 1
 408 340 l 1x187047e0
408 460 m 1x117047e0
 508 460 l 1
 508 360 l 1
 408 360 l 1
 408 460 l 1x117047e0
408 580 m 1
 508 580 l 1
 508 480 l 1
 408 480 l 1
 408 580 l 1
408 820 m 1
 508 820 l 1
 508 720 l 1
 408 720 l 1
 408 820 l 1
408 940 m 1x107847e0
 508 940 l 1
 508 840 l 1
 408 840 l 1
 408 940 l 1x107847e0
408 1060 m 1x107247e0
 508 1060 l 1
 508 960 l 1
 408 960 l 1
 408 1060 l 1x107247e0
408 1180 m 1
 508 1180 l 1
 508 1080 l 1
 408 1080 l 1
 408 1180 l 1
408 1300 m 1x107067e0
 508 1300 l 1
 508 1200 l 1
 408 1200 l 1
 408 1300 l 1x107067e0
288 700 m 1
 388 700 l 1
 388 600 l 1
 288 600 l 1
 288 700 l 1
288 100 m 1x907047e0
 388 100 l 1
 388 0 l 1
 288 0 l 1
 288 100 l 1x907047e0
288 220 m 1
 388 220 l 1
 388 120 l 1
 288 120 l 1
 288 220 l 1
288 340 m 1x187047e0
 388 340 l 1
 388 240 l 1
 288 240 l 1
 288 340 l 1x187047e0
288 460 m 1x117047e0
 388 460 l 1
 388 360 l 1
 288 360 l 1
 288 460 l 1x117047e0
288 580 m 1
 388 580 l 1
 388 480 l 1
 288 480 l 1
 288 580 l 1
288 820 m 1
 388 820 l 1
 388 720 l 1
 288 720 l 1
 288 820 l 1
288 940 m 1x107847e0
 388 940 l 1
 388 840 l 1
 288 840 l 1
 288 940 l 1x107847e0
288 1060 m 1x107247e0
 388 1060 l 1
 388 960 l 1
 288 960 l 1
 288 1060 l 1x107247e0
288 1180 m 1
 388 1180 l 1
 388 1080 l 1
 288 1080 l 1
 288 1180 l 1
288 1300 m 1x107067e0
 388 1300 l 1
 388 1200 l 1
 288 1200 l 1
 288 1300 l 1x107067e0
EndSplineSet
EndChar

StartChar: eth
Encoding: 240 240 143
GlifName: eth
Width: 1288
Flags: HW
LayerCount: 2
Fore
SplineSet
242 1000 m 1x127047e8
 212 1000 l 1
 212 1028 l 1
 242 1028 l 1
 242 1000 l 1x127047e8
367 997 m 1x127047e8
 331 997 l 1
 331 1031 l 1
 367 1031 l 1
 367 997 l 1x127047e8
445 994 m 1x127047e8
 445 1034 l 1
 489 1034 l 1
 489 994 l 1
 445 994 l 1x127047e8
452 1234 m 1x307047e010
 452 1258 l 1
 478 1258 l 1
 478 1234 l 1
 452 1234 l 1x307047e010
774 1080 m 1x907047f0
 774 1180 l 1
 874 1180 l 1
 874 1080 l 1
 774 1080 l 1x907047f0
654 1080 m 1x907047f0
 654 1180 l 1
 754 1180 l 1
 754 1080 l 1
 654 1080 l 1x907047f0
534 1080 m 1x907047f0
 534 1180 l 1
 634 1180 l 1
 634 1080 l 1
 534 1080 l 1x907047f0
563 992 m 1x127047e8
 563 1036 l 1
 611 1036 l 1
 611 992 l 1
 563 992 l 1x127047e8
1168 754 m 1x127047e8
 1168 782 l 1
 1198 782 l 1
 1198 754 l 1
 1168 754 l 1x127047e8
1048 994 m 1x127047e8
 1048 1022 l 1
 1078 1022 l 1
 1078 994 l 1
 1048 994 l 1x127047e8
1026 852 m 1
 1026 928 l 1
 1102 928 l 1
 1102 852 l 1
 1026 852 l 1
214 1118 m 1x307047e010
 214 1142 l 1
 240 1142 l 1
 240 1118 l 1
 214 1118 l 1x307047e010
308 1090 m 1
 308 1166 l 1
 384 1166 l 1
 384 1090 l 1
 308 1090 l 1
548 1210 m 1
 548 1286 l 1
 624 1286 l 1
 624 1210 l 1
 548 1210 l 1
788 1210 m 1
 788 1286 l 1
 864 1286 l 1
 864 1210 l 1
 788 1210 l 1
1026 1090 m 1
 1026 1166 l 1
 1102 1166 l 1
 1102 1090 l 1
 1026 1090 l 1
906 970 m 1
 906 1046 l 1
 982 1046 l 1
 982 970 l 1
 906 970 l 1
654 1200 m 1x907047f0
 654 1300 l 1
 754 1300 l 1
 754 1200 l 1
 654 1200 l 1x907047f0
894 1080 m 1x907047f0
 894 1180 l 1
 994 1180 l 1
 994 1080 l 1
 894 1080 l 1x907047f0
414 1080 m 1x907047f0
 414 1180 l 1
 514 1180 l 1
 514 1080 l 1
 414 1080 l 1x907047f0
774 960 m 1x907047f0
 774 1060 l 1
 874 1060 l 1
 874 960 l 1
 774 960 l 1x907047f0
654 960 m 1x907047f0
 654 1060 l 1
 754 1060 l 1
 754 960 l 1
 654 960 l 1x907047f0
894 840 m 1x907047f0
 894 940 l 1
 994 940 l 1
 994 840 l 1
 894 840 l 1x907047f0
774 840 m 1x907047f0
 774 940 l 1
 874 940 l 1
 874 840 l 1
 774 840 l 1x907047f0
600 636 m 1x127047e8
 570 636 l 1
 570 664 l 1
 600 664 l 1
 600 636 l 1x127047e8
480 516 m 1x10f047e1
 450 516 l 1
 450 544 l 1
 480 544 l 1
 480 516 l 1x10f047e1
498 616 m 1x147047e0
 430 616 l 1
 430 684 l 1
 498 684 l 1
 498 616 l 1x147047e0
238 878 m 1x307047e010
 212 878 l 1
 212 902 l 1
 238 902 l 1
 238 878 l 1x307047e010
262 732 m 1
 186 732 l 1
 186 808 l 1
 262 808 l 1
 262 732 l 1
378 856 m 1x107047e040
 310 856 l 1
 310 924 l 1
 378 924 l 1
 378 856 l 1x107047e040
394 720 m 1x107047e080
 294 720 l 1
 294 820 l 1
 394 820 l 1
 394 720 l 1x107047e080
138 616 m 1x147047e004
 70 616 l 1
 70 684 l 1
 138 684 l 1
 138 616 l 1x147047e004
150 484 m 1
 60 484 l 1
 60 576 l 1
 150 576 l 1
 150 484 l 1
274 600 m 1x187047e020
 174 600 l 1
 174 700 l 1
 274 700 l 1
 274 600 l 1x187047e020
274 480 m 1x117047e020
 174 480 l 1
 174 580 l 1
 274 580 l 1
 274 480 l 1x117047e020
394 600 m 1x187047e080
 294 600 l 1
 294 700 l 1
 394 700 l 1
 394 600 l 1x187047e080
394 480 m 1x117047e080
 294 480 l 1
 294 580 l 1
 394 580 l 1
 394 480 l 1x117047e080
506 850 m 1x507047e2
 424 850 l 1
 424 930 l 1
 506 930 l 1
 506 850 l 1x507047e2
514 720 m 1x107047e4
 414 720 l 1
 414 820 l 1
 514 820 l 1
 514 720 l 1x107047e4
634 840 m 1x907047f0
 534 840 l 1
 534 940 l 1
 634 940 l 1
 634 840 l 1x907047f0
634 720 m 1
 534 720 l 1
 534 820 l 1
 634 820 l 1
 634 720 l 1
688 636 m 1x127047e8
 688 664 l 1
 718 664 l 1
 718 636 l 1
 688 636 l 1x127047e8
808 516 m 1x10f047e1
 808 544 l 1
 838 544 l 1
 838 516 l 1
 808 516 l 1x10f047e1
790 616 m 1x147047e0
 790 684 l 1
 858 684 l 1
 858 616 l 1
 790 616 l 1x147047e0
1026 732 m 1
 1026 808 l 1
 1102 808 l 1
 1102 732 l 1
 1026 732 l 1
894 720 m 1x107047e080
 894 820 l 1
 994 820 l 1
 994 720 l 1
 894 720 l 1x107047e080
1150 616 m 1x147047e004
 1150 684 l 1
 1218 684 l 1
 1218 616 l 1
 1150 616 l 1x147047e004
1138 484 m 1
 1138 576 l 1
 1228 576 l 1
 1228 484 l 1
 1138 484 l 1
1014 600 m 1x187047e020
 1014 700 l 1
 1114 700 l 1
 1114 600 l 1
 1014 600 l 1x187047e020
1014 480 m 1x117047e020
 1014 580 l 1
 1114 580 l 1
 1114 480 l 1
 1014 480 l 1x117047e020
894 600 m 1x187047e080
 894 700 l 1
 994 700 l 1
 994 600 l 1
 894 600 l 1x187047e080
894 480 m 1x117047e080
 894 580 l 1
 994 580 l 1
 994 480 l 1
 894 480 l 1x117047e080
774 720 m 1x107047e4
 774 820 l 1
 874 820 l 1
 874 720 l 1
 774 720 l 1x107047e4
654 840 m 1x907047f0
 654 940 l 1
 754 940 l 1
 754 840 l 1
 654 840 l 1x907047f0
654 720 m 1
 654 820 l 1
 754 820 l 1
 754 720 l 1
 654 720 l 1
600 304 m 1x127047e8
 600 276 l 1
 570 276 l 1
 570 304 l 1
 600 304 l 1x127047e8
480 424 m 1x10f047e1
 480 396 l 1
 450 396 l 1
 450 424 l 1
 480 424 l 1x10f047e1
498 324 m 1x147047e0
 498 256 l 1
 430 256 l 1
 430 324 l 1
 498 324 l 1x147047e0
238 62 m 1x307047e010
 238 38 l 1
 212 38 l 1
 212 62 l 1
 238 62 l 1x307047e010
262 208 m 1
 262 132 l 1
 186 132 l 1
 186 208 l 1
 262 208 l 1
378 84 m 1x107047e040
 378 16 l 1
 310 16 l 1
 310 84 l 1
 378 84 l 1x107047e040
394 220 m 1x107047e080
 394 120 l 1
 294 120 l 1
 294 220 l 1
 394 220 l 1x107047e080
138 324 m 1x147047e004
 138 256 l 1
 70 256 l 1
 70 324 l 1
 138 324 l 1x147047e004
150 456 m 1
 150 364 l 1
 60 364 l 1
 60 456 l 1
 150 456 l 1
274 340 m 1x187047e020
 274 240 l 1
 174 240 l 1
 174 340 l 1
 274 340 l 1x187047e020
274 460 m 1x117047e020
 274 360 l 1
 174 360 l 1
 174 460 l 1
 274 460 l 1x117047e020
394 340 m 1x187047e080
 394 240 l 1
 294 240 l 1
 294 340 l 1
 394 340 l 1x187047e080
394 460 m 1x117047e080
 394 360 l 1
 294 360 l 1
 294 460 l 1
 394 460 l 1x117047e080
506 90 m 1x507047e2
 506 10 l 1
 424 10 l 1
 424 90 l 1
 506 90 l 1x507047e2
514 220 m 1x107047e4
 514 120 l 1
 414 120 l 1
 414 220 l 1
 514 220 l 1x107047e4
634 100 m 1x907047f0
 634 0 l 1
 534 0 l 1
 534 100 l 1
 634 100 l 1x907047f0
634 220 m 1
 634 120 l 1
 534 120 l 1
 534 220 l 1
 634 220 l 1
688 304 m 1x127047e8
 718 304 l 1
 718 276 l 1
 688 276 l 1
 688 304 l 1x127047e8
808 424 m 1x10f047e1
 838 424 l 1
 838 396 l 1
 808 396 l 1
 808 424 l 1x10f047e1
790 324 m 1x147047e0
 858 324 l 1
 858 256 l 1
 790 256 l 1
 790 324 l 1x147047e0
1050 62 m 1x307047e010
 1076 62 l 1
 1076 38 l 1
 1050 38 l 1
 1050 62 l 1x307047e010
1026 208 m 1
 1102 208 l 1
 1102 132 l 1
 1026 132 l 1
 1026 208 l 1
910 84 m 1x107047e040
 978 84 l 1
 978 16 l 1
 910 16 l 1
 910 84 l 1x107047e040
894 220 m 1x107047e080
 994 220 l 1
 994 120 l 1
 894 120 l 1
 894 220 l 1x107047e080
1150 324 m 1x147047e004
 1218 324 l 1
 1218 256 l 1
 1150 256 l 1
 1150 324 l 1x147047e004
1138 456 m 1
 1228 456 l 1
 1228 364 l 1
 1138 364 l 1
 1138 456 l 1
1014 340 m 1x187047e020
 1114 340 l 1
 1114 240 l 1
 1014 240 l 1
 1014 340 l 1x187047e020
1014 460 m 1x117047e020
 1114 460 l 1
 1114 360 l 1
 1014 360 l 1
 1014 460 l 1x117047e020
894 340 m 1x187047e080
 994 340 l 1
 994 240 l 1
 894 240 l 1
 894 340 l 1x187047e080
894 460 m 1x117047e080
 994 460 l 1
 994 360 l 1
 894 360 l 1
 894 460 l 1x117047e080
782 90 m 1x507047e2
 864 90 l 1
 864 10 l 1
 782 10 l 1
 782 90 l 1x507047e2
774 220 m 1x107047e4
 874 220 l 1
 874 120 l 1
 774 120 l 1
 774 220 l 1x107047e4
654 100 m 1x907047f0
 754 100 l 1
 754 0 l 1
 654 0 l 1
 654 100 l 1x907047f0
654 220 m 1
 754 220 l 1
 754 120 l 1
 654 120 l 1
 654 220 l 1
EndSplineSet
EndChar

StartChar: Ntilde
Encoding: 209 209 144
GlifName: N_tilde
Width: 1668
Flags: HW
HStem: 0 42G<60 1094 1142 1588> 1276 24G<283 630 672 1608>
VStem: 250 100<579 682> 1324 100<625 712>
LayerCount: 2
Fore
SplineSet
60 710 m 1
 60 1134 159 1316 406 1316 c 0
 853 1316 763 626 1324 625 c 1
 1324 712 l 1
 921 718 925 1168 672 1300 c 1
 1608 1300 l 1
 1608 934 1566 764 1424 719 c 1
 1424 621 l 1
 1474 620 1529 620 1588 620 c 1
 1588 0 l 1
 1576 0 l 2
 707 0 866 583 350 682 c 1
 350 586 l 1
 668 543 685 160 1094 0 c 1
 60 0 l 1
 60 392 109 557 250 586 c 1
 250 699 l 1
 201 706 147 710 86 710 c 2
 60 710 l 1
554 1822 m 4
 334 1822 252 1650 252 1362 c 5
 820 1554 l 5
 963 1436 1039 1362 1200 1362 c 4
 1420 1362 1502 1534 1502 1822 c 5
 972 1590 l 5
 812 1724 732 1822 554 1822 c 4
EndSplineSet
EndChar

StartChar: ntilde
Encoding: 241 241 145
GlifName: ntilde
Width: 1630
Flags: HW
HStem: 0 128<530 639> 0 106<1453 1570> 442 572<325 586> 648 368<981 1383>
VStem: 60 692<499 756> 1026 544<497 779>
LayerCount: 2
Fore
SplineSet
610 1540 m 0
 405 1540 328 1368 328 1080 c 1
 816 1292 l 5
 937 1161 1000 1080 1136 1080 c 0
 1341 1080 1418 1252 1418 1540 c 1
 968 1288 l 1
 831 1434 762 1540 610 1540 c 0
592 442 m 1x6c
 60 442 l 1
 67 828 186 1014 430 1014 c 0
 629 1014 752 896 752 704 c 0
 752 572 700 438 530 128 c 1
 624 128 l 1xac
 946 870 1054 1016 1288 1016 c 0
 1478 1016 1570 922 1570 724 c 0
 1570 514 1450 292 1450 178 c 0
 1450 125 1474 106 1570 106 c 1
 1570 0 l 1
 822 0 l 1
 822 248 1026 530 1026 620 c 0
 1026 638 1020 648 1000 648 c 0x5c
 962 648 936 610 680 0 c 1
 60 0 l 1
 60 460 434 172 592 442 c 1x6c
EndSplineSet
EndChar

StartChar: Ograve
Encoding: 210 210 146
GlifName: O_grave
Width: 1196
Flags: HW
HStem: -20 426<427 838> 1104 218<288 744>
VStem: 60 112<396 931> 1040 96<369 801>
LayerCount: 2
Fore
SplineSet
936 1396 m 21
 532 1396 l 6
 425 1396 340 1463 340 1548 c 4
 340 1638 411 1704 508 1704 c 4
 604 1704 696 1625 696 1542 c 4
 696 1463 777 1422 936 1422 c 13
 936 1396 l 21
654 1322 m 0
 833 1322 960 1215 960 1063 c 0
 960 940 878 852 763 852 c 0
 570 852 552 1104 359 1104 c 0
 241 1104 172 1010 172 849 c 0
 172 584 361 406 643 406 c 0
 886 406 1040 538 1040 747 c 0
 1040 833 1014 910 960 986 c 1
 978 998 l 1
 1082 877 1136 722 1136 542 c 0
 1136 195 936 -20 615 -20 c 0
 279 -20 60 216 60 576 c 0
 60 978 333 1322 654 1322 c 0
EndSplineSet
EndChar

StartChar: Oacute
Encoding: 211 211 147
GlifName: O_acute
Width: 1196
Flags: HW
HStem: -20 426<427 838> 1104 218<288 744>
VStem: 60 112<396 931> 1040 96<369 801>
LayerCount: 2
Fore
SplineSet
300 1396 m 13
 300 1422 l 21
 459 1422 540 1463 540 1542 c 4
 540 1625 632 1704 728 1704 c 4
 825 1704 896 1638 896 1548 c 4
 896 1463 811 1396 704 1396 c 6
 300 1396 l 13
654 1322 m 0
 833 1322 960 1215 960 1063 c 0
 960 940 877 852 762 852 c 0
 569 852 551 1104 358 1104 c 0
 241 1104 172 1010 172 852 c 0
 172 584 360 406 643 406 c 0
 886 406 1040 538 1040 749 c 0
 1040 833 1014 911 960 986 c 1
 978 998 l 1
 1082 877 1136 722 1136 542 c 0
 1136 195 936 -20 615 -20 c 0
 279 -20 60 216 60 576 c 0
 60 978 333 1322 654 1322 c 0
EndSplineSet
EndChar

StartChar: Ocircumflex
Encoding: 212 212 148
GlifName: O_circumflex
Width: 1196
Flags: HW
HStem: -20 426<427 838> 1104 218<288 744>
VStem: 60 112<396 931> 1040 96<369 801>
LayerCount: 2
Fore
SplineSet
654 1322 m 0
 833 1322 960 1215 960 1063 c 0
 960 940 877 852 762 852 c 0
 569 852 551 1104 358 1104 c 0
 241 1104 172 1010 172 852 c 0
 172 584 360 406 643 406 c 0
 886 406 1040 538 1040 749 c 0
 1040 833 1014 911 960 986 c 1
 978 998 l 1
 1082 877 1136 722 1136 542 c 0
 1136 195 936 -20 615 -20 c 0
 279 -20 60 216 60 576 c 0
 60 978 333 1322 654 1322 c 0
620 1718 m 5
 723 1648 768 1624 864 1624 c 4
 960 1624 1036 1566 1036 1492 c 4
 1036 1414 973 1356 888 1356 c 4
 802 1356 720 1425 720 1498 c 4
 720 1598 686 1637 620 1696 c 5
 554 1637 520 1598 520 1498 c 4
 520 1425 438 1356 352 1356 c 4
 267 1356 204 1414 204 1492 c 4
 204 1566 280 1624 376 1624 c 4
 472 1624 517 1648 620 1718 c 5
EndSplineSet
EndChar

StartChar: Otilde
Encoding: 213 213 149
GlifName: O_tilde
Width: 1196
Flags: HW
HStem: -20 426<427 838> 1104 218<288 744>
VStem: 60 112<396 931> 1040 96<369 801>
LayerCount: 2
Fore
SplineSet
654 1322 m 0
 833 1322 960 1215 960 1063 c 0
 960 940 877 852 762 852 c 0
 569 852 551 1104 358 1104 c 0
 241 1104 172 1010 172 852 c 0
 172 584 360 406 643 406 c 0
 886 406 1040 538 1040 749 c 0
 1040 833 1014 911 960 986 c 1
 978 998 l 1
 1082 877 1136 722 1136 542 c 0
 1136 195 936 -20 615 -20 c 0
 279 -20 60 216 60 576 c 0
 60 978 333 1322 654 1322 c 0
824 1396 m 4
 957 1396 1036 1460 1036 1568 c 4
 1036 1635 990 1684 928 1684 c 4
 756 1684 846 1448 740 1448 c 4
 658 1448 625 1684 392 1684 c 4
 259 1684 180 1620 180 1512 c 4
 180 1445 226 1396 288 1396 c 4
 460 1396 370 1632 476 1632 c 4
 603 1632 619 1396 824 1396 c 4
EndSplineSet
EndChar

StartChar: Odieresis
Encoding: 214 214 150
GlifName: O_dieresis
Width: 1196
Flags: HW
HStem: -20 426<427 838> 1104 218<288 744>
VStem: 60 112<396 931> 1040 96<369 801>
LayerCount: 2
Fore
SplineSet
668 1540 m 4
 668 1626 738 1696 824 1696 c 4
 910 1696 980 1626 980 1540 c 4
 980 1454 910 1384 824 1384 c 4
 738 1384 668 1454 668 1540 c 4
244 1540 m 4
 244 1626 314 1696 400 1696 c 4
 486 1696 556 1626 556 1540 c 4
 556 1454 486 1384 400 1384 c 4
 314 1384 244 1454 244 1540 c 4
654 1322 m 0
 833 1322 960 1215 960 1063 c 0
 960 940 877 852 762 852 c 0
 569 852 551 1104 358 1104 c 0
 241 1104 172 1010 172 852 c 0
 172 584 360 406 643 406 c 0
 886 406 1040 538 1040 749 c 0
 1040 833 1014 911 960 986 c 1
 978 998 l 1
 1082 877 1136 722 1136 542 c 0
 1136 195 936 -20 615 -20 c 0
 279 -20 60 216 60 576 c 0
 60 978 333 1322 654 1322 c 0
EndSplineSet
EndChar

StartChar: Oslash
Encoding: 216 216 151
GlifName: O_slash
Width: 1196
Flags: HW
HStem: -20 426<427 838> 1104 218<288 744>
VStem: 60 112<396 931> 1040 96<369 801>
LayerCount: 2
Fore
SplineSet
82 -44 m 29
 62 -24 l 29
 1118 1308 l 29
 1138 1288 l 29
 82 -44 l 29
654 1322 m 0
 833 1322 960 1215 960 1063 c 0
 960 940 877 852 762 852 c 0
 569 852 551 1104 358 1104 c 0
 241 1104 172 1010 172 852 c 0
 172 584 360 406 643 406 c 0
 886 406 1040 538 1040 749 c 0
 1040 833 1014 911 960 986 c 1
 978 998 l 1
 1082 877 1136 722 1136 542 c 0
 1136 195 936 -20 615 -20 c 0
 279 -20 60 216 60 576 c 0
 60 978 333 1322 654 1322 c 0
EndSplineSet
EndChar

StartChar: ograve
Encoding: 242 242 152
GlifName: ograve
Width: 906
Flags: HW
HStem: -20 326<347 619> 680 96<831 1007> 866 154<230 575>
VStem: 60 112<311 685> 760 24<832 849> 802 40<479 683>
LayerCount: 2
Fore
SplineSet
808 1080 m 5
 404 1080 l 6
 297 1080 212 1147 212 1232 c 4
 212 1322 283 1388 380 1388 c 4
 476 1388 568 1309 568 1226 c 4
 568 1147 649 1106 808 1106 c 5
 808 1080 l 5
504 1020 m 0
 646 1020 740 931 740 797 c 0
 740 682 670 590 582 590 c 0
 429 590 443 866 290 866 c 0
 198 866 172 798 172 677 c 0
 172 455 312 306 520 306 c 0
 697 306 802 414 802 595 c 0
 802 666 786 760 760 844 c 1
 784 852 l 1
 809 801 856 776 929 776 c 0
 999 776 1059 808 1118 876 c 1
 1134 864 l 1
 1013 711 970 680 882 680 c 0
 858 680 840 681 830 684 c 1
 839 602 842 562 842 515 c 0
 842 190 688 -20 449 -20 c 0
 220 -20 60 172 60 449 c 0
 60 760 262 1020 504 1020 c 0
EndSplineSet
EndChar

StartChar: oacute
Encoding: 243 243 153
GlifName: oacute
Width: 906
Flags: HW
HStem: -20 326<347 619> 680 96<831 1007> 866 154<230 575>
VStem: 60 112<311 685> 760 24<832 849> 802 40<479 683>
LayerCount: 2
Fore
SplineSet
152 1080 m 5
 152 1106 l 5
 311 1106 392 1147 392 1226 c 4
 392 1309 484 1388 580 1388 c 4
 677 1388 748 1322 748 1232 c 4
 748 1147 663 1080 556 1080 c 6
 152 1080 l 5
504 1020 m 0
 646 1020 740 931 740 797 c 0
 740 682 670 590 582 590 c 0
 429 590 443 866 290 866 c 0
 198 866 172 798 172 677 c 0
 172 455 312 306 520 306 c 0
 697 306 802 414 802 595 c 0
 802 666 786 760 760 844 c 1
 784 852 l 1
 809 801 856 776 929 776 c 0
 999 776 1059 808 1118 876 c 1
 1134 864 l 1
 1013 711 970 680 882 680 c 0
 858 680 840 681 830 684 c 1
 839 602 842 562 842 515 c 0
 842 190 688 -20 449 -20 c 0
 220 -20 60 172 60 449 c 0
 60 760 262 1020 504 1020 c 0
EndSplineSet
EndChar

StartChar: ocircumflex
Encoding: 244 244 154
GlifName: ocircumflex
Width: 906
Flags: HW
HStem: -20 326<347 619> 680 96<831 1007> 866 154<230 575>
VStem: 60 112<311 685> 760 24<832 849> 802 40<479 683>
LayerCount: 2
Fore
SplineSet
472 1424 m 5
 566 1354 608 1330 696 1330 c 4
 792 1330 868 1272 868 1198 c 4
 868 1120 804 1062 719 1062 c 4
 644 1062 572 1131 572 1204 c 4
 572 1304 538 1343 472 1402 c 5
 406 1343 372 1304 372 1204 c 4
 372 1131 299 1062 224 1062 c 4
 139 1062 76 1120 76 1198 c 4
 76 1272 152 1330 248 1330 c 4
 336 1330 378 1354 472 1424 c 5
504 1020 m 0
 646 1020 740 931 740 797 c 0
 740 682 670 590 582 590 c 0
 429 590 443 866 290 866 c 0
 198 866 172 798 172 677 c 0
 172 455 312 306 520 306 c 0
 697 306 802 414 802 595 c 0
 802 666 786 760 760 844 c 1
 784 852 l 1
 809 801 856 776 929 776 c 0
 999 776 1059 808 1118 876 c 1
 1134 864 l 1
 1013 711 970 680 882 680 c 0
 858 680 840 681 830 684 c 1
 839 602 842 562 842 515 c 0
 842 190 688 -20 449 -20 c 0
 220 -20 60 172 60 449 c 0
 60 760 262 1020 504 1020 c 0
EndSplineSet
EndChar

StartChar: otilde
Encoding: 245 245 155
GlifName: otilde
Width: 906
Flags: HW
HStem: -20 326<347 619> 680 96<831 1007> 866 154<230 575>
VStem: 60 112<311 685> 760 24<832 849> 802 40<479 683>
LayerCount: 2
Fore
SplineSet
668 1082 m 4
 801 1082 880 1146 880 1254 c 4
 880 1321 834 1370 772 1370 c 4
 600 1370 690 1134 584 1134 c 4
 511 1134 535 1370 316 1370 c 4
 183 1370 104 1306 104 1198 c 4
 104 1131 150 1082 212 1082 c 4
 384 1082 294 1318 400 1318 c 4
 508 1318 470 1082 668 1082 c 4
504 1020 m 0
 646 1020 740 931 740 797 c 0
 740 682 670 590 582 590 c 0
 429 590 443 866 290 866 c 0
 198 866 172 798 172 677 c 0
 172 455 312 306 520 306 c 0
 697 306 802 414 802 595 c 0
 802 666 786 760 760 844 c 1
 784 852 l 1
 809 801 856 776 929 776 c 0
 999 776 1059 808 1118 876 c 1
 1134 864 l 1
 1013 711 970 680 882 680 c 0
 858 680 840 681 830 684 c 1
 839 602 842 562 842 515 c 0
 842 190 688 -20 449 -20 c 0
 220 -20 60 172 60 449 c 0
 60 760 262 1020 504 1020 c 0
EndSplineSet
EndChar

StartChar: odieresis
Encoding: 246 246 156
GlifName: odieresis
Width: 906
Flags: HW
HStem: -20 326<347 619> 680 96<831 1007> 866 154<230 575>
VStem: 60 112<311 685> 760 24<832 849> 802 40<479 683>
LayerCount: 2
Fore
SplineSet
504 1228 m 4
 504 1314 574 1384 660 1384 c 4
 746 1384 816 1314 816 1228 c 4
 816 1142 746 1072 660 1072 c 4
 574 1072 504 1142 504 1228 c 4
120 1228 m 4
 120 1314 190 1384 276 1384 c 4
 362 1384 432 1314 432 1228 c 4
 432 1142 362 1072 276 1072 c 4
 190 1072 120 1142 120 1228 c 4
504 1020 m 0
 646 1020 740 931 740 797 c 0
 740 682 670 590 582 590 c 0
 429 590 443 866 290 866 c 0
 198 866 172 798 172 677 c 0
 172 455 312 306 520 306 c 0
 697 306 802 414 802 595 c 0
 802 666 786 760 760 844 c 1
 784 852 l 1
 809 801 856 776 929 776 c 0
 999 776 1059 808 1118 876 c 1
 1134 864 l 1
 1013 711 970 680 882 680 c 0
 858 680 840 681 830 684 c 1
 839 602 842 562 842 515 c 0
 842 190 688 -20 449 -20 c 0
 220 -20 60 172 60 449 c 0
 60 760 262 1020 504 1020 c 0
EndSplineSet
EndChar

StartChar: oslash
Encoding: 248 248 157
GlifName: oslash
Width: 906
Flags: HW
HStem: -20 326<347 619> 680 96<831 1007> 866 154<230 575>
VStem: 60 112<311 685> 760 24<832 849> 802 40<479 683>
LayerCount: 2
Fore
SplineSet
82 -44 m 1
 62 -24 l 1
 886 1020 l 1
 906 1000 l 1
 82 -44 l 1
504 1020 m 0
 646 1020 740 931 740 797 c 0
 740 682 670 590 582 590 c 0
 429 590 443 866 290 866 c 0
 198 866 172 798 172 677 c 0
 172 455 312 306 520 306 c 0
 697 306 802 414 802 595 c 0
 802 666 786 760 760 844 c 1
 784 852 l 1
 809 801 856 776 929 776 c 0
 999 776 1059 808 1118 876 c 1
 1134 864 l 1
 1013 711 970 680 882 680 c 0
 858 680 840 681 830 684 c 1
 839 602 842 562 842 515 c 0
 842 190 688 -20 449 -20 c 0
 220 -20 60 172 60 449 c 0
 60 760 262 1020 504 1020 c 0
EndSplineSet
EndChar

StartChar: Ugrave
Encoding: 217 217 158
GlifName: U_grave
Width: 1328
Flags: HW
LayerCount: 2
Fore
SplineSet
648 1416 m 5
 686 1428 l 5
 726 1270 l 5
 688 1260 l 5
 648 1416 l 5
652 1424 m 5
 808 1468 l 5
 818 1428 l 5
 662 1386 l 5
 652 1424 l 5
676 1382 m 5
 236 1636 l 5
 256 1670 l 5
 696 1416 l 5
 676 1382 l 5
720 1218 m 5
 72 1592 l 5
 212 1834 l 5
 860 1460 l 5
 720 1218 l 5
808 1444 m 5
 226 1780 l 5
 126 1608 l 5
 708 1272 l 5
 808 1444 l 5
284 1636 m 5
 246 1626 l 5
 206 1782 l 5
 244 1794 l 5
 284 1636 l 5
280 1628 m 5
 124 1586 l 5
 114 1624 l 5
 270 1668 l 5
 280 1628 l 5
1052 1078 m 1
 1024 1106 l 1
 1200 1280 l 1
 1228 1252 l 1
 1052 1078 l 1
1044 1078 m 1
 868 1252 l 1
 896 1280 l 1
 1072 1106 l 1
 1044 1078 l 1
284 1078 m 1
 256 1106 l 1
 432 1280 l 1
 460 1252 l 1
 284 1078 l 1
276 1078 m 1
 100 1252 l 1
 128 1280 l 1
 304 1106 l 1
 276 1078 l 1
664 190 m 0
 886 190 1028 346 1028 590 c 2
 1028 1120 l 1
 1068 1120 l 1
 1068 590 l 2
 1068 324 909 150 664 150 c 0
 419 150 260 322 260 590 c 2
 260 1120 l 1
 300 1120 l 1
 300 590 l 2
 300 344 441 190 664 190 c 0
664 360 m 0
 784 360 848 440 848 590 c 2
 848 1300 l 1
 1248 1300 l 1
 1248 590 l 2
 1248 230 1007 -20 664 -20 c 0
 318 -20 80 230 80 590 c 2
 80 1300 l 1
 480 1300 l 1
 480 590 l 2
 480 438 543 360 664 360 c 0
664 20 m 0
 985 20 1208 252 1208 590 c 2
 1208 1262 l 1
 888 1262 l 1
 888 590 l 2
 888 418 807 320 664 320 c 0
 520 320 440 416 440 590 c 2
 440 1262 l 1
 120 1262 l 1
 120 590 l 2
 120 252 341 20 664 20 c 0
EndSplineSet
EndChar

StartChar: Uacute
Encoding: 218 218 159
GlifName: U_acute
Width: 1328
Flags: HW
LayerCount: 2
Fore
SplineSet
680 1416 m 5
 640 1260 l 5
 602 1270 l 5
 642 1428 l 5
 680 1416 l 5
676 1424 m 5
 666 1386 l 5
 510 1428 l 5
 520 1468 l 5
 676 1424 l 5
652 1382 m 5
 632 1416 l 5
 1072 1670 l 5
 1092 1636 l 5
 652 1382 l 5
608 1218 m 5
 468 1460 l 5
 1116 1834 l 5
 1256 1592 l 5
 608 1218 l 5
522 1444 m 5
 622 1272 l 5
 1204 1608 l 5
 1104 1780 l 5
 522 1444 l 5
1044 1636 m 5
 1084 1794 l 5
 1122 1782 l 5
 1082 1626 l 5
 1044 1636 l 5
1048 1628 m 5
 1058 1668 l 5
 1214 1624 l 5
 1204 1586 l 5
 1048 1628 l 5
1052 1078 m 2
 1024 1106 l 2
 1200 1280 l 1
 1228 1252 l 1
 1052 1078 l 2
1044 1078 m 2
 868 1252 l 1
 896 1280 l 1
 1072 1106 l 2
 1044 1078 l 2
284 1078 m 2
 256 1106 l 2
 432 1280 l 1
 460 1252 l 1
 284 1078 l 2
276 1078 m 2
 100 1252 l 1
 128 1280 l 1
 304 1106 l 2
 276 1078 l 2
664 190 m 0
 886 190 1028 346 1028 590 c 2
 1028 1120 l 1
 1068 1120 l 1
 1068 590 l 2
 1068 324 909 150 664 150 c 0
 419 150 260 322 260 590 c 2
 260 1120 l 1
 300 1120 l 1
 300 590 l 2
 300 344 441 190 664 190 c 0
664 360 m 0
 784 360 848 440 848 590 c 2
 848 1300 l 1
 1248 1300 l 1
 1248 590 l 2
 1248 230 1007 -20 664 -20 c 0
 318 -20 80 230 80 590 c 2
 80 1300 l 1
 480 1300 l 1
 480 590 l 2
 480 438 543 360 664 360 c 0
664 20 m 0
 985 20 1208 252 1208 590 c 2
 1208 1262 l 1
 888 1262 l 1
 888 590 l 2
 888 418 807 320 664 320 c 0
 520 320 440 416 440 590 c 2
 440 1262 l 1
 120 1262 l 1
 120 590 l 2
 120 252 341 20 664 20 c 0
EndSplineSet
EndChar

StartChar: Ucircumflex
Encoding: 219 219 160
GlifName: U_circumflex
Width: 1328
Flags: HW
LayerCount: 2
Fore
SplineSet
664 20 m 0
 985 20 1208 252 1208 590 c 2
 1208 1262 l 1
 888 1262 l 1
 888 590 l 2
 888 418 807 320 664 320 c 0
 520 320 440 416 440 590 c 2
 440 1262 l 1
 120 1262 l 1
 120 590 l 2
 120 252 341 20 664 20 c 0
664 360 m 0
 784 360 848 440 848 590 c 2
 848 1300 l 1
 1248 1300 l 1
 1248 590 l 2
 1248 230 1007 -20 664 -20 c 0
 318 -20 80 230 80 590 c 2
 80 1300 l 1
 480 1300 l 1
 480 590 l 2
 480 438 543 360 664 360 c 0
664 190 m 0
 886 190 1028 346 1028 590 c 2
 1028 1120 l 1
 1068 1120 l 1
 1068 590 l 2
 1068 324 909 150 664 150 c 0
 419 150 260 322 260 590 c 2
 260 1120 l 1
 300 1120 l 1
 300 590 l 2
 300 344 441 190 664 190 c 0
276 1078 m 2
 100 1252 l 1
 128 1280 l 1
 304 1106 l 2
 276 1078 l 2
284 1078 m 2
 256 1106 l 2
 432 1280 l 1
 460 1252 l 1
 284 1078 l 2
1044 1078 m 2
 868 1252 l 1
 896 1280 l 1
 1072 1106 l 2
 1044 1078 l 2
1052 1078 m 2
 1024 1106 l 2
 1200 1280 l 1
 1228 1252 l 1
 1052 1078 l 2
268 1526 m 5
 258 1488 l 5
 102 1530 l 5
 112 1570 l 5
 268 1526 l 5
272 1518 m 5
 232 1362 l 5
 194 1372 l 5
 234 1530 l 5
 272 1518 l 5
1060 1526 m 5
 1216 1570 l 5
 1226 1530 l 5
 1070 1488 l 5
 1060 1526 l 5
1056 1518 m 5
 1094 1530 l 5
 1134 1372 l 5
 1096 1362 l 5
 1056 1518 l 5
244 1484 m 5
 224 1518 l 5
 664 1772 l 5
 1104 1518 l 5
 1084 1484 l 5
 664 1726 l 5
 244 1484 l 5
664 1864 m 5
 114 1546 l 5
 214 1374 l 5
 664 1634 l 5
 1114 1374 l 5
 1214 1546 l 5
 664 1864 l 5
664 1588 m 5
 200 1320 l 5
 60 1562 l 5
 664 1911 l 5
 1268 1562 l 5
 1128 1320 l 5
 664 1588 l 5
EndSplineSet
EndChar

StartChar: Udieresis
Encoding: 220 220 161
GlifName: U_dieresis
Width: 1328
Flags: HW
LayerCount: 2
Fore
SplineSet
946 1532 m 5
 974 1560 l 5
 1088 1444 l 5
 1060 1416 l 5
 946 1532 l 5
946 1540 m 5
 1060 1656 l 5
 1088 1628 l 5
 974 1512 l 5
 946 1540 l 5
988 1516 m 5
 840 1516 l 5
 840 1556 l 5
 988 1556 l 5
 988 1516 l 5
1108 1396 m 5
 720 1396 l 5
 720 1676 l 5
 1108 1676 l 5
 1108 1396 l 5
1070 1636 m 5
 758 1636 l 5
 758 1436 l 5
 1070 1436 l 5
 1070 1636 l 5
882 1540 m 5
 854 1512 l 5
 740 1628 l 5
 768 1656 l 5
 882 1540 l 5
882 1532 m 5
 768 1416 l 5
 740 1444 l 5
 854 1560 l 5
 882 1532 l 5
446 1532 m 5
 474 1560 l 5
 588 1444 l 5
 560 1416 l 5
 446 1532 l 5
446 1540 m 5
 560 1656 l 5
 588 1628 l 5
 474 1512 l 5
 446 1540 l 5
488 1516 m 5
 340 1516 l 5
 340 1556 l 5
 488 1556 l 5
 488 1516 l 5
608 1396 m 5
 220 1396 l 5
 220 1676 l 5
 608 1676 l 5
 608 1396 l 5
570 1636 m 5
 258 1636 l 5
 258 1436 l 5
 570 1436 l 5
 570 1636 l 5
382 1540 m 5
 354 1512 l 5
 240 1628 l 5
 268 1656 l 5
 382 1540 l 5
382 1532 m 5
 268 1416 l 5
 240 1444 l 5
 354 1560 l 5
 382 1532 l 5
1052 1078 m 2
 1024 1106 l 2
 1200 1280 l 1
 1228 1252 l 1
 1052 1078 l 2
1044 1078 m 2
 868 1252 l 1
 896 1280 l 1
 1072 1106 l 2
 1044 1078 l 2
284 1078 m 2
 256 1106 l 2
 432 1280 l 1
 460 1252 l 1
 284 1078 l 2
276 1078 m 2
 100 1252 l 1
 128 1280 l 1
 304 1106 l 2
 276 1078 l 2
664 190 m 0
 886 190 1028 346 1028 590 c 2
 1028 1120 l 1
 1068 1120 l 1
 1068 590 l 2
 1068 324 909 150 664 150 c 0
 419 150 260 322 260 590 c 2
 260 1120 l 1
 300 1120 l 1
 300 590 l 2
 300 344 441 190 664 190 c 0
664 360 m 0
 784 360 848 440 848 590 c 2
 848 1300 l 1
 1248 1300 l 1
 1248 590 l 2
 1248 230 1007 -20 664 -20 c 0
 318 -20 80 230 80 590 c 2
 80 1300 l 1
 480 1300 l 1
 480 590 l 2
 480 438 543 360 664 360 c 0
664 20 m 0
 985 20 1208 252 1208 590 c 2
 1208 1262 l 1
 888 1262 l 1
 888 590 l 2
 888 418 807 320 664 320 c 0
 520 320 440 416 440 590 c 2
 440 1262 l 1
 120 1262 l 1
 120 590 l 2
 120 252 341 20 664 20 c 0
EndSplineSet
EndChar

StartChar: ugrave
Encoding: 249 249 162
GlifName: ugrave
Width: 1188
Flags: HW
LayerCount: 2
Fore
SplineSet
648 1236 m 5
 686 1248 l 5
 726 1090 l 5
 688 1080 l 5
 648 1236 l 5
652 1244 m 5
 808 1288 l 5
 818 1248 l 5
 662 1206 l 5
 652 1244 l 5
676 1202 m 5
 236 1456 l 5
 256 1490 l 5
 696 1236 l 5
 676 1202 l 5
720 1038 m 5
 72 1412 l 5
 212 1654 l 5
 860 1280 l 5
 720 1038 l 5
808 1264 m 5
 226 1600 l 5
 126 1428 l 5
 708 1092 l 5
 808 1264 l 5
284 1456 m 5
 246 1446 l 5
 206 1602 l 5
 244 1614 l 5
 284 1456 l 5
280 1448 m 5
 124 1406 l 5
 114 1444 l 5
 270 1488 l 5
 280 1448 l 5
904 778 m 1
 728 952 l 1
 756 980 l 1
 932 806 l 1
 904 778 l 1
912 778 m 1
 884 806 l 1
 1060 980 l 1
 1088 952 l 1
 912 778 l 1
1068 160 m 1
 1068 962 l 1
 748 962 l 1
 748 160 l 1
 708 160 l 1
 708 1000 l 1
 1108 1000 l 1
 1108 160 l 1
 1068 160 l 1
888 6 m 1
 888 820 l 1
 928 820 l 1
 928 6 l 1
 888 6 l 1
908 18 m 1
 1076 184 l 1
 1108 160 l 1
 908 -38 l 1
 708 160 l 1
 740 184 l 1
 908 18 l 1
284 778 m 1
 256 806 l 1
 432 980 l 1
 460 952 l 1
 284 778 l 1
276 778 m 1
 100 952 l 1
 128 980 l 1
 304 806 l 1
 276 778 l 1
499 190 m 0
 625 190 708 309 708 490 c 1
 726 490 l 1
 726 285 634 150 493 150 c 0
 351 150 260 260 260 430 c 2
 260 820 l 1
 300 820 l 1
 300 430 l 2
 300 281 376 190 499 190 c 0
736 490 m 1
 736 186 609 -20 421 -20 c 0
 222 -20 80 142 80 370 c 2
 80 1000 l 1
 480 1000 l 1
 480 490 l 2
 480 404 519 360 593 360 c 0
 668 360 708 405 708 490 c 1
 728 490 l 1
 728 382 679 320 593 320 c 0
 495 320 440 381 440 490 c 2
 440 962 l 1
 120 962 l 1
 120 370 l 2
 120 165 245 20 421 20 c 0
 593 20 708 208 708 490 c 1
 736 490 l 1
EndSplineSet
EndChar

StartChar: uacute
Encoding: 250 250 163
GlifName: uacute
Width: 1188
Flags: HW
LayerCount: 2
Fore
SplineSet
540 1236 m 5
 500 1080 l 5
 462 1090 l 5
 502 1248 l 5
 540 1236 l 5
536 1244 m 5
 526 1206 l 5
 370 1248 l 5
 380 1288 l 5
 536 1244 l 5
512 1202 m 5
 492 1236 l 5
 932 1490 l 5
 952 1456 l 5
 512 1202 l 5
468 1038 m 5
 328 1280 l 5
 976 1654 l 5
 1116 1412 l 5
 468 1038 l 5
380 1264 m 5
 480 1092 l 5
 1062 1428 l 5
 962 1600 l 5
 380 1264 l 5
904 1456 m 5
 944 1614 l 5
 982 1602 l 5
 942 1446 l 5
 904 1456 l 5
908 1448 m 5
 918 1488 l 5
 1074 1444 l 5
 1064 1406 l 5
 908 1448 l 5
904 778 m 1
 728 952 l 1
 756 980 l 1
 932 806 l 1
 904 778 l 1
912 778 m 1
 884 806 l 1
 1060 980 l 1
 1088 952 l 1
 912 778 l 1
1068 160 m 1
 1068 962 l 1
 748 962 l 1
 748 160 l 1
 708 160 l 1
 708 1000 l 1
 1108 1000 l 1
 1108 160 l 1
 1068 160 l 1
888 6 m 1
 888 820 l 1
 928 820 l 1
 928 6 l 1
 888 6 l 1
908 18 m 1
 1076 184 l 1
 1108 160 l 1
 908 -38 l 1
 708 160 l 1
 740 184 l 1
 908 18 l 1
284 778 m 1
 256 806 l 1
 432 980 l 1
 460 952 l 1
 284 778 l 1
276 778 m 1
 100 952 l 1
 128 980 l 1
 304 806 l 1
 276 778 l 1
499 190 m 0
 625 190 708 309 708 490 c 1
 726 490 l 1
 726 285 634 150 493 150 c 0
 351 150 260 260 260 430 c 2
 260 820 l 1
 300 820 l 1
 300 430 l 2
 300 281 376 190 499 190 c 0
736 490 m 1
 736 186 609 -20 421 -20 c 0
 222 -20 80 142 80 370 c 2
 80 1000 l 1
 480 1000 l 1
 480 490 l 2
 480 404 519 360 593 360 c 0
 668 360 708 405 708 490 c 1
 728 490 l 1
 728 382 679 320 593 320 c 0
 495 320 440 381 440 490 c 2
 440 962 l 1
 120 962 l 1
 120 370 l 2
 120 165 245 20 421 20 c 0
 593 20 708 208 708 490 c 1
 736 490 l 1
EndSplineSet
EndChar

StartChar: ucircumflex
Encoding: 251 251 164
GlifName: ucircumflex
Width: 1188
Flags: HW
LayerCount: 2
Fore
SplineSet
278 1250 m 5
 268 1212 l 5
 112 1254 l 5
 122 1294 l 5
 278 1250 l 5
282 1242 m 5
 242 1086 l 5
 204 1096 l 5
 244 1254 l 5
 282 1242 l 5
910 1250 m 5
 1066 1294 l 5
 1076 1254 l 5
 920 1212 l 5
 910 1250 l 5
906 1242 m 5
 944 1254 l 5
 984 1096 l 5
 946 1086 l 5
 906 1242 l 5
254 1208 m 5
 234 1242 l 5
 594 1456 l 5
 954 1242 l 5
 934 1208 l 5
 594 1410 l 5
 254 1208 l 5
594 1548 m 5
 124 1270 l 5
 224 1098 l 5
 594 1318 l 5
 964 1098 l 5
 1064 1270 l 5
 594 1548 l 5
594 1272 m 5
 210 1044 l 5
 70 1286 l 5
 594 1595 l 5
 1118 1286 l 5
 978 1044 l 5
 594 1272 l 5
904 778 m 1
 728 952 l 1
 756 980 l 1
 932 806 l 1
 904 778 l 1
912 778 m 1
 884 806 l 1
 1060 980 l 1
 1088 952 l 1
 912 778 l 1
1068 160 m 1
 1068 962 l 1
 748 962 l 1
 748 160 l 1
 708 160 l 1
 708 1000 l 1
 1108 1000 l 1
 1108 160 l 1
 1068 160 l 1
888 6 m 1
 888 820 l 1
 928 820 l 1
 928 6 l 1
 888 6 l 1
908 18 m 1
 1076 184 l 1
 1108 160 l 1
 908 -38 l 1
 708 160 l 1
 740 184 l 1
 908 18 l 1
284 778 m 1
 256 806 l 1
 432 980 l 1
 460 952 l 1
 284 778 l 1
276 778 m 1
 100 952 l 1
 128 980 l 1
 304 806 l 1
 276 778 l 1
499 190 m 0
 625 190 708 309 708 490 c 1
 726 490 l 1
 726 285 634 150 493 150 c 0
 351 150 260 260 260 430 c 2
 260 820 l 1
 300 820 l 1
 300 430 l 2
 300 281 376 190 499 190 c 0
736 490 m 1
 736 186 609 -20 421 -20 c 0
 222 -20 80 142 80 370 c 2
 80 1000 l 1
 480 1000 l 1
 480 490 l 2
 480 404 519 360 593 360 c 0
 668 360 708 405 708 490 c 1
 728 490 l 1
 728 382 679 320 593 320 c 0
 495 320 440 381 440 490 c 2
 440 962 l 1
 120 962 l 1
 120 370 l 2
 120 165 245 20 421 20 c 0
 593 20 708 208 708 490 c 1
 736 490 l 1
EndSplineSet
EndChar

StartChar: udieresis
Encoding: 252 252 165
GlifName: udieresis
Width: 1188
Flags: HW
LayerCount: 2
Fore
SplineSet
876 1232 m 1
 904 1260 l 1
 1018 1144 l 1
 990 1116 l 1
 876 1232 l 1
876 1240 m 1
 990 1356 l 1
 1018 1328 l 1
 904 1212 l 1
 876 1240 l 1
918 1216 m 1
 770 1216 l 1
 770 1256 l 1
 918 1256 l 1
 918 1216 l 1
1038 1096 m 1
 650 1096 l 1
 650 1376 l 1
 1038 1376 l 1
 1038 1096 l 1
1000 1336 m 1
 688 1336 l 1
 688 1136 l 1
 1000 1136 l 1
 1000 1336 l 1
812 1240 m 1
 784 1212 l 1
 670 1328 l 1
 698 1356 l 1
 812 1240 l 1
812 1232 m 1
 698 1116 l 1
 670 1144 l 1
 784 1260 l 1
 812 1232 l 1
376 1232 m 1
 404 1260 l 1
 518 1144 l 1
 490 1116 l 1
 376 1232 l 1
376 1240 m 1
 490 1356 l 1
 518 1328 l 1
 404 1212 l 1
 376 1240 l 1
418 1216 m 1
 270 1216 l 1
 270 1256 l 1
 418 1256 l 1
 418 1216 l 1
538 1096 m 1
 150 1096 l 1
 150 1376 l 1
 538 1376 l 1
 538 1096 l 1
500 1336 m 1
 188 1336 l 1
 188 1136 l 1
 500 1136 l 1
 500 1336 l 1
312 1240 m 1
 284 1212 l 1
 170 1328 l 1
 198 1356 l 1
 312 1240 l 1
312 1232 m 1
 198 1116 l 1
 170 1144 l 1
 284 1260 l 1
 312 1232 l 1
904 778 m 1
 728 952 l 1
 756 980 l 1
 932 806 l 1
 904 778 l 1
912 778 m 1
 884 806 l 1
 1060 980 l 1
 1088 952 l 1
 912 778 l 1
1068 160 m 1
 1068 962 l 1
 748 962 l 1
 748 160 l 1
 708 160 l 1
 708 1000 l 1
 1108 1000 l 1
 1108 160 l 1
 1068 160 l 1
888 6 m 1
 888 820 l 1
 928 820 l 1
 928 6 l 1
 888 6 l 1
908 18 m 1
 1076 184 l 1
 1108 160 l 1
 908 -38 l 1
 708 160 l 1
 740 184 l 1
 908 18 l 1
284 778 m 1
 256 806 l 1
 432 980 l 1
 460 952 l 1
 284 778 l 1
276 778 m 1
 100 952 l 1
 128 980 l 1
 304 806 l 1
 276 778 l 1
499 190 m 0
 625 190 708 309 708 490 c 1
 726 490 l 1
 726 285 634 150 493 150 c 0
 351 150 260 260 260 430 c 2
 260 820 l 1
 300 820 l 1
 300 430 l 2
 300 281 376 190 499 190 c 0
736 490 m 1
 736 186 609 -20 421 -20 c 0
 222 -20 80 142 80 370 c 2
 80 1000 l 1
 480 1000 l 1
 480 490 l 2
 480 404 519 360 593 360 c 0
 668 360 708 405 708 490 c 1
 728 490 l 1
 728 382 679 320 593 320 c 0
 495 320 440 381 440 490 c 2
 440 962 l 1
 120 962 l 1
 120 370 l 2
 120 165 245 20 421 20 c 0
 593 20 708 208 708 490 c 1
 736 490 l 1
EndSplineSet
EndChar

StartChar: Yacute
Encoding: 221 221 166
GlifName: Y_acute
Width: 992
Flags: HW
LayerCount: 2
Fore
SplineSet
336 1426 m 1
 594 1740 l 1
 896 1740 l 1
 896 1692 l 1
 382 1388 l 1
 336 1426 l 1
10 1300 m 1
 494 1300 l 1
 494 1216 l 1
 378 1216 l 1
 558 576 l 1
 762 1216 l 1
 638 1216 l 1
 638 1300 l 1
 982 1300 l 1
 982 1216 l 1
 858 1216 l 1
 602 428 l 1
 602 84 l 1
 718 84 l 1
 718 0 l 1
 234 0 l 1
 234 84 l 1
 350 84 l 1
 350 418 l 1
 112 1216 l 1
 10 1216 l 1
 10 1300 l 1
EndSplineSet
EndChar

StartChar: yacute
Encoding: 253 253 167
GlifName: yacute
Width: 912
Flags: HW
LayerCount: 2
Fore
SplineSet
290 1120 m 1
 504 1434 l 5
 770 1434 l 1
 770 1386 l 1
 336 1082 l 1
 290 1120 l 1
10 1000 m 1
 494 1000 l 1
 494 916 l 1
 378 916 l 1
 520 318 l 1
 682 916 l 1
 558 916 l 1
 558 1000 l 1
 902 1000 l 1
 902 916 l 1
 778 916 l 1
 404 -400 l 1
 158 -400 l 1
 158 -156 l 1
 392 -156 l 1
 410 -86 l 1
 112 916 l 1
 10 916 l 1
 10 1000 l 1
EndSplineSet
EndChar

StartChar: ydieresis
Encoding: 255 255 168
GlifName: ydieresis
Width: 912
Flags: HW
LayerCount: 2
Fore
SplineSet
166 1394 m 5
 430 1394 l 5
 430 1096 l 5
 166 1096 l 5
 166 1394 l 5
508 1394 m 5
 772 1394 l 5
 772 1096 l 5
 508 1096 l 5
 508 1394 l 5
10 1000 m 1
 494 1000 l 1
 494 916 l 1
 378 916 l 1
 520 318 l 1
 682 916 l 1
 558 916 l 1
 558 1000 l 1
 902 1000 l 1
 902 916 l 1
 778 916 l 1
 404 -400 l 1
 158 -400 l 1
 158 -156 l 1
 392 -156 l 1
 410 -86 l 1
 112 916 l 1
 10 916 l 1
 10 1000 l 1
EndSplineSet
EndChar

StartChar: thorn
Encoding: 254 254 169
GlifName: thorn
Width: 1028
Flags: HW
LayerCount: 2
Fore
SplineSet
382 1300 m 5
 283 746 122 347 -88 146 c 1
 -80 138 l 1
 81 305 205 560 314 950 c 5
 78 -400 l 1
 144 -400 l 1
 416 1300 l 5
 382 1300 l 5
390 22 m 1
 358 10 318 2 300 2 c 0
 288 2 280 4 280 10 c 0
 280 20 310 28 344 28 c 0
 360 28 370 26 390 22 c 1
366 46 m 0
 316 46 276 30 276 12 c 0
 276 2 288 -4 308 -4 c 0
 328 -4 360 2 410 16 c 1
 472 -8 526 -18 582 -18 c 0
 700 -18 810 28 948 138 c 1
 940 146 l 1
 832 66 718 30 584 30 c 0
 556 30 530 32 466 38 c 1
 734 156 950 466 950 738 c 0
 950 898 876 1006 766 1006 c 0
 586 1006 422 714 196 0 c 1
 206 -4 l 1
 428 686 580 964 732 964 c 0
 822 964 880 868 880 722 c 0
 880 452 684 150 438 40 c 1
 406 44 388 46 366 46 c 0
EndSplineSet
EndChar

StartChar: Thorn
Encoding: 222 222 170
GlifName: T_horn
Width: 1294
Flags: HW
LayerCount: 2
Fore
SplineSet
1004 1356 m 1
 875 1259 821 1164 776 972 c 2
 636 376 l 2
 584 153 482 40 318 40 c 0
 147 40 24 144 24 289 c 0
 24 453 192 586 397 586 c 0
 499 586 570 547 570 491 c 0
 570 446 523 412 459 412 c 0
 348 412 264 491 264 597 c 0
 264 799 500 952 814 952 c 0
 1090 952 1275 824 1275 632 c 0
 1275 475 1131 338 966 338 c 0
 888 338 822 352 760 384 c 1
 754 378 l 1
 838 321 916 296 1010 296 c 0
 1175 296 1291 416 1291 585 c 0
 1291 832 1079 1008 782 1008 c 0
 479 1008 252 841 252 618 c 0
 252 493 340 402 461 402 c 0
 535 402 584 443 584 505 c 0
 584 585 515 636 406 636 c 0
 193 636 16 478 16 288 c 0
 16 119 153 -4 341 -4 c 0
 523 -4 645 129 698 364 c 2
 836 976 l 2
 881 1177 921 1272 1010 1350 c 1
 1004 1356 l 1
EndSplineSet
EndChar

StartChar: germandbls
Encoding: 223 223 171
GlifName: germandbls
Width: 1262
Flags: HW
LayerCount: 2
Fore
SplineSet
112 338 m 2
 112 740 l 2
 112 1072 372 1320 760 1320 c 0
 933 1320 1046 1288 1122 1262 c 1
 1122 1236 l 1
 941 1138 850 1037 850 897 c 0
 850 658 1192 615 1192 274 c 0
 1192 86 1060 -24 851 -24 c 0
 786 -24 685 -13 610 0 c 1
 710 268 l 1
 769 157 899 66 999 66 c 0
 1047 66 1074 83 1074 113 c 0
 1074 265 620 415 620 761 c 0
 620 910 723 991 876 1106 c 1
 748 1210 668 1246 569 1246 c 0
 489 1246 400 1202 400 1096 c 2
 400 0 l 1
 12 0 l 1
 12 34 l 1
 88 54 112 126 112 338 c 2
EndSplineSet
EndChar

StartChar: copyright
Encoding: 169 169 172
GlifName: copyright
Width: 1644
Flags: HW
LayerCount: 2
Fore
SplineSet
822 1380 m 0
 354 1380 60 1103 60 662 c 0
 60 234 370 -60 822 -60 c 0
 1274 -60 1584 234 1584 662 c 0
 1584 1103 1290 1380 822 1380 c 0
818 60 m 0
 439 60 180 304 180 662 c 0
 180 1029 427 1260 818 1260 c 0
 1214 1260 1464 1029 1464 662 c 0
 1464 304 1202 60 818 60 c 0
1176 1120 m 1xdf
 1176 694 l 1
 830 694 l 1xef
 830 748 l 1
 802 748 l 2
 739 748 700 715 700 662 c 0
 700 610 743 572 802 572 c 2
 1176 572 l 1
 1176 200 l 1
 822 200 l 2
 524 200 320 388 320 662 c 0
 320 943 514 1120 822 1120 c 2
 1176 1120 l 1xdf
1056 794 m 1
 1056 1000 l 1
 826 1000 l 2
 589 1000 440 869 440 662 c 0
 440 459 597 320 826 320 c 2
 1056 320 l 1
 1056 444 l 1
 798 444 l 2
 672 444 572 540 572 662 c 0
 572 788 665 876 798 876 c 2
 956 876 l 1xdf
 956 794 l 1
 1056 794 l 1
EndSplineSet
EndChar

StartChar: registered
Encoding: 174 174 173
GlifName: registered
Width: 884
Flags: HW
LayerCount: 2
Fore
SplineSet
504 962 m 1
 530 962 l 1
 590 1020 l 1
 590 1120 l 1
 522 1186 l 1
 290 1186 l 1
 290 1108 l 1
 480 1108 l 1
 504 1086 l 1
 504 962 l 1
290 1088 m 1
 290 730 l 1
 374 730 l 1
 374 1088 l 1
 290 1088 l 1
396 942 m 1
 396 864 l 1
 472 864 l 1
 532 730 l 1
 610 730 l 1
 610 756 l 1
 530 942 l 1
 396 942 l 1
442 1316 m 0
 208 1316 60 1176 60 956 c 0
 60 742 216 596 442 596 c 0
 668 596 824 742 824 956 c 0
 824 1176 676 1316 442 1316 c 0
440 656 m 0
 250 656 120 778 120 956 c 0
 120 1140 244 1256 440 1256 c 0
 638 1256 764 1140 764 956 c 0
 764 778 632 656 440 656 c 0
EndSplineSet
EndChar

StartChar: degree
Encoding: 176 176 174
GlifName: degree
Width: 650
Flags: HW
LayerCount: 2
Fore
SplineSet
240 1058 m 0
 240 1011 271 974 324 974 c 0
 377 974 408 1011 408 1058 c 0
 408 1105 377 1144 324 1144 c 0
 271 1144 240 1105 240 1058 c 0
60 1056 m 0
 60 1192 157 1300 324 1300 c 0
 491 1300 590 1192 590 1056 c 0
 590 920 491 810 324 810 c 0
 157 810 60 920 60 1056 c 0
EndSplineSet
EndChar
